<svg width="24" height="24" viewBox="0 0 24 24" fill="none" xmlns="http://www.w3.org/2000/svg">
<path fill-rule="evenodd" clip-rule="evenodd" d="M2 12C2 10.3431 3.34315 9 5 9C6.65685 9 8 10.3431 8 12C8 13.6569 6.65685 15 5 15C3.34315 15 2 13.6569 2 12ZM5 11C4.44772 11 4 11.4477 4 12C4 12.5523 4.44772 13 5 13C5.55228 13 6 12.5523 6 12C6 11.4477 5.55228 11 5 11ZM9 12C9 10.3431 10.3431 9 12 9C13.6569 9 15 10.3431 15 12C15 13.6569 13.6569 15 12 15C10.3431 15 9 13.6569 9 12ZM12 11C11.4477 11 11 11.4477 11 12C11 12.5523 11.4477 13 12 13C12.5523 13 13 12.5523 13 12C13 11.4477 12.5523 11 12 11ZM19 9C17.3431 9 16 10.3431 16 12C16 13.6569 17.3431 15 19 15C20.6569 15 22 13.6569 22 12C22 10.3431 20.6569 9 19 9ZM18 12C18 11.4477 18.4477 11 19 11C19.5523 11 20 11.4477 20 12C20 12.5523 19.5523 13 19 13C18.4477 13 18 12.5523 18 12Z" fill="currentColor"/>
</svg>
