<svg width="24" height="24" viewBox="0 0 24 24" fill="none" xmlns="http://www.w3.org/2000/svg">
<path fill-rule="evenodd" clip-rule="evenodd" d="M5 6C5 5.44772 5.44772 5 6 5H10C10.5523 5 11 4.55228 11 4C11 3.44772 10.5523 3 10 3H6C4.34315 3 3 4.34315 3 6V18C3 19.6569 4.34315 21 6 21H18C19.6569 21 21 19.6569 21 18V14C21 13.4477 20.5523 13 20 13C19.4477 13 19 13.4477 19 14V18C19 18.5523 18.5523 19 18 19H6C5.44772 19 5 18.5523 5 18V6ZM15 3C14.4477 3 14 3.44772 14 4C14 4.55228 14.4477 5 15 5H17.5858L11.2929 11.2929C10.9024 11.6834 10.9024 12.3166 11.2929 12.7071C11.6834 13.0976 12.3166 13.0976 12.7071 12.7071L19 6.41421V9C19 9.55228 19.4477 10 20 10C20.5523 10 21 9.55228 21 9V4C21 3.44772 20.5523 3 20 3H15Z" fill="currentColor"/>
</svg>
