<svg width="24" height="24" viewBox="0 0 24 24" fill="none" xmlns="http://www.w3.org/2000/svg">
<path d="M15 6L17.2929 3.70711C17.6834 3.31658 18.3166 3.31658 18.7071 3.70711L20.2929 5.29289C20.6834 5.68342 20.6834 6.31658 20.2929 6.70711L18 9M15 6L9.29289 11.7071C9.10536 11.8946 9 12.149 9 12.4142V14C9 14.5523 9.44772 15 10 15H11.5858C11.851 15 12.1054 14.8946 12.2929 14.7071L18 9M15 6L18 9M9 5H6C4.89543 5 4 5.89543 4 7V18C4 19.1046 4.89543 20 6 20H17C18.1046 20 19 19.1046 19 18V15" stroke="currentColor" stroke-width="2" stroke-linecap="round" stroke-linejoin="round"/>
</svg>
