<svg width="24" height="24" viewBox="0 0 24 24" fill="none" xmlns="http://www.w3.org/2000/svg">
<path fill-rule="evenodd" clip-rule="evenodd" d="M3.70712 2.29289C3.3166 1.90237 2.68343 1.90237 2.29291 2.29289C1.90238 2.68342 1.90238 3.31658 2.29291 3.70711L15.5355 16.9497L18.364 19.7782L20.2929 21.7071C20.6834 22.0976 21.3166 22.0976 21.7071 21.7071C22.0976 21.3166 22.0976 20.6834 21.7071 20.2929L20.4536 19.0394C24.0607 14.7177 23.8356 8.27923 19.7782 4.22182C19.3877 3.83129 18.7545 3.83129 18.364 4.22182C17.9735 4.61234 17.9735 5.24551 18.364 5.63603C21.6397 8.91174 21.8624 14.0843 19.0322 17.618L17.6067 16.1925C19.6623 13.4507 19.4434 9.54384 16.9498 7.05024C16.5592 6.65972 15.9261 6.65972 15.5355 7.05024C15.145 7.44077 15.145 8.07393 15.5355 8.46446C17.246 10.1749 17.4581 12.8163 16.1719 14.7577L14.7075 13.2932C14.8951 12.9008 15 12.4616 15 12C15 10.3431 13.6569 8.99999 12 8.99999C11.5384 8.99999 11.0992 9.10489 10.7068 9.29254L3.70712 2.29289ZM3.74861 8.39965C3.96933 7.89339 3.73785 7.30405 3.23159 7.08333C2.72533 6.86261 2.13599 7.09409 1.91527 7.60035C0.161223 11.6236 0.928126 16.4845 4.22184 19.7782C4.61237 20.1687 5.24553 20.1687 5.63605 19.7782C6.02658 19.3876 6.02658 18.7545 5.63605 18.364C2.94322 15.6711 2.31212 11.6945 3.74861 8.39965ZM7.06961 11.1658C7.16119 10.6212 6.79391 10.1054 6.24927 10.0138C5.70463 9.92227 5.18887 10.2895 5.09729 10.8342C4.73506 12.9885 5.38504 15.2845 7.05027 16.9497C7.44079 17.3403 8.07396 17.3403 8.46448 16.9497C8.85501 16.5592 8.85501 15.9261 8.46448 15.5355C7.276 14.347 6.81003 12.7096 7.06961 11.1658Z" fill="currentColor"/>
</svg>
