<svg width="24" height="24" viewBox="0 0 24 24" fill="none" xmlns="http://www.w3.org/2000/svg">
<path fill-rule="evenodd" clip-rule="evenodd" d="M8 9C8 6.79086 9.79086 5 12 5C14.2091 5 16 6.79086 16 9C16 11.2091 14.2091 13 12 13C9.79086 13 8 11.2091 8 9ZM15.6415 13.769C17.0752 12.6725 18 10.9443 18 9C18 5.68629 15.3137 3 12 3C8.68629 3 6 5.68629 6 9C6 10.9443 6.92478 12.6725 8.35847 13.769C5.81374 14.9067 4 17.2079 4 20C4 20.5523 4.44772 21 5 21H19C19.5523 21 20 20.5523 20 20C20 17.2079 18.1863 14.9067 15.6415 13.769ZM12 15C8.98385 15 6.67112 16.8027 6.12364 19H17.8764C17.3289 16.8027 15.0162 15 12 15Z" fill="currentColor"/>
</svg>
