<svg width="24" height="24" viewBox="0 0 24 24" fill="none" xmlns="http://www.w3.org/2000/svg">
<path fill-rule="evenodd" clip-rule="evenodd" d="M2 6C2 4.34315 3.34315 3 5 3H19C20.6569 3 22 4.34315 22 6V7C22 7.36429 21.9026 7.70583 21.7324 8H2.26756C2.09739 7.70583 2 7.36429 2 7V6ZM3 10V18C3 19.6569 4.34315 21 6 21H18C19.6569 21 21 19.6569 21 18V10H3ZM10 12C9.44772 12 9 12.4477 9 13C9 13.5523 9.44772 14 10 14H14C14.5523 14 15 13.5523 15 13C15 12.4477 14.5523 12 14 12H10Z" fill="currentColor"/>
</svg>
