<svg fill="none" xmlns="http://www.w3.org/2000/svg" viewBox="0 0 24 24"><path fill-rule="evenodd" clip-rule="evenodd" d="M12 23c6.075 0 11-4.925 11-11S18.075 1 12 1 1 5.925 1 12s4.925 11 11 11zM4.788 6.416C6.174 4.492 8.474 3 12 3s5.826 1.492 7.212 3.416C20.56 8.289 21 10.506 21 12c0 .631-.152 1.603-.743 2.448C19.625 15.351 18.563 16 17 16c-1.037 0-1.74-.531-2.186-1.157A4 4 0 1116 12c0 .403.086.993.302 1.442.204.427.423.558.698.558.937 0 1.375-.351 1.618-.698.284-.405.382-.933.382-1.302 0-1.173-.36-2.956-1.412-4.416C16.575 6.175 14.874 5 12 5S7.426 6.175 6.412 7.584C5.36 9.044 5 10.827 5 12c0 1.173.36 2.956 1.412 4.416C7.426 17.825 9.126 19 12 19c1.98 0 3.385-.558 4.388-1.334a1 1 0 111.224 1.581C16.229 20.317 14.385 21 12 21c-3.526 0-5.826-1.491-7.212-3.416C3.44 15.711 3 13.494 3 12c0-1.493.44-3.711 1.788-5.584zM12 10a2 2 0 110 4 2 2 0 010-4z" fill="currentColor"/></svg>