<svg width="24" height="24" viewBox="0 0 24 24" fill="none" xmlns="http://www.w3.org/2000/svg">
<path fill-rule="evenodd" clip-rule="evenodd" d="M4 12C4 7.58172 7.58172 4 12 4C16.4183 4 20 7.58172 20 12C20 16.4183 16.4183 20 12 20C7.58172 20 4 16.4183 4 12ZM12 2C6.47715 2 2 6.47715 2 12C2 17.5228 6.47715 22 12 22C17.5228 22 22 17.5228 22 12C22 6.47715 17.5228 2 12 2ZM18 12C18 13.2958 17.5892 14.4957 16.8907 15.4765L8.52346 7.10926C9.50428 6.41079 10.7042 6 12 6C15.3137 6 18 8.68629 18 12ZM6 12C6 10.7042 6.41079 9.50429 7.10925 8.52347L15.4765 16.8908C14.4957 17.5892 13.2958 18 12 18C8.68629 18 6 15.3137 6 12Z" fill="currentColor"/>
</svg>
