<svg fill="none" xmlns="http://www.w3.org/2000/svg" viewBox="0 0 24 24"><path fill-rule="evenodd" clip-rule="evenodd" d="M12 2a1 1 0 011 1v1.055c2.174.247 3.665 1.296 4.611 2.61C18.662 8.123 19 9.84 19 11v3.586l1.707 1.707A1 1 0 0120 18H4a1 1 0 01-.707-1.707L5 14.586V11c0-2.726 1.158-4.526 2.666-5.612C8.745 4.612 9.967 4.224 11 4.075V3a1 1 0 011-1zM8.126 19c.117.477.324.99.662 1.46C9.424 21.341 10.474 22 12 22c1.526 0 2.576-.658 3.211-1.54.339-.47.546-.983.663-1.46H8.126z" fill="currentColor"/></svg>