<svg width="24" height="24" viewBox="0 0 24 24" fill="none" xmlns="http://www.w3.org/2000/svg">
<path fill-rule="evenodd" clip-rule="evenodd" d="M11 4.84987C8.80529 3.82782 5.47916 3.28532 2.36714 5.82898C2.13478 6.0189 2 6.30314 2 6.60324V19C2 19.3863 2.2225 19.7381 2.57155 19.9036C2.9206 20.0691 3.33376 20.0187 3.63286 19.7743C6.36946 17.5375 9.36711 18.4632 11 19.519V4.84987ZM13 4.84987V19.519C14.6329 18.4632 17.6305 17.5375 20.3671 19.7743C20.6662 20.0187 21.0794 20.0691 21.4285 19.9036C21.7775 19.7381 22 19.3863 22 19V6.60324C22 6.30314 21.8652 6.0189 21.6329 5.82898C18.5208 3.28532 15.1947 3.82782 13 4.84987Z" fill="currentColor"/>
</svg>
