<svg fill="none" xmlns="http://www.w3.org/2000/svg" viewBox="0 0 24 24"><path d="M17 3h.01M12 3h.01M7 3h.01" stroke="currentColor" stroke-width="2" stroke-linecap="round" stroke-linejoin="round"/><path fill-rule="evenodd" clip-rule="evenodd" d="M21 19a2 2 0 01-2 2H5a2 2 0 01-2-2v-1.182c.462.117.963.182 1.5.182 1.515 0 2.747-.4 3.667-1.116C9.117 17.554 10.388 18 12 18s2.883-.447 3.833-1.116c.92.715 2.152 1.116 3.667 1.116.538 0 1.038-.065 1.5-.182V19zm0-6.02A4 4 0 0017 9H7a4 4 0 00-4 3.98v.003c.003.014.014.07.05.157.05.126.133.268.25.397.2.223.543.463 1.2.463.529 0 .843-.088 1.017-.163a.726.726 0 00.296-.211c.121-.151.187-.4.187-.626a2 2 0 114 0c0-.016 0-.013.006.004.016.054.075.248.283.457.215.215.69.539 1.711.539 1.02 0 1.496-.324 1.71-.54.21-.208.268-.402.284-.456.005-.017.006-.02.006-.004a2 2 0 114 0c0 .227.066.475.187.626.049.06.13.14.296.21.174.076.488.164 1.017.164.657 0 1-.24 1.2-.463.117-.129.2-.27.25-.397.036-.088.047-.143.05-.157v-.003z" fill="currentColor"/><path d="M3 17.818l.246-.97a1 1 0 00-1.246.97h1zm5.167-.934l.577-.818a1 1 0 00-1.19.028l.613.79zm7.666 0l.614-.79a1 1 0 00-1.19-.028l.576.818zm5.167.934h1a1 1 0 00-1.246-.97l.246.97zm0-4.838l.979.205a.998.998 0 00.02-.21L21 12.98zm-18 0l-1-.005a1 1 0 00.021.21L3 12.98zm0 .003l-.982.184.983-.184zm.05.157l-.928.375.927-.375zm.25.397l.742-.669-.743.67zm2.217.3l.398.917-.398-.917zm.296-.211l.781.624-.78-.624zM9 13a1 1 0 102 0H9zm1.006.004l-.958.288.958-.288zm.283.457l.707-.707-.707.707zm3.422 0l-.707-.707.707.707zm.283-.457l.958.288-.958-.288zM13 13a1 1 0 102 0h-2zm5.187.626l-.781.624.78-.624zm.296.21l.397-.917-.397.918zm2.218-.299l.743.669-.743-.669zm.25-.397l.927.375-.927-.375zm.048-.157l.983.184-.983-.184zM13 6a1 1 0 10-2 0h2zm-2 3a1 1 0 102 0h-2zM6 9a1 1 0 002 0H6zm2-3a1 1 0 00-2 0h2zm8 3a1 1 0 102 0h-2zm2-3a1 1 0 10-2 0h2zm1 16a3 3 0 003-3h-2a1 1 0 01-1 1v2zM5 22h14v-2H5v2zm-3-3a3 3 0 003 3v-2a1 1 0 01-1-1H2zm0-1.182V19h2v-1.182H2zm.754.97A7.092 7.092 0 004.5 19v-2c-.457 0-.874-.055-1.254-.151l-.492 1.939zM4.5 19c1.693 0 3.153-.45 4.281-1.327l-1.228-1.579C6.841 16.648 5.837 17 4.5 17v2zm3.09-1.3c1.13.797 2.606 1.3 4.41 1.3v-2c-1.42 0-2.487-.39-3.256-.934L7.59 17.701zM12 19c1.804 0 3.28-.503 4.41-1.3l-1.154-1.634C14.486 16.61 13.42 17 12 17v2zm3.219-1.327C16.347 18.55 17.807 19 19.5 19v-2c-1.337 0-2.34-.352-3.053-.906l-1.228 1.579zM19.5 19c.618 0 1.201-.075 1.746-.212l-.492-1.94c-.38.097-.797.152-1.254.152v2zm2.5 0v-1.182h-2V19h2zm0-6.025A5 5 0 0017 8v2a3 3 0 013 2.985l2-.01zM17 8h-5v2h5V8zm-5 0H7v2h5V8zM7 8a5 5 0 00-5 4.975l2 .01A3 3 0 017 10V8zm-3.016 4.799l-.001-.005-.004-.019-1.958.41a.947.947 0 01-.003-.017v-.001l1.966-.368zm-.008-.034c-.003-.007-.002-.007 0 .002a.356.356 0 01.007.028v.004l-1.965.368a1.8 1.8 0 00.104.348l1.854-.75zm.066.103a.393.393 0 01-.066-.103l-1.854.75c.092.228.235.47.434.691l1.486-1.338zM4.5 13a.862.862 0 01-.357-.058.285.285 0 01-.1-.074l-1.487 1.338c.382.425.992.794 1.944.794v-2zm.62-.08c-.027.01-.202.08-.62.08v2c.64 0 1.094-.107 1.415-.246L5.12 12.92zm-.088.08a.409.409 0 01.069-.066c.023-.018.033-.021.019-.015l.795 1.835a1.72 1.72 0 00.68-.504L5.031 13zM5 13a.245.245 0 01-.009.063c-.002.008-.002.007.002-.002a.39.39 0 01.04-.06l1.561 1.25C6.902 13.864 7 13.368 7 13H5zm3-3a3 3 0 00-3 3h2a1 1 0 011-1v-2zm3 3a3 3 0 00-3-3v2a1 1 0 011 1h2zm-.036-.284l-.004-.01c0-.005-.004-.015-.008-.027a1.087 1.087 0 00-.072-.166 1 1 0 00-1.136-.49c-.466.124-.633.507-.656.558A1.004 1.004 0 009 13h2v.018l-.004.066a.943.943 0 01-.083.315c-.023.05-.19.433-.655.557a1 1 0 01-1.18-.58l-.024-.067-.006-.017 1.916-.576zm.032.038a.194.194 0 01-.035-.044l.002.004.002.006-.001-.004-1.916.576c.04.13.16.502.534.876l1.414-1.414zM12 13c-.404 0-.65-.064-.79-.119a.609.609 0 01-.214-.127l-1.414 1.414c.42.419 1.156.832 2.418.832v-2zm1.004-.246a.609.609 0 01-.214.127c-.14.055-.386.119-.79.119v2c1.262 0 1.999-.413 2.418-.832l-1.414-1.414zm.032-.038v.004l.001-.006.002-.004s-.01.018-.035.044l1.414 1.414c.373-.374.494-.745.534-.876l-1.916-.576zM15 13v-.028a1.022 1.022 0 00-.088-.391c-.023-.051-.19-.434-.656-.558a1 1 0 00-.965.26 1 1 0 00-.243.396l-.008.026-.004.011 1.916.576-.006.017c-.002.006-.01.033-.025.067a1.003 1.003 0 01-.214.32 1 1 0 01-.965.26c-.466-.124-.632-.506-.655-.557a.996.996 0 01-.083-.315L13 13.018V13h2zm1-3a3 3 0 00-3 3h2a1 1 0 011-1v-2zm3 3a3 3 0 00-3-3v2a1 1 0 011 1h2zm-.032 0a.396.396 0 01.04.061A.223.223 0 0119 13h-2.001c0 .369.098.865.406 1.25L18.968 13zm-.088-.08c-.014-.007-.004-.005.02.014a.373.373 0 01.068.067l-1.562 1.25c.15.186.362.366.68.503l.794-1.835zm.62.08c-.418 0-.593-.07-.62-.08l-.795 1.834c.321.14.775.246 1.415.246v-2zm.458-.132a.284.284 0 01-.1.074.862.862 0 01-.358.058v2c.952 0 1.562-.369 1.944-.794l-1.486-1.338zm.066-.103a.387.387 0 01-.066.103l1.486 1.338c.199-.22.342-.463.434-.69l-1.854-.751zm-.008.034l.001-.004.002-.01a.298.298 0 01.005-.018c.002-.009.003-.01 0-.002l1.854.75c.067-.166.093-.289.104-.348l-1.966-.368zm.005-.025l-.004.02v.005l1.965.367v.002l-.001.006-.002.011-1.958-.41zM11 6v3h2V6h-2zM8 9V6H6v3h2zm10 0V6h-2v3h2z" fill="currentColor"/></svg>