<svg width="24" height="24" fill="none" xmlns="http://www.w3.org/2000/svg"><path fill-rule="evenodd" clip-rule="evenodd" d="M16 3a1 1 0 11-2 0 1 1 0 012 0zm-6 3a1 1 0 00-2 0v1a3 3 0 00-3 3v1a3 3 0 00-3 3v5a3 3 0 003 3h14a3 3 0 003-3v-5a3 3 0 00-3-3v-1a3 3 0 00-3-3V6a1 1 0 10-2 0v1h-1V6a1 1 0 10-2 0v1h-1V6zm2-2a1 1 0 100-2 1 1 0 000 2zm-2-1a1 1 0 11-2 0 1 1 0 012 0zm0 10a1 1 0 10-2 0c0 .34-.11.872-.412 1.29-.264.368-.714.71-1.588.71-.288 0-.524-.037-.716-.095a1 1 0 00-.568 1.918c.392.116.82.177 1.284.177 1.367 0 2.353-.529 3-1.273.647.744 1.633 1.273 3 1.273s2.353-.529 3-1.273c.647.744 1.633 1.273 3 1.273.464 0 .892-.06 1.284-.177a1 1 0 00-.568-1.918A2.507 2.507 0 0118 15c-.874 0-1.324-.342-1.588-.71A2.355 2.355 0 0116 13a1 1 0 10-2 0c0 .34-.11.872-.412 1.29-.264.368-.714.71-1.588.71-.874 0-1.324-.342-1.588-.71A2.355 2.355 0 0110 13z" fill="currentColor"/></svg>