<svg fill="none" xmlns="http://www.w3.org/2000/svg" viewBox="0 0 24 24"><path fill-rule="evenodd" clip-rule="evenodd" d="M18 4a1 1 0 00-1 1v14a1 1 0 001 1h2a1 1 0 001-1V5a1 1 0 00-1-1h-2zm-8 7a1 1 0 011-1h2a1 1 0 011 1v8a1 1 0 01-1 1h-2a1 1 0 01-1-1v-8zm-7 6a1 1 0 011-1h2a1 1 0 011 1v2a1 1 0 01-1 1H4a1 1 0 01-1-1v-2z" fill="currentColor"/><path d="M18 5V3a2 2 0 00-2 2h2zm0 14V5h-2v14h2zm0 0h-2a2 2 0 002 2v-2zm2 0h-2v2h2v-2zm0 0v2a2 2 0 002-2h-2zm0-14v14h2V5h-2zm0 0h2a2 2 0 00-2-2v2zm-2 0h2V3h-2v2zm-7 4a2 2 0 00-2 2h2V9zm2 0h-2v2h2V9zm2 2a2 2 0 00-2-2v2h2zm0 8v-8h-2v8h2zm-2 2a2 2 0 002-2h-2v2zm-2 0h2v-2h-2v2zm-2-2a2 2 0 002 2v-2H9zm0-8v8h2v-8H9zm-5 4a2 2 0 00-2 2h2v-2zm2 0H4v2h2v-2zm2 2a2 2 0 00-2-2v2h2zm0 2v-2H6v2h2zm-2 2a2 2 0 002-2H6v2zm-2 0h2v-2H4v2zm-2-2a2 2 0 002 2v-2H2zm0-2v2h2v-2H2z" fill="currentColor"/></svg>