<svg width="24" height="24" viewBox="0 0 24 24" fill="none" xmlns="http://www.w3.org/2000/svg">
<path fill-rule="evenodd" clip-rule="evenodd" d="M8 11C7.59554 11 7.2309 10.7564 7.07612 10.3827C6.92134 10.009 7.00689 9.57889 7.29289 9.29289L11.2929 5.29289C11.6834 4.90237 12.3166 4.90237 12.7071 5.29289L16.7071 9.29289C16.9931 9.57889 17.0787 10.009 16.9239 10.3827C16.7691 10.7564 16.4045 11 16 11L8 11ZM8 19C7.59554 19 7.2309 18.7564 7.07612 18.3827C6.92134 18.009 7.00689 17.5789 7.29289 17.2929L11.2929 13.2929C11.6834 12.9024 12.3166 12.9024 12.7071 13.2929L16.7071 17.2929C16.9931 17.5789 17.0787 18.009 16.9239 18.3827C16.7691 18.7564 16.4045 19 16 19L8 19Z" fill="currentColor"/>
</svg>
