<svg width="24" height="24" viewBox="0 0 24 24" fill="none" xmlns="http://www.w3.org/2000/svg">
<path fill-rule="evenodd" clip-rule="evenodd" d="M11 8.00003C11 7.59557 10.7564 7.23093 10.3827 7.07615C10.009 6.92137 9.57889 7.00692 9.29289 7.29292L5.29289 11.2929C4.90237 11.6834 4.90237 12.3166 5.29289 12.7071L9.29289 16.7071C9.57889 16.9931 10.009 17.0787 10.3827 16.9239C10.7564 16.7691 11 16.4045 11 16V8.00003ZM19 8.00003C19 7.59557 18.7564 7.23093 18.3827 7.07615C18.009 6.92137 17.5789 7.00692 17.2929 7.29292L13.2929 11.2929C12.9024 11.6834 12.9024 12.3166 13.2929 12.7071L17.2929 16.7071C17.5789 16.9931 18.009 17.0787 18.3827 16.9239C18.7564 16.7691 19 16.4045 19 16V8.00003Z" fill="currentColor"/>
</svg>
