<svg width="24" height="24" viewBox="0 0 24 24" fill="none" xmlns="http://www.w3.org/2000/svg">
<path fill-rule="evenodd" clip-rule="evenodd" d="M8 5C7.59554 5 7.2309 5.24364 7.07612 5.61732C6.92134 5.99099 7.0069 6.42111 7.29289 6.70711L11.2929 10.7071C11.6834 11.0976 12.3166 11.0976 12.7071 10.7071L16.7071 6.70711C16.9931 6.42111 17.0787 5.99099 16.9239 5.61732C16.7691 5.24364 16.4045 5 16 5H8ZM8 13C7.59554 13 7.2309 13.2436 7.07612 13.6173C6.92134 13.991 7.0069 14.4211 7.29289 14.7071L11.2929 18.7071C11.6834 19.0976 12.3166 19.0976 12.7071 18.7071L16.7071 14.7071C16.9931 14.4211 17.0787 13.991 16.9239 13.6173C16.7691 13.2436 16.4045 13 16 13H8Z" fill="currentColor"/>
</svg>
