<svg fill="none" xmlns="http://www.w3.org/2000/svg" viewBox="0 0 24 24"><path fill-rule="evenodd" clip-rule="evenodd" d="M10 3a1 1 0 00-2 0v1H7a3 3 0 00-3 3v1H3a1 1 0 000 2h1v4H3a1 1 0 100 2h1v1a3 3 0 003 3h1v1a1 1 0 102 0v-1h4v1a1 1 0 102 0v-1h1a3 3 0 003-3v-1h1a1 1 0 100-2h-1v-4h1a1 1 0 100-2h-1V7a3 3 0 00-3-3h-1V3a1 1 0 10-2 0v1h-4V3zm-.25 6a.75.75 0 00-.75.75v4.5c0 .414.336.75.75.75h4.5a.75.75 0 00.75-.75v-4.5a.75.75 0 00-.75-.75h-4.5zM12 11a1 1 0 100 2 1 1 0 000-2z" fill="currentColor"/></svg>