<svg fill="none" xmlns="http://www.w3.org/2000/svg" viewBox="0 0 24 24"><path fill-rule="evenodd" clip-rule="evenodd" d="M6.913 7.029C7.751 5.772 9.626 4 12.5 4c2.13 0 3.65 1.08 4.607 2.33a7.133 7.133 0 011.285 2.745c.785.127 1.695.43 2.505 1.014C22.092 10.948 23 12.373 23 14.5c0 2.126-.908 3.551-2.103 4.412C19.753 19.735 18.41 20 17.5 20h-10c-1.077 0-2.67-.315-4.022-1.288C2.075 17.701 1 16.026 1 13.5s1.075-4.201 2.478-5.212c1.124-.809 2.413-1.163 3.435-1.26zM13 10a1 1 0 10-2 0v4.586l-1.293-1.293a1 1 0 00-1.414 1.414l3 3a1 1 0 001.414 0l3-3a1 1 0 00-1.414-1.414L13 14.586V10z" fill="currentColor"/></svg>