<svg fill="none" xmlns="http://www.w3.org/2000/svg" viewBox="0 0 24 24"><path fill-rule="evenodd" clip-rule="evenodd" d="M5 4a3 3 0 00-3 3v10a3 3 0 003 3h14a3 3 0 003-3V7a3 3 0 00-3-3H5zm7 7c0 .662-.215 1.275-.578 1.77.62.465 1.073 1.088 1.444 1.73a1 1 0 11-1.732 1c-.313-.541-.61-.908-.93-1.142C9.909 14.141 9.54 14 9 14c-.54 0-.908.14-1.205.358-.32.234-.616.6-.93 1.143a1 1 0 01-1.73-1.002c.37-.641.824-1.264 1.443-1.728A3 3 0 1112 11zm3-3a1 1 0 100 2h3a1 1 0 100-2h-3zm0 3a1 1 0 100 2h3a1 1 0 100-2h-3zm0 3a1 1 0 100 2h1a1 1 0 100-2h-1zm-6-2a1 1 0 100-2 1 1 0 000 2z" fill="currentColor"/></svg>