<svg fill="none" xmlns="http://www.w3.org/2000/svg" viewBox="0 0 24 24"><path fill-rule="evenodd" clip-rule="evenodd" d="M2.293 2.293a1 1 0 011.414 0l3.054 3.054A10.694 10.694 0 0112 4c3.483 0 6.06 1.577 7.81 3.262a15.09 15.09 0 013.001 4.11c.193.4.192.859 0 1.256-.34.704-1.574 3.032-3.882 4.887l2.778 2.778a1 1 0 01-1.414 1.414l-18-18a1 1 0 010-1.414zm13.153 11.739a4 4 0 00-5.478-5.478l1.514 1.514a2 2 0 012.45 2.45l1.514 1.514zM5.086 8.588l2.945 2.91a4 4 0 004.52 4.465l1.486 1.468c.816.806.474 2.365-.855 2.507-.383.04-.777.062-1.182.062-3.483 0-6.06-1.577-7.81-3.262a15.089 15.089 0 01-3.001-4.11 1.44 1.44 0 010-1.258c.217-.445.765-1.489 1.685-2.653a1.486 1.486 0 012.211-.13z" fill="currentColor"/></svg>