<svg fill="none" xmlns="http://www.w3.org/2000/svg" viewBox="0 0 24 24"><path fill-rule="evenodd" clip-rule="evenodd" d="M11.445 2.168a1 1 0 011.325.194c.468.565 1.852 1.93 3.447 2.687A8.998 8.998 0 0121 13 9 9 0 115.4 6.882a1 1 0 011.644.267c.127.282.471.663.992 1.066l.083.064c.2-1.41.632-2.592 1.145-3.538.686-1.268 1.53-2.139 2.181-2.573zm.476 8.017a1 1 0 011.369.202c.042.054.158.186.323.334a2.536 2.536 0 00.57.396c1.1.633 1.817 1.85 1.817 3.216C16 16.297 14.493 18 12.5 18S9 16.297 9 14.333c0-.943.341-1.812.912-2.469a1 1 0 01.994-.314c.039-.092.08-.18.122-.264.253-.498.582-.88.893-1.101z" fill="currentColor"/></svg>