<svg width="24" height="24" viewBox="0 0 24 24" fill="none" xmlns="http://www.w3.org/2000/svg">
<path d="M5 10V15C5 20 8.4 22 12 22C17.6 22 19 19 19 15V8C19 7.44772 18.5523 7 18 7C17.4477 7 17 7.44772 17 8V10.5C17 10.7761 16.7761 11 16.5 11C16.2239 11 16 10.7761 16 10.5V5C16 4.44772 15.5523 4 15 4C14.4477 4 14 4.44772 14 5V10.5C14 10.7761 13.7761 11 13.5 11C13.2239 11 13 10.7761 13 10.5V3C13 2.44772 12.5523 2 12 2C11.4477 2 11 2.44772 11 3V10.5C11 10.7761 10.7761 11 10.5 11C10.2239 11 10 10.7761 10 10.5V5C10 4.44772 9.55228 4 9 4C8.44772 4 8 4.44772 8 5V12.5C8 12.7761 7.77614 13 7.5 13C7.22386 13 7 12.7761 7 12.5V10C7 9.44772 6.55228 9 6 9C5.44772 9 5 9.44772 5 10Z" fill="currentColor"/>
</svg>
