<svg width="24" height="24" fill="none" xmlns="http://www.w3.org/2000/svg"><path fill-rule="evenodd" clip-rule="evenodd" d="M5 1a4 4 0 00-4 4v14a4 4 0 004 4h14a4 4 0 004-4V5a4 4 0 00-4-4H5zm7.316 4.051a1 1 0 01.633 1.265L12.054 9h1.892l1.105-3.316a1 1 0 011.898.632L16.054 9H19a1 1 0 110 2h-3.613l-.666 2H17a1 1 0 110 2h-2.946l-1.105 3.316a1 1 0 01-1.898-.632L11.946 15h-1.892L8.95 18.316a1 1 0 11-1.898-.632L7.946 15H5a1 1 0 110-2h3.613l.666-2H7a1 1 0 110-2h2.946l1.105-3.316a1 1 0 011.265-.633zM10.721 13l.666-2h1.892l-.666 2H10.72z" fill="currentColor"/></svg>