<svg fill="none" xmlns="http://www.w3.org/2000/svg" viewBox="0 0 24 24"><path fill-rule="evenodd" clip-rule="evenodd" d="M11.4 4.786c.218.214.42.443.6.68A6.248 6.248 0 0117 3c1.926 0 3.226.825 4.012 1.916C21.76 5.956 22 7.173 22 8c0 3.924-2.506 7.173-4.813 9.352a26.816 26.816 0 01-4.279 3.273 16.592 16.592 0 01-.388.23l-.024.013-.007.004-.003.002L12 20c-.486.874-.487.873-.487.873h-.002l-.007-.005-.024-.013a12.398 12.398 0 01-.388-.23 26.822 26.822 0 01-4.278-3.273C4.505 15.172 2 11.924 2 8c0-.827.24-2.044.988-3.084C3.774 3.825 5.074 3 7 3c1.896 0 3.39.795 4.4 1.786zM12 20l.486.874a1 1 0 01-.972 0L12 20z" fill="currentColor"/></svg>