<svg width="24" height="24" viewBox="0 0 24 24" fill="none" xmlns="http://www.w3.org/2000/svg">
<path fill-rule="evenodd" clip-rule="evenodd" d="M15 2.99999C15 2.57732 14.7343 2.20029 14.3362 2.0582C13.9381 1.9161 13.4937 2.03962 13.2261 2.36675L3.22605 13.3668C2.98138 13.6658 2.93088 14.0791 3.09634 14.4282C3.2618 14.7774 3.61362 15 4.00001 15H9.00001V21C9.00001 21.4227 9.26575 21.7997 9.66382 21.9418C10.0619 22.0839 10.5063 21.9604 10.774 21.6332L20.774 10.6332C21.0186 10.3342 21.0691 9.92093 20.9037 9.57176C20.7382 9.22259 20.3864 8.99999 20 8.99999H15V2.99999Z" fill="currentColor"/>
</svg>
