<svg fill="none" xmlns="http://www.w3.org/2000/svg" viewBox="0 0 24 24"><path fill-rule="evenodd" clip-rule="evenodd" d="M5 1a4 4 0 00-4 4v14a4 4 0 004 4h14a4 4 0 004-4V5a4 4 0 00-4-4H5zm3 6c-.827 0-2.044.24-3.084.988C3.825 8.774 3 10.074 3 12c0 1.926.825 3.226 1.916 4.012C5.956 16.76 7.173 17 8 17h2a1 1 0 100-2H8c-.507 0-1.289-.16-1.916-.611C5.508 13.974 5 13.274 5 12c0-1.274.508-1.974 1.084-2.388C6.711 9.16 7.494 9 8 9h2a1 1 0 100-2H8zm6 0a1 1 0 100 2h2c.507 0 1.289.16 1.916.612C18.49 10.026 19 10.726 19 12c0 1.274-.509 1.974-1.084 2.389-.627.45-1.41.611-1.916.611h-2a1 1 0 100 2h2c.827 0 2.044-.24 3.084-.988C20.175 15.226 21 13.926 21 12c0-1.926-.825-3.226-1.916-4.012C18.044 7.24 16.827 7 16 7h-2zm-5 4a1 1 0 100 2h6a1 1 0 100-2H9z" fill="currentColor"/></svg>