<svg fill="none" xmlns="http://www.w3.org/2000/svg" viewBox="0 0 24 24"><path fill-rule="evenodd" clip-rule="evenodd" d="M11.474 21.85L12 21l-.526.85zM12 21l.525.85c-.322.2-.73.2-1.051 0l-.003-.001-.006-.004-.02-.013a7.993 7.993 0 01-.311-.206 17.706 17.706 0 01-.841-.616 20.485 20.485 0 01-2.531-2.332C5.933 16.677 4 13.695 4 10c0-4.539 3.592-8 8-8 4.408 0 8 3.461 8 8 0 3.695-1.933 6.677-3.762 8.678a20.487 20.487 0 01-2.53 2.332 17.706 17.706 0 01-1.085.778 7.993 7.993 0 01-.068.044l-.02.013-.006.004h-.002c0 .001-.002.002-.527-.849zM9 10a3 3 0 116 0 3 3 0 01-6 0z" fill="currentColor"/></svg>