<svg width="24" height="24" viewBox="0 0 24 24" fill="none" xmlns="http://www.w3.org/2000/svg">
<path fill-rule="evenodd" clip-rule="evenodd" d="M21.4719 3.11833C21.797 3.29235 22 3.63121 22 4V16C22 16.3344 21.8329 16.6466 21.5547 16.8321L16 20.5352V6.13148L20.4453 3.16795C20.7522 2.96338 21.1467 2.94431 21.4719 3.11833ZM14 6.13148L10 3.46482V17.8685L14 20.5352V6.13148ZM8 17.8685L3.5547 20.8321C3.24784 21.0366 2.8533 21.0557 2.52814 20.8817C2.20298 20.7077 2 20.3688 2 20V8C2 7.66565 2.1671 7.35342 2.4453 7.16795L8 3.46482V17.8685Z" fill="currentColor"/>
</svg>
