<svg fill="none" xmlns="http://www.w3.org/2000/svg" viewBox="0 0 24 24"><path fill-rule="evenodd" clip-rule="evenodd" d="M22 3a1 1 0 00-1.242-.97l-12 3A1 1 0 008 6v10.391A5.146 5.146 0 006 16c-.998 0-1.947.268-2.676.754C2.602 17.234 2 18.009 2 19c0 .99.602 1.765 1.324 2.246C4.053 21.732 5.002 22 6 22c.998 0 1.947-.268 2.676-.754.72-.48 1.323-1.254 1.324-2.243V10.78l10-2.5v5.111A5.146 5.146 0 0018 13c-.998 0-1.947.268-2.676.754C14.602 14.234 14 15.009 14 16c0 .99.602 1.765 1.324 2.246.729.486 1.678.754 2.676.754.998 0 1.947-.268 2.676-.754.72-.48 1.323-1.254 1.324-2.243V3z" fill="currentColor"/></svg>