<svg width="24" height="24" viewBox="0 0 24 24" fill="none" xmlns="http://www.w3.org/2000/svg">
<path fill-rule="evenodd" clip-rule="evenodd" d="M19.4142 3C18.6332 2.21895 17.3668 2.21895 16.5858 3L8.58579 11C8.21071 11.3751 8 11.8838 8 12.4142V14C8 15.1046 8.89543 16 10 16H11.5858C12.1162 16 12.6249 15.7893 13 15.4142L21 7.41422C21.781 6.63317 21.7811 5.36684 21 4.58579L19.4142 3ZM6 4C4.34315 4 3 5.34315 3 7V18C3 19.6569 4.34315 21 6 21H17C18.6569 21 20 19.6569 20 18V15C20 14.4477 19.5523 14 19 14C18.4477 14 18 14.4477 18 15V18C18 18.5523 17.5523 19 17 19H6C5.44772 19 5 18.5523 5 18V7C5 6.44772 5.44772 6 6 6H9C9.55228 6 10 5.55229 10 5C10 4.44772 9.55228 4 9 4H6Z" fill="currentColor"/>
</svg>
