<svg fill="none" xmlns="http://www.w3.org/2000/svg" viewBox="0 0 24 24"><path fill-rule="evenodd" clip-rule="evenodd" d="M13.293 9.293a1 1 0 001.414 1.414L18 7.414l1.293 1.293A1 1 0 0021 8V4a1 1 0 00-1-1h-4a1 1 0 00-.707 1.707L16.586 6l-3.293 3.293zM3 4a1 1 0 00-1 1c0 2.023.424 4.734 1.583 7.399 1.4 3.22 3.895 6.42 8.022 8.194C13.672 21.483 16.121 22 19 22a1 1 0 001-1v-4a1 1 0 00-.758-.97l-4-1a1 1 0 00-1.017.338l-2.509 3.073c-2.894-1.443-4.796-3.735-5.991-6.174L8.65 9.76a1 1 0 00.32-1.002l-1-4A1 1 0 007 4H3z" fill="currentColor"/></svg>