<svg fill="none" xmlns="http://www.w3.org/2000/svg" viewBox="0 0 24 24"><path fill-rule="evenodd" clip-rule="evenodd" d="M5 3a2 2 0 00-2 2v2a2 2 0 002 2h2a2 2 0 002-2V5a2 2 0 00-2-2H5zm8 1a1 1 0 10-2 0v1a1 1 0 102 0V4zm4-1a2 2 0 00-2 2v2a2 2 0 002 2h2a2 2 0 002-2V5a2 2 0 00-2-2h-2zm-4 6a1 1 0 10-2 0v2a2 2 0 002 2h1a1 1 0 100-2h-1V9zm-9 2a1 1 0 100 2h4a1 1 0 100-2H4zm14 0a1 1 0 100 2h2a1 1 0 100-2h-2zM5 15a2 2 0 00-2 2v2a2 2 0 002 2h2a2 2 0 002-2v-2a2 2 0 00-2-2H5zm8 0a2 2 0 00-2 2v3a1 1 0 102 0v-3h1a1 1 0 100-2h-1zm5 0a1 1 0 100 2h2a1 1 0 100-2h-2zm-2 4a1 1 0 100 2h4a1 1 0 100-2h-4z" fill="currentColor"/></svg>