<svg fill="none" xmlns="http://www.w3.org/2000/svg" viewBox="0 0 24 24"><path fill-rule="evenodd" clip-rule="evenodd" d="M13.383 4.076A1 1 0 0114 5v3.028c1.855.106 3.365.513 4.586 1.158a7.46 7.46 0 013.087 3.014C22.966 14.518 23 17.27 23 19a1 1 0 11-2 0c0-.622-.218-1.081-.597-1.46-.404-.403-1.021-.741-1.832-1-1.344-.428-3.02-.574-4.571-.565V19a1 1 0 01-1.707.707l-7-7a1 1 0 010-1.414l7-7a1 1 0 011.09-.217zM10 5v.586l-5.707 5.707a.997.997 0 000 1.414L10 18.414V19a1 1 0 01-1.707.707l-7-7a1 1 0 010-1.414l7-7A1 1 0 0110 5zm9 15h-.008.016H19z" fill="currentColor"/></svg>