<svg width="24" height="24" viewBox="0 0 24 24" fill="none" xmlns="http://www.w3.org/2000/svg">
<path fill-rule="evenodd" clip-rule="evenodd" d="M12.7071 4.29289C12.3166 3.90237 11.6834 3.90237 11.2929 4.29289L7.29289 8.29289C7.00689 8.57889 6.92134 9.00901 7.07612 9.38268C7.2309 9.75636 7.59554 10 8 10H16C16.4045 10 16.7691 9.75636 16.9239 9.38268C17.0787 9.00901 16.9931 8.57889 16.7071 8.29289L12.7071 4.29289ZM8 14C7.59554 14 7.2309 14.2436 7.07612 14.6173C6.92134 14.991 7.00689 15.4211 7.29289 15.7071L11.2929 19.7071C11.6834 20.0976 12.3166 20.0976 12.7071 19.7071L16.7071 15.7071C16.9931 15.4211 17.0787 14.991 16.9239 14.6173C16.7691 14.2436 16.4045 14 16 14H8Z" fill="currentColor"/>
</svg>
