<svg width="24" height="24" viewBox="0 0 24 24" fill="none" xmlns="http://www.w3.org/2000/svg">
<path fill-rule="evenodd" clip-rule="evenodd" d="M22 6C22 3.79086 20.2091 2 18 2C15.7909 2 14 3.79086 14 6C14 6.28742 14.0303 6.56777 14.0879 6.83801L9.01694 9.3735C8.28364 8.53189 7.20393 8 6 8C3.79086 8 2 9.79086 2 12C2 14.2091 3.79086 16 6 16C7.03487 16 7.97795 15.607 8.68815 14.9621L14.0172 17.6266C14.0058 17.7496 14 17.8741 14 18C14 20.2091 15.7909 22 18 22C20.2091 22 22 20.2091 22 18C22 15.7909 20.2091 14 18 14C16.6322 14 15.4248 14.6865 14.7035 15.7337L9.79157 13.2778C9.92674 12.8765 10 12.4468 10 12C10 11.7126 9.96969 11.4322 9.91208 11.162L14.9831 8.62651C15.7164 9.46811 16.7961 10 18 10C20.2091 10 22 8.20914 22 6Z" fill="currentColor"/>
</svg>
