<svg fill="none" xmlns="http://www.w3.org/2000/svg" viewBox="0 0 24 24"><path fill-rule="evenodd" clip-rule="evenodd" d="M5.08 9H5a2 2 0 00-2 2v2a2 2 0 002 2h.08a2 2 0 011.519.698l3.642 4.25c.604.704 1.759.277 1.759-.651V4.703c0-.928-1.155-1.355-1.76-.65L6.6 8.301A2 2 0 015.08 9zm13.556-4.725a1 1 0 10-1.377 1.45c3.655 3.472 3.655 9.078 0 12.55a1 1 0 101.377 1.45c4.485-4.26 4.485-11.19 0-15.45zm-2.947 2.8a1 1 0 10-1.378 1.45c2.027 1.925 2.027 5.025 0 6.95a1 1 0 101.378 1.45c2.857-2.714 2.857-7.136 0-9.85z" fill="currentColor"/></svg>