<svg fill="none" xmlns="http://www.w3.org/2000/svg" viewBox="0 0 24 24"><path fill-rule="evenodd" clip-rule="evenodd" d="M13 4.703c0-1.857-2.31-2.711-3.519-1.301L5.84 7.65a1 1 0 01-.76.35H5a3 3 0 00-3 3v2a3 3 0 003 3h.08a1 1 0 01.76.35l.712-.612-.713.611 3.642 4.25c1.209 1.41 3.519.555 3.519-1.302V4.703zm3.293 4.59a1 1 0 011.414 0L19 10.586l1.293-1.293a1 1 0 111.414 1.414L20.414 12l1.293 1.293a1 1 0 01-1.414 1.414L19 13.414l-1.293 1.293a1 1 0 01-1.414-1.414L17.586 12l-1.293-1.293a1 1 0 010-1.414z" fill="currentColor"/></svg>