<svg fill="none" xmlns="http://www.w3.org/2000/svg" viewBox="0 0 24 24"><path fill-rule="evenodd" clip-rule="evenodd" d="M5.636 5.636a1 1 0 00-1.414-1.414c-4.296 4.296-4.296 11.26 0 15.556a1 1 0 001.414-1.414 9 9 0 010-12.728zm14.142-1.414a1 1 0 10-1.414 1.414 9 9 0 010 12.728 1 1 0 101.414 1.414c4.296-4.296 4.296-11.26 0-15.556zM8.464 8.464A1 1 0 007.05 7.05a7 7 0 000 9.9 1 1 0 101.414-1.414 5 5 0 010-7.072zM16.95 7.05a1 1 0 10-1.414 1.414 5 5 0 010 7.072 1 1 0 001.414 1.414 7 7 0 000-9.9zM9 12a3 3 0 116 0 3 3 0 01-6 0z" fill="currentColor"/></svg>