<svg fill="none" xmlns="http://www.w3.org/2000/svg" viewBox="0 0 24 24"><path fill-rule="evenodd" clip-rule="evenodd" d="M13 3a1 1 0 10-2 0v1a1 1 0 102 0V3zM5.707 4.293a1 1 0 00-1.414 1.414l1 1a1 1 0 001.414-1.414l-1-1zm14 0a1 1 0 00-1.414 0l-1 1a1 1 0 001.414 1.414l1-1a1 1 0 000-1.414zM12 7a5 5 0 100 10 5 5 0 000-10zm-9 4a1 1 0 100 2h1a1 1 0 100-2H3zm17 0a1 1 0 100 2h1a1 1 0 100-2h-1zM6.707 18.707a1 1 0 10-1.414-1.414l-1 1a1 1 0 101.414 1.414l1-1zm12-1.414a1 1 0 00-1.414 1.414l1 1a1 1 0 001.414-1.414l-1-1zM13 20a1 1 0 10-2 0v1a1 1 0 102 0v-1z" fill="currentColor"/></svg>