<svg fill="none" xmlns="http://www.w3.org/2000/svg" viewBox="0 0 24 24"><path fill-rule="evenodd" clip-rule="evenodd" d="M5.67 4.258A9.959 9.959 0 0112 2a9.96 9.96 0 016.33 2.258.977.977 0 00-.037.035l-3.536 3.535A4.977 4.977 0 0012 7c-1.02 0-1.967.305-2.757.828L5.707 4.293a1.018 1.018 0 00-.037-.035zM4.258 5.67A9.959 9.959 0 002 12a9.96 9.96 0 002.258 6.33.977.977 0 01.035-.037l3.535-3.536A4.977 4.977 0 017 12c0-1.02.305-1.967.828-2.757L4.293 5.707a1.018 1.018 0 01-.035-.037zM5.67 19.742A9.959 9.959 0 0012 22a9.959 9.959 0 006.33-2.258.93.93 0 01-.037-.035l-3.536-3.535A4.977 4.977 0 0112 17a4.977 4.977 0 01-2.757-.828l-3.536 3.535a.967.967 0 01-.037.035zm14.072-1.412A9.959 9.959 0 0022 12a9.959 9.959 0 00-2.258-6.33.967.967 0 01-.035.037l-3.535 3.536c.523.79.828 1.738.828 2.757 0 1.02-.305 1.967-.828 2.757l3.535 3.536a.93.93 0 01.035.037z" fill="currentColor"/><circle cx="12" cy="12" r="3" fill="currentColor"/></svg>