<svg width="24" height="24" viewBox="0 0 24 24" fill="none" xmlns="http://www.w3.org/2000/svg">
<path fill-rule="evenodd" clip-rule="evenodd" d="M2 6C2 4.34315 3.34315 3 5 3H19C20.6569 3 22 4.34315 22 6V18C22 19.6569 20.6569 21 19 21H5C3.34315 21 2 19.6569 2 18V6ZM6.61732 7.07612C6.99099 6.92134 7.42111 7.00689 7.70711 7.29289L11.7071 11.2929C12.0976 11.6834 12.0976 12.3166 11.7071 12.7071L7.70711 16.7071C7.42111 16.9931 6.99099 17.0787 6.61732 16.9239C6.24364 16.7691 6 16.4045 6 16V8C6 7.59554 6.24364 7.2309 6.61732 7.07612ZM12 16C12 15.4477 12.4477 15 13 15H17C17.5523 15 18 15.4477 18 16C18 16.5523 17.5523 17 17 17H13C12.4477 17 12 16.5523 12 16Z" fill="currentColor"/>
</svg>
