<svg fill="none" xmlns="http://www.w3.org/2000/svg" viewBox="0 0 24 24"><path fill-rule="evenodd" clip-rule="evenodd" d="M14 4H5a3 3 0 00-3 3v2c0 1.145.93 1.835 1.524 2.127.142.07.252.161.328.275.072.108.148.288.148.598s-.076.49-.148.598a.812.812 0 01-.328.275C2.93 13.165 2 13.855 2 15v2a3 3 0 003 3h9v-3a1 1 0 112 0v3h3a3 3 0 003-3v-2c0-1.145-.93-1.835-1.524-2.127a.812.812 0 01-.328-.275C20.076 12.49 20 12.31 20 12s.076-.49.148-.598a.812.812 0 01.328-.275C21.07 10.835 22 10.145 22 9V7a3 3 0 00-3-3h-3v3a1 1 0 11-2 0V4zm2 7a1 1 0 10-2 0v2a1 1 0 102 0v-2z" fill="currentColor"/></svg>