<svg fill="none" xmlns="http://www.w3.org/2000/svg" viewBox="0 0 24 24"><path fill-rule="evenodd" clip-rule="evenodd" d="M5 1a4 4 0 00-4 4v14a4 4 0 004 4h14a4 4 0 004-4V5a4 4 0 00-4-4H5zm4 3a1 1 0 00-2 0v1H4a1 1 0 000 2h6.432a8.323 8.323 0 01-1.117 3.127L7.753 8.34a1 1 0 10-1.506 1.32l1.837 2.098C6.7 13.231 5.1 14 4 14a1 1 0 100 2c1.806 0 3.83-1.111 5.406-2.732l.341.39a1 1 0 001.506-1.316l-.567-.648c.908-1.341 1.573-2.941 1.76-4.694H14a1 1 0 100-2H9V4zm7.894 5.553a1 1 0 00-1.788 0l-3 6a.998.998 0 00-.055.13l-1 3a1 1 0 001.898.633L13.72 17h4.558l.772 2.316a1 1 0 001.898-.632l-1-3a.998.998 0 00-.055-.131l-3-6zM16 12.236L17.382 15h-2.764L16 12.236z" fill="currentColor"/></svg>