<svg fill="none" xmlns="http://www.w3.org/2000/svg" viewBox="0 0 24 24"><path fill-rule="evenodd" clip-rule="evenodd" d="M12 5a4 4 0 00-2.906 6.75 5.998 5.998 0 00-2.974 6.449A1 1 0 007.1 19h9.8a1 1 0 00.98-.801 5.998 5.998 0 00-2.974-6.45A4 4 0 0012 5zm4.584 5.779C16.85 10.243 17 9.639 17 9s-.15-1.243-.416-1.779A3 3 0 1121.4 10.8 4 4 0 0123 14v1a1 1 0 01-1 1h-3.083a6.006 6.006 0 00-3.012-4.25 4.01 4.01 0 00.651-.917 3.56 3.56 0 01.044-.033l-.016-.021zm-8.49.97a4.01 4.01 0 01-.65-.916A3.902 3.902 0 007.4 10.8l.016-.021A3.984 3.984 0 017 9c0-.639.15-1.243.416-1.779A3 3 0 102.6 10.8a3.994 3.994 0 00-1.372 4.534A1 1 0 002.17 16h2.912a6.006 6.006 0 013.011-4.25z" fill="currentColor"/></svg>