<svg width="24" height="24" viewBox="0 0 24 24" fill="none" xmlns="http://www.w3.org/2000/svg">
<path fill-rule="evenodd" clip-rule="evenodd" d="M5.19993 19.3321C3.23169 17.5058 2 14.8968 2 12C2 6.47715 6.47715 2 12 2C17.5228 2 22 6.47715 22 12C22 14.8968 20.7683 17.5058 18.8001 19.3321C18.3187 17.3627 17.004 15.72 15.2509 14.7991C16.3215 13.882 17 12.5202 17 11C17 8.23858 14.7614 6 12 6C9.23858 6 7 8.23858 7 11C7 12.5202 7.67847 13.882 8.74913 14.7991C6.99601 15.72 5.68133 17.3627 5.19993 19.3321ZM7.01082 20.6684C8.47924 21.5154 10.183 22 12 22C13.817 22 15.5208 21.5154 16.9892 20.6684C16.8185 18.0616 14.65 16 12 16C9.34999 16 7.18149 18.0616 7.01082 20.6684ZM12 8C10.3431 8 9 9.34315 9 11C9 12.6569 10.3431 14 12 14C13.6569 14 15 12.6569 15 11C15 9.34315 13.6569 8 12 8Z" fill="currentColor"/>
</svg>
