<svg fill="none" xmlns="http://www.w3.org/2000/svg" viewBox="0 0 24 24"><path fill-rule="evenodd" clip-rule="evenodd" d="M2 7a2 2 0 012-2h2a2 2 0 110 4H4a2 2 0 01-2-2zm0 5a2 2 0 012-2h2a2 2 0 110 4H4a2 2 0 01-2-2zm2 3a2 2 0 100 4h2a2 2 0 100-4H4zm5-8a2 2 0 012-2h2a2 2 0 110 4h-2a2 2 0 01-2-2zm2 3a2 2 0 100 4h2a2 2 0 100-4h-2zm-2 7a2 2 0 012-2h2a2 2 0 110 4h-2a2 2 0 01-2-2zm9-12a2 2 0 100 4h2a2 2 0 100-4h-2zm-2 7a2 2 0 012-2h2a2 2 0 110 4h-2a2 2 0 01-2-2zm2 3a2 2 0 100 4h2a2 2 0 100-4h-2z" fill="currentColor"/></svg>