<svg xmlns="http://www.w3.org/2000/svg" width="24" height="24" fill="none" viewBox="0 0 24 24">
  <path stroke="#000" stroke-linecap="round" stroke-linejoin="round" stroke-width="2" d="M20.975 7.975a3.5 3.5 0 10-4.95-4.95m4.95 4.95a3.5 3.5 0 11-4.95-4.95m4.95 4.95L18.5 5.5l-2.475-2.475"/>
  <path fill="#000" fill-rule="evenodd" d="M21 11.502a6.48 6.48 0 01-2.5.498A6.495 6.495 0 0113 8.966V16a1 1 0 11-2 0V8a1 1 0 011.178-.984A6.515 6.515 0 0112.498 3H6a3 3 0 00-3 3v12a3 3 0 003 3h12a3 3 0 003-3v-6.498zM8 10a1 1 0 011 1v5a1 1 0 11-2 0v-5a1 1 0 011-1zm8 3a1 1 0 011 1v2a1 1 0 11-2 0v-2a1 1 0 011-1z" clip-rule="evenodd"/>
</svg>
