<svg xmlns="http://www.w3.org/2000/svg" width="24" height="24" fill="none" viewBox="0 0 24 24">
  <path stroke="#000" stroke-linecap="round" stroke-linejoin="round" stroke-width="2" d="M19 2v3m0 3V5m0 0h3m-3 0h-3"/>
  <path fill="#000" fill-rule="evenodd" d="M21 10.659A6 6 0 0113.341 3H6a3 3 0 00-3 3v12a3 3 0 003 3h12a3 3 0 003-3v-7.341zM12 7a1 1 0 011 1v8a1 1 0 11-2 0V8a1 1 0 011-1zm-4 3a1 1 0 011 1v5a1 1 0 11-2 0v-5a1 1 0 011-1zm8 3a1 1 0 011 1v2a1 1 0 11-2 0v-2a1 1 0 011-1z" clip-rule="evenodd"/>
</svg>
