<svg xmlns="http://www.w3.org/2000/svg" viewBox="0 0 24 24" fill="none"><path fill="currentColor" d="M20 14v-2H4v2c0 1.138.583 3.248 2.745 3.841.37.102.787.159 1.255.159h8a4.71 4.71 0 0 0 1.255-.159C19.417 17.248 20 15.138 20 14z"/><path stroke="currentColor" stroke-linecap="round" stroke-linejoin="round" stroke-width="2" d="M3 12h1m16 0v0a1 1 0 0 0 1-1V7c0-1-.6-3-3-3s-3 2-3 3m5 5v2c0 1.138-.583 3.248-2.745 3.841M20 12H4m0 0v2c0 1.138.583 3.248 2.745 3.841M6 20l.745-2.159m0 0c.37.102.787.159 1.255.159h8a4.71 4.71 0 0 0 1.255-.159M18 20l-.745-2.159M15 7h-2m2 0h2"/></svg>