<svg xmlns="http://www.w3.org/2000/svg" viewBox="0 0 24 24" fill="none"><path fill="currentColor" d="M10 5.196c1.5-2.598 5.098-2.83 7.696-1.33s4.196 4.732 2.696 7.33l-3.464-2-1.732-1-1.732-1-3.464-2z"/><path stroke="currentColor" stroke-linecap="round" stroke-linejoin="round" stroke-width="2" d="M17.696 3.866C15.098 2.366 11.5 2.598 10 5.196l3.464 2m4.232-3.33c2.598 1.5 4.196 4.732 2.696 7.33l-5.196-3m2.5-4.33.5-.866m-.5.866c-1.821.488-2.982 1.165-4.232 3.33m4.232-3.33c.488 1.821.482 3.165-.768 5.33m-1.732-1-1.732-1m1.732 1-3 5.196M3 21l.88-1.056a2.001 2.001 0 0 1 3.139.08v0a2.001 2.001 0 0 0 3.107.118l.19-.218a2.236 2.236 0 0 1 3.367 0l.191.218c.838.957 2.344.9 3.107-.117v0a2.001 2.001 0 0 1 3.14-.08L21 21M6.708 16A7.97 7.97 0 0 1 12 14a7.97 7.97 0 0 1 5.292 2"/></svg>