<svg xmlns="http://www.w3.org/2000/svg" width="24" height="24" fill="none" viewBox="0 0 24 24">
  <path stroke="#000" stroke-linecap="round" stroke-linejoin="round" stroke-width="2" d="M3 8V6a2 2 0 012-2h14a2 2 0 012 2v2M3 8v10a2 2 0 002 2h4M3 8h18m0 0v2"/>
  <path fill="#000" fill-rule="evenodd" d="M18 12v1h2a1 1 0 011 1v2h1a1 1 0 011 1 6 6 0 11-6-6 1 1 0 011 1zm-4 4a1 1 0 011-1h.001a1 1 0 110 2H15a1 1 0 01-1-1zm4 2a1 1 0 100 2h.001a1 1 0 100-2H18z" clip-rule="evenodd"/>
  <path fill="#000" d="M3 6a2 2 0 012-2h14a2 2 0 012 2v2H3V6z"/>
</svg>
