<svg xmlns="http://www.w3.org/2000/svg" width="24" height="24" fill="none" viewBox="0 0 24 24">
  <path fill="#000" fill-rule="evenodd" d="M7 2a3 3 0 00-3 3v14a3 3 0 003 3h10a3 3 0 003-3V5a3 3 0 00-3-3H7zm0 4a1 1 0 011-1h8a1 1 0 011 1v4a1 1 0 01-1 1H8a1 1 0 01-1-1V6zm1 7a1 1 0 100 2h.01a1 1 0 100-2H8zm3 1a1 1 0 011-1h.01a1 1 0 110 2H12a1 1 0 01-1-1zm1 2a1 1 0 100 2h.01a1 1 0 100-2H12zm-5 1a1 1 0 011-1h.01a1 1 0 110 2H8a1 1 0 01-1-1zm10-3a1 1 0 10-2 0v3a1 1 0 102 0v-3z" clip-rule="evenodd"/>
</svg>
