<svg xmlns="http://www.w3.org/2000/svg" viewBox="0 0 24 24" fill="none"><path stroke="currentColor" stroke-linecap="round" stroke-linejoin="round" stroke-width="2" d="m3 11 2.48-5.788A2 2 0 0 1 7.32 4h9.362a2 2 0 0 1 1.838 1.212L21 11M3 11h18M3 11v7m18-7v7m-3 0v.5a1.5 1.5 0 0 0 1.5 1.5v0a1.5 1.5 0 0 0 1.5-1.5V18m-3 0H6m12 0h3M6 18v.5A1.5 1.5 0 0 1 4.5 20v0A1.5 1.5 0 0 1 3 18.5V18m3 0H3"/><path fill="currentColor" fill-rule="evenodd" d="M3 11h18v7H3v-7zm3 3a1 1 0 0 1 1-1h.001a1 1 0 1 1 0 2H7a1 1 0 0 1-1-1zm11-1a1 1 0 1 0 0 2h.001a1 1 0 1 0 0-2H17z" clip-rule="evenodd"/></svg>