<svg xmlns="http://www.w3.org/2000/svg" width="24" height="24" fill="none" viewBox="0 0 24 24">
  <path fill="#000" fill-rule="evenodd" d="M6 6a3 3 0 013-3h10a3 3 0 013 3v12a3 3 0 01-3 3h-3.51c.325-.565.51-1.217.51-1.911v-5.438a3.867 3.867 0 00-1.172-2.766l-4-3.911C9.52 5.694 7.53 5.487 6 6.351V6zm11 1a1 1 0 011-1h.001a1 1 0 110 2H18a1 1 0 01-1-1zm-3-1a1 1 0 100 2h.001a1 1 0 100-2H14zm3 6a1 1 0 011-1h.001a1 1 0 110 2H18a1 1 0 01-1-1zm1 4a1 1 0 100 2h.001a1 1 0 100-2H18z" clip-rule="evenodd"/>
  <path fill="#000" fill-rule="evenodd" d="M5.879 8.707a3 3 0 014.242 0l3 3A3 3 0 0114 13.828V18a3 3 0 01-3 3H9v-3a1 1 0 10-2 0v3H5a3 3 0 01-3-3v-4.172a3 3 0 01.879-2.12l3-3z" clip-rule="evenodd"/>
</svg>
