<svg xmlns="http://www.w3.org/2000/svg" viewBox="0 0 24 24" fill="none"><path fill="currentColor" fill-rule="evenodd" d="M6 6a3 3 0 0 1 3-3h10a3 3 0 0 1 3 3v12a3 3 0 0 1-3 3h-3.51a3.82 3.82 0 0 0 .51-1.911v-5.438a3.867 3.867 0 0 0-1.172-2.766l-4-3.911C9.52 5.694 7.53 5.487 6 6.351V6zm11 1a1 1 0 0 1 1-1h.001a1 1 0 1 1 0 2H18a1 1 0 0 1-1-1zm-3-1a1 1 0 1 0 0 2h.001a1 1 0 1 0 0-2H14zm3 6a1 1 0 0 1 1-1h.001a1 1 0 1 1 0 2H18a1 1 0 0 1-1-1zm1 4a1 1 0 1 0 0 2h.001a1 1 0 1 0 0-2H18z" clip-rule="evenodd"/><path fill="currentColor" fill-rule="evenodd" d="M5.879 8.707a3 3 0 0 1 4.242 0l3 3A3 3 0 0 1 14 13.828V18a3 3 0 0 1-3 3H9v-3a1 1 0 1 0-2 0v3H5a3 3 0 0 1-3-3v-4.172a3 3 0 0 1 .879-2.12l3-3z" clip-rule="evenodd"/></svg>