<svg xmlns="http://www.w3.org/2000/svg" width="24" height="24" fill="none" viewBox="0 0 24 24">
  <path stroke="#000" stroke-linecap="round" stroke-linejoin="round" stroke-width="2" d="M7 14v-1a2 2 0 00-2-2v0a2 2 0 01-2-2V5a2 2 0 012-2h7a2 2 0 012 2v3"/>
  <path fill="#000" stroke="#000" stroke-linecap="round" stroke-linejoin="round" stroke-width="2" d="M12 11h7a2 2 0 012 2v4a2 2 0 01-2 2h-.64c-.751 0-1.36.609-1.36 1.36a.68.68 0 01-1.16.48l-1.254-1.254A2 2 0 0013.172 19H12a2 2 0 01-2-2v-4a2 2 0 012-2z"/>
</svg>
