<svg xmlns="http://www.w3.org/2000/svg" width="25" height="24" fill="none"><path fill="currentColor" fill-rule="evenodd" d="M6.85 4.787C8.731 3.44 10.958 3 12.456 3h1.005a1 1 0 0 1 1 1v3h2.014a1 1 0 0 1 1 1v2h3.019a1 1 0 0 1 1 1v1c0 3.503-1.395 5.808-3.297 7.206-1.85 1.36-4.087 1.794-5.74 1.794-1.654 0-3.89-.434-5.742-1.794C4.814 17.808 3.419 15.503 3.419 12c0-3.528 1.5-5.828 3.431-7.213zM9.442 7a1 1 0 1 0 0 2h.001a1 1 0 0 0 0-2zm-3.01 5a1 1 0 0 1 1-1h.002a1 1 0 1 1 0 2h-.001a1 1 0 0 1-1-1zm6.024 0a1 1 0 1 0 0 2h.001a1 1 0 1 0 0-2zm-3.01 4a1 1 0 0 1 1-1h.002a1 1 0 1 1 0 2h-.001a1 1 0 0 1-1-1zm7.029-2a1 1 0 1 0 0 2 1 1 0 1 0 0-2z" clip-rule="evenodd"/></svg>