<svg xmlns="http://www.w3.org/2000/svg" width="24" height="24" fill="none" viewBox="0 0 24 24">
  <path stroke="#000" stroke-linecap="round" stroke-linejoin="round" stroke-width="2" d="M3 3l18 18"/>
  <path fill="#000" fill-rule="evenodd" d="M3.379 4.207L2.293 5.293a1 1 0 001.414 1.414l.793-.793 1.18 1.18A7.96 7.96 0 004.062 11H3v-1a1 1 0 00-2 0v4a1 1 0 102 0v-1h1.062c.182 1.46.759 2.8 1.618 3.906l-1.18 1.18-.793-.793a1 1 0 00-1.414 1.414l3 3a1 1 0 001.414-1.414l-.793-.793 1.18-1.18A7.965 7.965 0 0011 19.938V21h-1a1 1 0 100 2h4a1 1 0 100-2h-1v-1.062a7.965 7.965 0 003.906-1.618l1.18 1.18-.793.793a1 1 0 001.414 1.414l1.086-1.086-5.634-5.633a1.017 1.017 0 01-.158.012H14a1 1 0 01-.987-1.159l-1.208-1.208a2.5 2.5 0 01-3.438-3.438L3.379 4.207zm16.153 10.496A7.945 7.945 0 0019.938 13H21v1a1 1 0 102 0v-4a1 1 0 10-2 0v1h-1.062a7.965 7.965 0 00-1.618-3.906l1.18-1.18.793.793a1 1 0 101.414-1.414l-3-3a1 1 0 10-1.414 1.414l.793.793-1.18 1.18A7.966 7.966 0 0013 4.062V3h1a1 1 0 100-2h-4a1 1 0 000 2h1v1.062a7.95 7.95 0 00-1.703.406l10.235 10.235z" clip-rule="evenodd"/>
</svg>
