<svg xmlns="http://www.w3.org/2000/svg" width="24" height="24" fill="none" viewBox="0 0 24 24">
  <path fill="#000" fill-rule="evenodd" d="M9 2a1 1 0 011-1h4a1 1 0 110 2h-1v1.062c1.46.182 2.8.759 3.906 1.618l1.18-1.18-.793-.793a1 1 0 011.414-1.414l3 3a1 1 0 01-1.414 1.414l-.793-.793-1.345 1.346A9 9 0 007.26 18.155L5.914 19.5l.793.793a1 1 0 11-1.414 1.414l-3-3a1 1 0 111.414-1.414l.793.793 1.18-1.18A7.966 7.966 0 014.062 13H3v1a1 1 0 11-2 0v-4a1 1 0 012 0v1h1.062A7.96 7.96 0 015.68 7.094L4.5 5.914l-.793.793a1 1 0 01-1.414-1.414l3-3a1 1 0 011.414 1.414l-.793.793 1.18 1.18A7.96 7.96 0 0111 4.062V3h-1a1 1 0 01-1-1z" clip-rule="evenodd"/>
  <path fill="#000" fill-rule="evenodd" d="M16 9a7 7 0 100 14 7 7 0 000-14zm-1 10a1 1 0 011-1h.001a1 1 0 110 2H16a1 1 0 01-1-1zm2-6a1 1 0 10-2 0l.001 3a1 1 0 102 0L17 13z" clip-rule="evenodd"/>
</svg>
