<svg xmlns="http://www.w3.org/2000/svg" viewBox="0 0 24 24" fill="none"><path fill="currentColor" fill-rule="evenodd" d="M10 1a1 1 0 0 0 0 2h1v1.062A7.96 7.96 0 0 0 7.094 5.68L5.914 4.5l.793-.793a1 1 0 0 0-1.414-1.414l-3 3a1 1 0 0 0 1.414 1.414l.793-.793 1.18 1.18A7.96 7.96 0 0 0 4.062 11H3v-1a1 1 0 0 0-2 0v4a1 1 0 1 0 2 0v-1h1.062c.182 1.46.759 2.8 1.618 3.906l-1.18 1.18-.793-.793a1 1 0 0 0-1.414 1.414l3 3a1 1 0 0 0 1.414-1.414l-.793-.793 1.18-1.18A7.965 7.965 0 0 0 11 19.938V21h-1a1 1 0 1 0 0 2h4a1 1 0 1 0 0-2h-1v-1.062a7.965 7.965 0 0 0 3.906-1.618l1.18 1.18-.793.793a1 1 0 0 0 1.414 1.414l3-3a1 1 0 0 0-1.414-1.414l-.793.793-1.18-1.18A7.965 7.965 0 0 0 19.938 13H21v1a1 1 0 1 0 2 0v-4a1 1 0 1 0-2 0v1h-1.062a7.965 7.965 0 0 0-1.618-3.906l1.18-1.18.793.793a1 1 0 1 0 1.414-1.414l-3-3a1 1 0 1 0-1.414 1.414l.793.793-1.18 1.18A7.966 7.966 0 0 0 13 4.062V3h1a1 1 0 1 0 0-2h-4zm3 13a1 1 0 0 1 1-1h.001a1 1 0 1 1 0 2H14a1 1 0 0 1-1-1zm-3-3.5a.5.5 0 1 1 1 0 .5.5 0 0 1-1 0zm.5-2.5a2.5 2.5 0 1 0 0 5 2.5 2.5 0 0 0 0-5z" clip-rule="evenodd"/></svg>