<svg xmlns="http://www.w3.org/2000/svg" width="24" height="24" fill="none" viewBox="0 0 24 24">
  <path fill="#000" fill-rule="evenodd" d="M10.138 1.815A3 3 0 0114 4.688v14.624a3 3 0 01-3.862 2.873l-6-1.8A3 3 0 012 17.512V6.488a3 3 0 012.138-2.873l6-1.8zM15 4a1 1 0 011-1h3a3 3 0 013 3v1a1 1 0 11-2 0V6a1 1 0 00-1-1h-3a1 1 0 01-1-1zm6 12a1 1 0 011 1v1a3 3 0 01-3 3h-3a1 1 0 110-2h3a1 1 0 001-1v-1a1 1 0 011-1zM9 11a1 1 0 100 2h.001a1 1 0 100-2H9z" clip-rule="evenodd"/>
  <path stroke="#000" stroke-linecap="round" stroke-linejoin="round" stroke-width="2" d="M21 12h-5m0 0l2-2m-2 2l2 2"/>
</svg>
