<svg xmlns="http://www.w3.org/2000/svg" width="24" height="24" fill="none" viewBox="0 0 24 24">
  <path stroke="#000" stroke-linecap="round" stroke-linejoin="round" stroke-width="2" d="M3 3l18 18"/>
  <path fill="#000" fill-rule="evenodd" d="M5.4 6.23c-.44.33-.843.678-1.21 1.032a15.088 15.088 0 00-3.001 4.11 1.435 1.435 0 000 1.255 15.088 15.088 0 003 4.111C5.94 18.423 8.518 20 12 20c2.236 0 4.1-.65 5.61-1.562l-3.944-3.943a3 3 0 01-4.161-4.161L5.401 6.229zm15.266 9.608a15.06 15.06 0 002.145-3.21 1.435 1.435 0 000-1.255 15.086 15.086 0 00-3-4.111C18.06 5.577 15.483 4 12 4a10.83 10.83 0 00-2.808.363l11.474 11.475z" clip-rule="evenodd"/>
</svg>
