<svg xmlns="http://www.w3.org/2000/svg" width="24" height="24" fill="none" viewBox="0 0 24 24">
  <path fill="#000" fill-rule="evenodd" d="M14.346 6.005C14.232 6.002 14.116 6 14 6c-3.633 0-7.031 2.294-9.46 4.574a20.998 20.998 0 01-1.716-2.14 1 1 0 10-1.648 1.133A23.129 23.129 0 003.133 12c-.813.89-1.48 1.74-1.957 2.434a1 1 0 101.648 1.133c.41-.596.994-1.345 1.716-2.141C6.97 15.706 10.367 18 14 18c.123 0 .245-.002.365-.005a10.755 10.755 0 01-.592-1.732 19.124 19.124 0 01-.545-3.332c-.167-2.218.022-4.825 1.118-6.926zm2.122 11.742c.09-.02.18-.04.269-.062 2.017-.492 3.559-1.843 4.562-2.985a13.663 13.663 0 001.47-2.029c.036-.06.063-.109.082-.143l.023-.042.007-.013.002-.004v-.001l.001-.001-.787-.416.787.415.247-.466-.247-.466-.787.415.787-.416-.001-.002-.002-.005-.007-.012-.023-.042a11.436 11.436 0 00-.387-.637A13.66 13.66 0 0021.3 9.3c-1.003-1.142-2.546-2.493-4.562-2.985a10.316 10.316 0 00-.27-.062.998.998 0 01-.12.278c-1.033 1.648-1.294 4.005-1.125 6.25.083 1.104.267 2.137.486 2.978.226.867.47 1.447.632 1.698.059.092.101.19.128.29zm-5.26-7.04a1 1 0 00-1.415-1.414c-.272.271-.47.662-.606 1.015a5.387 5.387 0 00-.318 1.32c-.104.928.016 2.172.924 3.08a1 1 0 001.414-1.415c-.292-.293-.422-.8-.35-1.445.033-.306.11-.594.197-.822.073-.19.134-.286.152-.313.006-.01.007-.011.001-.006zM17 11a1 1 0 011-1h.001a1 1 0 110 2H18a1 1 0 01-1-1z" clip-rule="evenodd"/>
</svg>
