<svg xmlns="http://www.w3.org/2000/svg" viewBox="0 0 24 24" fill="none"><path fill="currentColor" d="M4 14c0 2.333 1.4 7 7 7 0-2.333-1.4-7-7-7zm3-6V4l2.5 2L12 3l2.5 3L17 4v4c0 1.667-1 5-5 5S7 9.667 7 8zm13 6c0 2.333-1.4 7-7 7 0-2.333 1.4-7 7-7z"/><path stroke="currentColor" stroke-linecap="round" stroke-linejoin="round" stroke-width="2" d="M11 21c-5.6 0-7-4.667-7-7 5.6 0 7 4.667 7 7zm0 0h1m0 0v-8m0 8h1m-1-8c-4 0-5-3.333-5-5V4l2.5 2L12 3l2.5 3L17 4v4c0 1.667-1 5-5 5zm1 8c5.6 0 7-4.667 7-7-5.6 0-7 4.667-7 7z"/></svg>