<svg xmlns="http://www.w3.org/2000/svg" width="24" height="24" fill="none" viewBox="0 0 24 24">
  <path fill="#000" fill-rule="evenodd" d="M5 4a2 2 0 00-2 2v12a2 2 0 002 2h7.174A6.5 6.5 0 0121 12.498V9a2 2 0 00-2-2h-5.93a2 2 0 01-1.664-.89l-.812-1.22A2 2 0 008.93 4H5z" clip-rule="evenodd"/>
  <path fill="#000" d="M12.174 20v1a1 1 0 00.973-1.23l-.973.23zM21 12.498l-.385.923A1 1 0 0022 12.498h-1zM11.406 6.11l.832-.554-.832.554zm-.812-1.218l-.832.554.832-.554zM4 6a1 1 0 011-1V3a3 3 0 00-3 3h2zm0 12V6H2v12h2zm1 1a1 1 0 01-1-1H2a3 3 0 003 3v-2zm7.174 0H5v2h7.174v-2zm.973.77A5.522 5.522 0 0113 18.5h-2c0 .594.07 1.174.2 1.73l1.947-.46zM13 18.5a5.5 5.5 0 015.5-5.5v-2a7.5 7.5 0 00-7.5 7.5h2zm5.5-5.5c.752 0 1.465.15 2.115.421l.77-1.846A7.48 7.48 0 0018.5 11v2zM20 9v3.498h2V9h-2zm-1-1a1 1 0 011 1h2a3 3 0 00-3-3v2zm-5.93 0H19V6h-5.93v2zm-2.496-1.336A3 3 0 0013.07 8V6a1 1 0 01-.832-.445l-1.664 1.11zm-.812-1.219l.812 1.22 1.664-1.11-.812-1.22-1.664 1.11zM8.93 5a1 1 0 01.832.445l1.664-1.11A3 3 0 008.93 3v2zM5 5h3.93V3H5v2z"/>
  <path stroke="#000" stroke-linecap="round" stroke-linejoin="round" stroke-width="2" d="M16 19l2 2 4-5"/>
</svg>
