<svg xmlns="http://www.w3.org/2000/svg" width="24" height="24" fill="none" viewBox="0 0 24 24">
  <path fill="#000" d="M9 7a3 3 0 11-6 0 3 3 0 016 0z"/>
  <path stroke="#000" stroke-linecap="round" stroke-linejoin="round" stroke-width="2" d="M6 10a3 3 0 100-6 3 3 0 000 6zm0 0v10"/>
  <g>
    <path fill="#000" d="M21 17a3 3 0 11-6 0 3 3 0 016 0z"/>
    <path stroke="#000" stroke-linecap="round" stroke-linejoin="round" stroke-width="2" d="M18 14a3 3 0 100 6 3 3 0 000-6zm0 0V9a2 2 0 00-2-2h-1m-2 0l2-2v2m-2 0h2m-2 0l2 2V7"/>
  </g>
</svg>
