<svg xmlns="http://www.w3.org/2000/svg" viewBox="0 0 24 24" fill="none"><path fill="currentColor" d="M9 7a3 3 0 1 1-6 0 3 3 0 0 1 6 0z"/><path stroke="currentColor" stroke-linecap="round" stroke-linejoin="round" stroke-width="2" d="M6 10a3 3 0 1 0 0-6 3 3 0 0 0 0 6zm0 0v10"/><path fill="currentColor" d="M21 17a3 3 0 1 1-6 0 3 3 0 0 1 6 0z"/><path stroke="currentColor" stroke-linecap="round" stroke-linejoin="round" stroke-width="2" d="M18 14a3 3 0 1 0 0 6 3 3 0 0 0 0-6zm0 0V9a2 2 0 0 0-2-2h-1m-2 0 2-2v2m-2 0h2m-2 0 2 2V7"/></svg>