<svg xmlns="http://www.w3.org/2000/svg" width="24" height="24" fill="none" viewBox="0 0 24 24">
  <path fill="#000" d="M15.234 20H8.766a2 2 0 01-1.985-1.752L6 12l2.072-.69a2 2 0 011.742.233l1.077.717a2 2 0 002.218 0l1.077-.717a2 2 0 011.742-.234L18 12l-.781 6.248A2 2 0 0115.234 20z"/>
  <path stroke="#000" stroke-linecap="round" stroke-linejoin="round" stroke-width="2" d="M4.5 4h15M6 12l.781 6.248A2 2 0 008.766 20h6.468a2 2 0 001.985-1.752L18 12M6 12l2.072-.69a2 2 0 011.742.233l1.077.717a2 2 0 002.218 0l1.077-.717a2 2 0 011.742-.234L18 12M6 12l-.938-7.5M18 12l.938-7.5"/>
</svg>
