<svg xmlns="http://www.w3.org/2000/svg" width="24" height="24" fill="none" viewBox="0 0 24 24">
  <circle cx="12" cy="12" r="9" stroke="#000" stroke-linecap="round" stroke-linejoin="round" stroke-width="2"/>
  <path fill="#000" d="M8 6V4c2.5-1.167 8.4-2 12 4h-1a2 2 0 00-2 2 2 2 0 11-4 0 2 2 0 00-2-2h-1a2 2 0 01-2-2zM17 16h3c-1.2 1.6-3.833 3.333-5 4v-2a2 2 0 012-2zM11 18v2c-6.4-.4-8-5.5-8-8h2a2 2 0 012 2 2 2 0 002 2 2 2 0 012 2z"/>
  <path stroke="#000" stroke-linecap="round" stroke-linejoin="round" stroke-width="2" d="M8 6V4c2.5-1.167 8.4-2 12 4h-1a2 2 0 00-2 2 2 2 0 11-4 0 2 2 0 00-2-2h-1a2 2 0 01-2-2zM17 16h3c-1.2 1.6-3.833 3.333-5 4v-2a2 2 0 012-2zM11 18v2c-6.4-.4-8-5.5-8-8h2a2 2 0 012 2 2 2 0 002 2 2 2 0 012 2z"/>
</svg>
