<svg xmlns="http://www.w3.org/2000/svg" viewBox="0 0 24 24" fill="none"><path fill="currentColor" stroke="currentColor" stroke-linecap="round" stroke-linejoin="round" stroke-width="2" d="M15 15h1a4 4 0 0 1 4 4 2 2 0 0 1-2 2H8.132a2 2 0 0 1-1.715-.971l-2.194-3.657A1.566 1.566 0 0 1 5.566 14H6a2 2 0 0 1 1.6.8L10 18V9a2 2 0 1 1 4 0v5a1 1 0 0 0 1 1z"/><path stroke="currentColor" stroke-linecap="round" stroke-linejoin="round" stroke-width="2" d="M12 4V3m6 7h1M5 10h1m1.343-4.657-.707-.707m10.021.707.707-.707"/></svg>