<svg xmlns="http://www.w3.org/2000/svg" viewBox="0 0 24 24" fill="none"><path fill="currentColor" d="M4 18v-7c0-2.333 2.4-7 8-7s8 4.667 8 7v7a2 2 0 0 1-2 2h-1a2 2 0 0 1-2-2v-2a2 2 0 0 1 2-2h3v-3c0-2.333-2.4-7-8-7s-8 4.667-8 7v3h3a2 2 0 0 1 2 2v2a2 2 0 0 1-2 2H6a2 2 0 0 1-2-2z"/><path stroke="currentColor" stroke-linecap="round" stroke-linejoin="round" stroke-width="2" d="M4 14v4a2 2 0 0 0 2 2h1a2 2 0 0 0 2-2v-2a2 2 0 0 0-2-2H4zm0 0v-3c0-2.333 2.4-7 8-7s8 4.667 8 7v3m0 0v4a2 2 0 0 1-2 2h-1a2 2 0 0 1-2-2v-2a2 2 0 0 1 2-2h3z"/></svg>