<svg xmlns="http://www.w3.org/2000/svg" width="24" height="24" fill="none" viewBox="0 0 24 24">
  <path fill="#000" d="M4 18v-7c0-2.333 2.4-7 8-7s8 4.667 8 7v7a2 2 0 01-2 2h-1a2 2 0 01-2-2v-2a2 2 0 012-2h3v-3c0-2.333-2.4-7-8-7s-8 4.667-8 7v3h3a2 2 0 012 2v2a2 2 0 01-2 2H6a2 2 0 01-2-2z"/>
  <path stroke="#000" stroke-linecap="round" stroke-linejoin="round" stroke-width="2" d="M4 14v4a2 2 0 002 2h1a2 2 0 002-2v-2a2 2 0 00-2-2H4zm0 0v-3c0-2.333 2.4-7 8-7s8 4.667 8 7v3m0 0v4a2 2 0 01-2 2h-1a2 2 0 01-2-2v-2a2 2 0 012-2h3z"/>
</svg>
