<svg xmlns="http://www.w3.org/2000/svg" width="24" height="24" fill="none" viewBox="0 0 24 24">
  <path stroke="#000" stroke-linecap="round" stroke-linejoin="round" stroke-width="2" d="M22 6v12a4 4 0 01-4 4H6"/>
  <path fill="#000" fill-rule="evenodd" d="M1 3.7A2.7 2.7 0 013.7 1h12.6A2.7 2.7 0 0119 3.7v5.85c0 .078-.01.153-.028.225A.897.897 0 0119 10v6.3a2.7 2.7 0 01-2.7 2.7H3.7A2.7 2.7 0 011 16.3v-2.7a.9.9 0 01.028-.225A.902.902 0 011 13.15V3.7zm2.695 8.848c-.313.004-.613.018-.895.04v-.939V3.7a.9.9 0 01.9-.9h12.6a.9.9 0 01.9.9v5.414c-3.868.125-6.66 1.057-8.623 2.36.745.265 1.575.64 2.391 1.131 1.26.756 2.54 1.819 3.4 3.225a.9.9 0 11-1.535.94c-.663-1.083-1.69-1.96-2.792-2.622-1.1-.66-2.218-1.073-2.994-1.253a13.924 13.924 0 00-3.333-.348h-.02zM5.48 5.04c.467-.337 1.001-.44 1.37-.44.369 0 .903.103 1.37.44.513.369.88.977.88 1.81 0 .833-.367 1.441-.88 1.81-.467.337-1.001.44-1.37.44-.369 0-.903-.103-1.37-.44-.513-.369-.88-.977-.88-1.81 0-.833.367-1.441.88-1.81z" clip-rule="evenodd"/>
</svg>
