<svg xmlns="http://www.w3.org/2000/svg" viewBox="0 0 24 24" fill="none"><path stroke="currentColor" stroke-linecap="round" stroke-linejoin="round" stroke-width="2" d="M22 6v12a4 4 0 0 1-4 4H6"/><path fill="currentColor" fill-rule="evenodd" d="M1 3.7A2.7 2.7 0 0 1 3.7 1h12.6A2.7 2.7 0 0 1 19 3.7v5.85c0 .078-.01.153-.028.225A.897.897 0 0 1 19 10v6.3a2.7 2.7 0 0 1-2.7 2.7H3.7A2.7 2.7 0 0 1 1 16.3v-2.7a.9.9 0 0 1 .028-.225A.902.902 0 0 1 1 13.15V3.7zm2.695 8.848a13.81 13.81 0 0 0-.895.04V3.7a.9.9 0 0 1 .9-.9h12.6a.9.9 0 0 1 .9.9v5.414c-3.868.125-6.66 1.057-8.623 2.36.745.265 1.575.64 2.391 1.131 1.26.756 2.54 1.819 3.4 3.225a.9.9 0 1 1-1.535.94c-.663-1.083-1.69-1.96-2.792-2.622-1.1-.66-2.218-1.073-2.994-1.253a13.924 13.924 0 0 0-3.333-.348h-.02zM5.48 5.04a2.403 2.403 0 0 1 1.37-.44c.369 0 .903.103 1.37.44.513.369.88.977.88 1.81 0 .833-.367 1.441-.88 1.81a2.403 2.403 0 0 1-1.37.44c-.369 0-.903-.103-1.37-.44-.513-.369-.88-.977-.88-1.81 0-.833.367-1.441.88-1.81z" clip-rule="evenodd"/></svg>