<svg xmlns="http://www.w3.org/2000/svg" viewBox="0 0 24 24" fill="none"><path fill="currentColor" fill-rule="evenodd" d="M6.978 6.488A2.674 2.674 0 0 1 8.5 6c.41 0 1.003.115 1.522.488.57.41.978 1.086.978 2.012 0 .926-.408 1.601-.978 2.011A2.674 2.674 0 0 1 8.5 11c-.41 0-1.003-.115-1.522-.489C6.408 10.101 6 9.427 6 8.5c0-.926.408-1.601.978-2.012zm9.353 15.456C18.611 21.177 23 18.143 23 12a1 1 0 0 0-1-1h-1c-4.803 0-8.21 1.072-10.555 2.622 2.035.662 4.076 1.82 5.63 3.751a1 1 0 0 1-1.56 1.254c-1.515-1.884-3.65-2.912-5.796-3.41a15.464 15.464 0 0 0-3.531-.388c-.784.003-1.477.066-2.024.157a1.005 1.005 0 0 1-.232.012l-.096.016a1 1 0 0 0-.76 1.367c.652 1.584 2.135 3.723 4.51 5.097 2.42 1.399 5.684 1.958 9.745.466z" clip-rule="evenodd"/><circle cx="12" cy="12" r="10" stroke="currentColor" stroke-linecap="round" stroke-linejoin="round" stroke-width="2"/></svg>