<svg xmlns="http://www.w3.org/2000/svg" width="24" height="24" fill="none" viewBox="0 0 24 24">
  <path fill="#000" fill-rule="evenodd" d="M5 5a3 3 0 013-3h8a3 3 0 013 3v14a3 3 0 01-3 3H8a3 3 0 01-3-3V5zm3 1.001a1 1 0 002 0V6a1 1 0 10-2 0v.001zm4 1a1 1 0 01-1-1V6a1 1 0 112 0v.001a1 1 0 01-1 1zm2-1a1 1 0 102 0V6a1 1 0 10-2 0v.001zm-5 4a1 1 0 01-1-1V9a1 1 0 112 0v.001a1 1 0 01-1 1zm2-1a1 1 0 102 0V9a1 1 0 10-2 0v.001zm4 1a1 1 0 01-1-1V9a1 1 0 112 0v.001a1 1 0 01-1 1zm-7 2a1 1 0 102 0V12a1 1 0 10-2 0v.001zm4 1a1 1 0 01-1-1V12a1 1 0 112 0v.001a1 1 0 01-1 1zm-1 5a1 1 0 102 0V18a1 1 0 10-2 0v.001z" clip-rule="evenodd"/>
</svg>
