<svg xmlns="http://www.w3.org/2000/svg" viewBox="0 0 24 24" fill="none"><path fill="currentColor" fill-rule="evenodd" d="M5 5a3 3 0 0 1 3-3h8a3 3 0 0 1 3 3v14a3 3 0 0 1-3 3H8a3 3 0 0 1-3-3V5zm3 1.001a1 1 0 0 0 2 0V6a1 1 0 1 0-2 0v.001zm4 1a1 1 0 0 1-1-1V6a1 1 0 1 1 2 0v.001a1 1 0 0 1-1 1zm2-1a1 1 0 1 0 2 0V6a1 1 0 1 0-2 0v.001zm-5 4a1 1 0 0 1-1-1V9a1 1 0 1 1 2 0v.001a1 1 0 0 1-1 1zm2-1a1 1 0 1 0 2 0V9a1 1 0 1 0-2 0v.001zm4 1a1 1 0 0 1-1-1V9a1 1 0 1 1 2 0v.001a1 1 0 0 1-1 1zm-7 2a1 1 0 1 0 2 0V12a1 1 0 1 0-2 0v.001zm4 1a1 1 0 0 1-1-1V12a1 1 0 1 1 2 0v.001a1 1 0 0 1-1 1zm-1 5a1 1 0 1 0 2 0V18a1 1 0 1 0-2 0v.001z" clip-rule="evenodd"/></svg>