<svg xmlns="http://www.w3.org/2000/svg" viewBox="0 0 24 24" fill="none"><path fill="currentColor" fill-rule="evenodd" d="M4 19a3 3 0 0 1-3-3V8a3 3 0 0 1 3-3h16a3 3 0 0 1 3 3v8a3 3 0 0 1-3 3H4zm6-6a1 1 0 1 0 0 2h4a1 1 0 1 0 0-2h-4zm3-3a1 1 0 0 1 1-1h.01a1 1 0 1 1 0 2H14a1 1 0 0 1-1-1zm5-1a1 1 0 1 0 0 2h.01a1 1 0 1 0 0-2H18zm-9 1a1 1 0 0 1 1-1h.01a1 1 0 1 1 0 2H10a1 1 0 0 1-1-1zM6 9a1 1 0 0 0 0 2h.01a1 1 0 1 0 0-2H6zm-1 5a1 1 0 0 1 1-1h.01a1 1 0 1 1 0 2H6a1 1 0 0 1-1-1zm13-1a1 1 0 1 0 0 2h.01a1 1 0 1 0 0-2H18z" clip-rule="evenodd"/></svg>