<svg xmlns="http://www.w3.org/2000/svg" width="24" height="24" fill="none" viewBox="0 0 24 24">
  <path fill="#000" fill-rule="evenodd" d="M4 19a3 3 0 01-3-3V8a3 3 0 013-3h16a3 3 0 013 3v8a3 3 0 01-3 3H4zm6-6a1 1 0 100 2h4a1 1 0 100-2h-4zm3-3a1 1 0 011-1h.01a1 1 0 110 2H14a1 1 0 01-1-1zm5-1a1 1 0 100 2h.01a1 1 0 100-2H18zm-9 1a1 1 0 011-1h.01a1 1 0 110 2H10a1 1 0 01-1-1zM6 9a1 1 0 000 2h.01a1 1 0 100-2H6zm-1 5a1 1 0 011-1h.01a1 1 0 110 2H6a1 1 0 01-1-1zm13-1a1 1 0 100 2h.01a1 1 0 100-2H18z" clip-rule="evenodd"/>
</svg>
