<svg xmlns="http://www.w3.org/2000/svg" viewBox="0 0 24 24" fill="none"><path fill="currentColor" fill-rule="evenodd" d="M20.156 6.473a2.639 2.639 0 0 0-2.63-2.629C15.049 3.817 9.909 4.193 6.5 7.6c-2.796 2.796-2.915 7.3-.157 10.057 2.758 2.758 7.26 2.639 10.057-.157 3.407-3.408 3.783-8.548 3.756-11.027zm-4.62 1.991a1 1 0 0 1 0 1.415l-.978.977.587.195a1 1 0 0 1-.633 1.898l-1.535-.512-1.247 1.247.586.196a1 1 0 0 1-.632 1.897l-1.173-.39a3.01 3.01 0 0 1-.344-.14l-2.41 2.41-3.121 3.121a1 1 0 0 1-1.414-1.414l3.121-3.121 2.41-2.41a3.009 3.009 0 0 1-.14-.344l-.39-1.173a1 1 0 0 1 1.897-.632l.196.586 1.247-1.247-.512-1.535a1 1 0 0 1 1.898-.633l.195.587.977-.978a1 1 0 0 1 1.414 0z" clip-rule="evenodd"/></svg>