<svg xmlns="http://www.w3.org/2000/svg" viewBox="0 0 24 24" fill="none"><path fill="currentColor" fill-rule="evenodd" d="M2 12C2 6.477 6.477 2 12 2s10 4.477 10 10-4.477 10-10 10S2 17.523 2 12zm8-4c-.66 0-1.628.19-2.46.788C6.659 9.424 6 10.474 6 12c0 1.526.658 2.576 1.54 3.211A4.35 4.35 0 0 0 10 16a1 1 0 1 0 0-2c-.34 0-.872-.11-1.29-.412C8.341 13.325 8 12.874 8 12c0-.874.342-1.324.71-1.588C9.127 10.11 9.66 10 10 10a1 1 0 1 0 0-2zm4 0a1 1 0 1 0 0 2c.34 0 .872.11 1.29.412.368.264.71.714.71 1.588 0 .874-.342 1.324-.71 1.588-.418.302-.95.412-1.29.412a1 1 0 1 0 0 2c.66 0 1.628-.19 2.46-.789C17.341 14.576 18 13.526 18 12c0-1.526-.658-2.576-1.54-3.212A4.35 4.35 0 0 0 14 8zm-4 3a1 1 0 1 0 0 2h4a1 1 0 1 0 0-2h-4z" clip-rule="evenodd"/></svg>