<svg xmlns="http://www.w3.org/2000/svg" width="24" height="24" fill="none" viewBox="0 0 24 24">
  <path fill="#000" fill-rule="evenodd" d="M7 7.828V9H6a3 3 0 00-3 3v7a3 3 0 003 3h12c.872 0 1.657-.372 2.205-.966l-7.223-7.223c.012.06.018.124.018.189v3a1 1 0 11-2 0v-3a1 1 0 011.19-.982L7 7.828zm14 8.344V12a3 3 0 00-3-3h-1V7a5 5 0 00-8.62-3.449l1.415 1.415A3 3 0 0115 7v2h-1.172L21 16.172z" clip-rule="evenodd"/>
  <path stroke="#000" stroke-linecap="round" stroke-linejoin="round" stroke-width="2" d="M3 3l18 18"/>
</svg>
