<svg xmlns="http://www.w3.org/2000/svg" viewBox="0 0 24 24" fill="none"><path fill="currentColor" d="M9 4 3 8v12l6-4 6 4 6-4V4l-6 4-6-4z"/><path fill="currentColor" fill-rule="evenodd" d="M21.472 3.118A1 1 0 0 1 22 4v12a1 1 0 0 1-.445.832l-6 4a1 1 0 0 1-1.11 0L9 17.202l-5.445 3.63A1 1 0 0 1 2 20V8a1 1 0 0 1 .445-.832l6-4a1 1 0 0 1 1.11 0L15 6.798l5.445-3.63a1 1 0 0 1 1.027-.05zM4 8.535v9.596l4.445-2.963a1 1 0 0 1 1.11 0L15 18.798l5-3.333V5.869l-4.445 2.963a1 1 0 0 1-1.11 0L9 5.202 4 8.535z" clip-rule="evenodd"/></svg>