<svg xmlns="http://www.w3.org/2000/svg" viewBox="0 0 24 24" fill="none"><path stroke="currentColor" stroke-linecap="round" stroke-linejoin="round" stroke-width="2" d="M17.5 4.842C15.976 4.337 14.146 4 12 4c-2.145 0-3.976.337-5.5.842m11 0c3.021 1 4.835 2.66 5.5 3.658L20.5 11l-3-2V4.842zm-11 0c-3.021 1-4.835 2.66-5.5 3.658L3.5 11l3-2V4.842z"/><path fill="currentColor" fill-rule="evenodd" d="M10 6a1 1 0 0 1 1 1v2h2V7a1 1 0 1 1 2 0v2.586l5.121 5.121A3 3 0 0 1 21 16.828V18a3 3 0 0 1-3 3H6a3 3 0 0 1-3-3v-1.172a3 3 0 0 1 .879-2.12L9 9.585V7a1 1 0 0 1 1-1zm2 11a2 2 0 1 0 0-4 2 2 0 0 0 0 4z" clip-rule="evenodd"/></svg>