<svg xmlns="http://www.w3.org/2000/svg" viewBox="0 0 24 24" fill="none"><path fill="currentColor" d="M23 12.5 20.5 15l-3-2V8.842C15.976 8.337 14.146 8 12 8c-2.145 0-3.976.337-5.5.842V13l-3 2L1 12.5c.665-.997 2.479-2.657 5.5-3.658C8.024 8.337 9.855 8 12 8c2.146 0 3.976.337 5.5.842 3.021 1 4.835 2.66 5.5 3.658z"/><path stroke="currentColor" stroke-linecap="round" stroke-linejoin="round" stroke-width="2" d="M17.5 8.842C15.976 8.337 14.146 8 12 8c-2.145 0-3.976.337-5.5.842m11 0c3.021 1 4.835 2.66 5.5 3.658L20.5 15l-3-2V8.842zm-11 0c-3.021 1-4.835 2.66-5.5 3.658L3.5 15l3-2V8.842z"/></svg>