<svg xmlns="http://www.w3.org/2000/svg" width="24" height="24" fill="none" viewBox="0 0 24 24">
  <path stroke="#000" stroke-linecap="round" stroke-linejoin="round" stroke-width="2" d="M17.5 4.842C15.976 4.337 14.146 4 12 4c-2.145 0-3.976.337-5.5.842m11 0c3.021 1 4.835 2.66 5.5 3.658L20.5 11l-3-2V4.842zm-11 0c-3.021 1-4.835 2.66-5.5 3.658L3.5 11l3-2V4.842z"/>
  <path fill="#000" fill-rule="evenodd" d="M10 6a1 1 0 011 1v2h2V7a1 1 0 112 0v2.586l5.121 5.121A3 3 0 0121 16.828V18a3 3 0 01-3 3H6a3 3 0 01-3-3v-1.172a3 3 0 01.879-2.12L9 9.585V7a1 1 0 011-1zm2 11a2 2 0 100-4 2 2 0 000 4z" clip-rule="evenodd"/>
</svg>
