<svg xmlns="http://www.w3.org/2000/svg" width="24" height="24" fill="none" viewBox="0 0 24 24">
  <path fill="#000" d="M12.956 18.956L9 15l-3.956-3.956a1 1 0 01.314-1.626l5.261-2.255a1 1 0 00.535-.548l1.283-3.207a1 1 0 011.635-.336l6.856 6.856a1 1 0 01-.336 1.635l-3.207 1.283a1 1 0 00-.548.535l-2.255 5.261a1 1 0 01-1.626.314z"/>
  <path stroke="#000" stroke-linecap="round" stroke-linejoin="round" stroke-width="2" d="M4 20l5-5m0 0l3.956 3.956a1 1 0 001.626-.314l2.255-5.261a1 1 0 01.548-.535l3.207-1.283a1 1 0 00.336-1.635l-6.856-6.856a1 1 0 00-1.635.336l-1.283 3.207a1 1 0 01-.535.548L5.358 9.418a1 1 0 00-.314 1.626L9 15z"/>
</svg>
