<svg xmlns="http://www.w3.org/2000/svg" viewBox="0 0 24 24" fill="none"><path fill="currentColor" fill-rule="evenodd" d="M4.859 5A9.973 9.973 0 0 1 12 2c4.479 0 8.267 2.943 9.542 7H15a1 1 0 1 0 0 2h6.95c.033.33.05.663.05 1 0 5.523-4.477 10-10 10a9.972 9.972 0 0 1-7.141-3H11a1 1 0 1 0 0-2H3.338a9.95 9.95 0 0 1-.88-2H13a1 1 0 1 0 0-2H2.05a9.957 9.957 0 0 1 1.289-6H12a1 1 0 1 0 0-2H4.859zM10 9a1 1 0 0 0 0 2h2a1 1 0 1 0 0-2h-2zm-2.292 1.708a1 1 0 0 1-1.414 0h-.001a1 1 0 1 1 1.414-1.415 1 1 0 0 1 0 1.415zm7.586 4a1 1 0 1 0 1.414-1.414v-.001a1 1 0 0 0-1.415 1.414z" clip-rule="evenodd"/></svg>