<svg xmlns="http://www.w3.org/2000/svg" viewBox="0 0 24 24" fill="none"><path stroke="currentColor" stroke-linecap="round" stroke-linejoin="round" stroke-width="2" d="M7 3H5a2 2 0 0 0-2 2v2m0 10v2a2 2 0 0 0 2 2h2m10 0h2a2 2 0 0 0 2-2v-2m0-10V5a2 2 0 0 0-2-2h-2"/><circle cx="12" cy="9" r="3" fill="currentColor" stroke="currentColor" stroke-linecap="round" stroke-linejoin="round" stroke-width="2"/><path fill="currentColor" stroke="currentColor" stroke-linecap="round" stroke-linejoin="round" stroke-width="2" d="M12 12c-2.761 0-5 1.79-5 4h10c0-2.21-2.239-4-5-4z"/></svg>