<svg xmlns="http://www.w3.org/2000/svg" width="24" height="24" fill="none" viewBox="0 0 24 24">
  <path fill="#000" fill-rule="evenodd" d="M8.126 4H6a1 1 0 000 2h2.126a4.007 4.007 0 010-2zm.32 2.836C5.725 8.314 5 11.355 5 13v5a3 3 0 003 3h.028A3.477 3.477 0 018 20.556V15a4 4 0 018 0v5.556c0 .15-.01.299-.028.444H16a3 3 0 003-3v-5c0-1.645-.726-4.686-3.445-6.164a4 4 0 01-7.11 0zM15.873 6H18a1 1 0 100-2h-2.126a4.01 4.01 0 010 2zM12 13a2 2 0 00-2 2v5.556c0 .797.647 1.444 1.444 1.444h1.112c.797 0 1.444-.647 1.444-1.444V15a2 2 0 00-2-2zm-2-8a2 2 0 114 0 2 2 0 01-4 0z" clip-rule="evenodd"/>
</svg>
