<svg xmlns="http://www.w3.org/2000/svg" width="24" height="24" fill="none" viewBox="0 0 24 24">
  <path fill="#000" fill-rule="evenodd" d="M9.024 2.783A1 1 0 0110 2h4a1 1 0 01.976.783l.44 1.981c.4.19.781.41 1.14.66l1.938-.61a1 1 0 011.166.454l2 3.464a1 1 0 01-.19 1.237l-1.497 1.373a8.1 8.1 0 010 1.316l1.497 1.373a1 1 0 01.19 1.237l-2 3.464a1 1 0 01-1.166.454l-1.937-.61c-.36.25-.741.47-1.14.66l-.44 1.98A1 1 0 0114 22h-4a1 1 0 01-.976-.783l-.44-1.981c-.4-.19-.781-.41-1.14-.66l-1.938.61a1 1 0 01-1.166-.454l-2-3.464a1 1 0 01.19-1.237l1.497-1.373a8.097 8.097 0 010-1.316L2.53 9.97a1 1 0 01-.19-1.237l2-3.464a1 1 0 011.166-.454l1.937.61c.36-.25.741-.47 1.14-.66l.44-1.98zM12 15a3 3 0 100-6 3 3 0 000 6z" clip-rule="evenodd"/>
</svg>
