<svg xmlns="http://www.w3.org/2000/svg" width="24" height="24" fill="none" viewBox="0 0 24 24">
  <path stroke="#000" stroke-linecap="round" stroke-linejoin="round" stroke-width="2" d="M13 20H4a1 1 0 01-1-1v-9a1 1 0 011-1h3m6 11h3a1 1 0 001-1v-2.5M13 20v-1"/>
  <path fill="#000" fill-rule="evenodd" d="M22 6a2 2 0 00-2-2H8a2 2 0 00-2 2v9a2 2 0 002 2h12a2 2 0 002-2V6zm-4 .001a1 1 0 11-2 0V6a1 1 0 112 0v.001zm-1 5a1 1 0 001-1V10a1 1 0 10-2 0v.001a1 1 0 001 1zm1 3a1 1 0 11-2 0V14a1 1 0 112 0v.001z" clip-rule="evenodd"/>
</svg>
