<svg xmlns="http://www.w3.org/2000/svg" width="24" height="24" fill="none" viewBox="0 0 24 24">
  <path fill="#000" stroke="#000" stroke-linecap="round" stroke-linejoin="round" stroke-width="2" d="M12 2H4a2 2 0 00-2 2v6a2 2 0 002 2h.93a2 2 0 011.664.89l.574.862a1 1 0 001.664 0l.574-.861A2 2 0 0111.07 12H12a2 2 0 002-2V4a2 2 0 00-2-2z"/>
  <path stroke="#000" stroke-linecap="round" stroke-linejoin="round" stroke-width="2" d="M18 10h2a2 2 0 012 2v6a2 2 0 01-2 2h-.93a2 2 0 00-1.664.89l-.574.862a1 1 0 01-1.664 0l-.574-.861A2 2 0 0012.93 20H12a2 2 0 01-2-2v-1"/>
</svg>
