<svg fill="none" xmlns="http://www.w3.org/2000/svg" viewBox="0 0 24 24"><path d="M20 9V6a2 2 0 00-2-2H6a2 2 0 00-2 2v12c0 1.1.9 2 2 2h2M20 17l1.3-1.3c.4-.4.4-1 0-1.4l-1.6-1.6a1 1 0 00-1.4 0L17 14m3 3l-4.7 4.7a1 1 0 01-.7.3H13a1 1 0 01-1-1v-1.6c0-.3.1-.5.3-.7L17 14m3 3l-3-3" stroke="currentColor" stroke-width="2" stroke-linecap="round" stroke-linejoin="round"/><path d="M8 12v4h2m-2-4h6m-6 0V8h5a2 2 0 110 4H8z" stroke="currentColor" stroke-width="2" stroke-linecap="round" stroke-linejoin="round"/></svg>