<svg fill="none" xmlns="http://www.w3.org/2000/svg" viewBox="0 0 24 24"><path d="M12 2h-2a2 2 0 00-2 2v10c0 1.1.9 2 2 2h10a2 2 0 002-2V4a2 2 0 00-2-2h-2m-6 0v8l3-3 3 3V2m-6 0h6" stroke="currentColor" stroke-width="2" stroke-linecap="round" stroke-linejoin="round"/><path d="M8 5H7a2 2 0 00-2 2v10c0 1.1.9 2 2 2h10a2 2 0 002-2v-1" stroke="currentColor" stroke-width="2" stroke-linecap="round" stroke-linejoin="round"/><path d="M5 8H4a2 2 0 00-2 2v10c0 1.1.9 2 2 2h10a2 2 0 002-2v-1" stroke="currentColor" stroke-width="2" stroke-linecap="round" stroke-linejoin="round"/></svg>