<svg fill="none" xmlns="http://www.w3.org/2000/svg" viewBox="0 0 24 24"><path fill="#fff" d="M0 0h24v24H0z"/><path d="M18 8h-6a2 2 0 00-2 2v11c0 .4.5.6.8.4l3-2.4a2 2 0 012.4 0l3 2.4c.3.2.8 0 .8-.4V10a2 2 0 00-2-2z" stroke="currentColor" stroke-width="2" stroke-linecap="round" stroke-linejoin="round"/><path d="M17 8V7a2 2 0 00-2-2H9a2 2 0 00-2 2v11c0 .4.5.6.8.4l2.2-1.8" stroke="currentColor" stroke-width="2" stroke-linecap="round" stroke-linejoin="round"/><path d="M14 5V4a2 2 0 00-2-2H6a2 2 0 00-2 2v11c0 .4.5.6.8.4L7 13.6" stroke="currentColor" stroke-width="2" stroke-linecap="round" stroke-linejoin="round"/></svg>