<svg fill="none" xmlns="http://www.w3.org/2000/svg" viewBox="0 0 24 24"><path fill="#fff" d="M0 0h24v24H0z"/><path d="M14 5.6c1.7-1.3 4.5-2.9 8 0V15c-3.5-2.9-6.3-1.3-8 0m0-9.4c-1.7-1.3-4.5-2.9-8 0V15c3.5-2.9 6.3-1.3 8 0m0-9.4V15" stroke="currentColor" stroke-width="2" stroke-linecap="round" stroke-linejoin="round"/><path d="M10 20c1.7-1.3 4.5-2.9 8 0v-5.7M10 20c-1.7-1.3-4.5-2.9-8 0v-9.4A6.2 6.2 0 016 9m4 11v-5.7" stroke="currentColor" stroke-width="2" stroke-linecap="round" stroke-linejoin="round"/></svg>