<svg fill="none" xmlns="http://www.w3.org/2000/svg" viewBox="0 0 24 24"><path d="M11 3H7a2 2 0 00-2 2v15.1c0 .4.4.7.7.5l5.3-3a2 2 0 012 0l5.3 3c.3.2.7 0 .7-.5V14M18 3V2m0 1a3 3 0 00-2.1.9M18 3a3 3 0 012.1.9M18 9v1m0-1a3 3 0 002.1-.9M18 9a3 3 0 01-2.1-.9M21 6h1m-1 0a3 3 0 01-.9 2.1M21 6a3 3 0 00-.9-2.1M15 6h-1m1 0c0-.8.3-1.6.9-2.1M15 6c0 .8.3 1.6.9 2.1m0-4.2L15 3m5.1 5.1l.9.9m-5.1-.9L15 9m5.1-5.1L21 3m-3 3h0" stroke="currentColor" stroke-width="2" stroke-linecap="round" stroke-linejoin="round"/></svg>