<svg fill="none" xmlns="http://www.w3.org/2000/svg" viewBox="0 0 24 24"><path d="M8 3H7a2 2 0 00-2 2v15.1c0 .4.4.7.7.5l5.3-3a2 2 0 012 0l5.3 3c.3.2.7 0 .7-.5V16" stroke="currentColor" stroke-width="2" stroke-linecap="round" stroke-linejoin="round"/><path d="M19 10h2c.6 0 1-.4 1-1V6c0-.6-.4-1-1-1h-2m0 5V8h-5v2m5 0v1c0 .6-.4 1-1 1h-3a1 1 0 01-1-1v-1m0 0h-2a1 1 0 01-1-1V6c0-.6.4-1 1-1h2m0 0V3c0-.6.4-1 1-1h3c.6 0 1 .4 1 1v2m-5 0h5" stroke="currentColor" stroke-width="2" stroke-linecap="round" stroke-linejoin="round"/></svg>