<svg fill="none" xmlns="http://www.w3.org/2000/svg" viewBox="0 0 24 24"><path fill="#fff" d="M0 0h24v24H0z"/><path d="M13 7H5a2 2 0 00-2 2v9l3.5-2.6a2 2 0 011.2-.4H13a2 2 0 002-2V9a2 2 0 00-2-2z" stroke="currentColor" stroke-width="2" stroke-linecap="round" stroke-linejoin="round"/><path d="M9 7V5c0-1.1.9-2 2-2h8a2 2 0 012 2v9l-2-1.5" stroke="currentColor" stroke-width="2" stroke-linecap="round" stroke-linejoin="round"/><path d="M15 11h2a2 2 0 012 2v4a2 2 0 01-2 2h-5.3a2 2 0 00-1.2.4L7 22v-6" stroke="currentColor" stroke-width="2" stroke-linecap="round" stroke-linejoin="round"/></svg>