<svg fill="none" xmlns="http://www.w3.org/2000/svg" viewBox="0 0 24 24"><path fill="#fff" d="M0 0h24v24H0z"/><path d="M21 11V6a2 2 0 00-2-2H5a2 2 0 00-2 2v15l3.5-2.6a2 2 0 011.2-.4H9" stroke="currentColor" stroke-width="2" stroke-linecap="round" stroke-linejoin="round"/><path d="M12 17.3c0 2.1 1.8 2.7 2.8 2.7h5c.7 0 2.2-.4 2.2-2.3 0-1.8-1.5-2.2-2.3-2.2 0-.8-.7-2.5-2.4-2.5-1.5 0-2.3 1-2.6 1.5-.9 0-2.7.6-2.7 2.8z" stroke="currentColor" stroke-width="2" stroke-linecap="round" stroke-linejoin="round"/></svg>