<svg fill="none" xmlns="http://www.w3.org/2000/svg" viewBox="0 0 24 24"><path d="M4 15v0a2 2 0 00-2 2v3c0 1.1.9 2 2 2h6a2 2 0 002-2v-3a2 2 0 00-2-2v0m-6 0v0c0-1.1.9-2 2-2h2a2 2 0 012 2v0m-6 0v0c0 1.1.9 2 2 2h2a2 2 0 002-2v0M14 4v0a2 2 0 00-2 2v3c0 1.1.9 2 2 2h6a2 2 0 002-2V6a2 2 0 00-2-2v0m-6 0v0c0-1.1.9-2 2-2h2a2 2 0 012 2v0m-6 0v0c0 1.1.9 2 2 2h2a2 2 0 002-2v0M8 5H6a2 2 0 00-2 2v2m16 6v2a2 2 0 01-2 2h-2" stroke="currentColor" stroke-width="2" stroke-linecap="round" stroke-linejoin="round"/></svg>