<svg fill="none" xmlns="http://www.w3.org/2000/svg" viewBox="0 0 24 24"><path d="M12 4h-1a2 2 0 00-2 2v8c0 1.1.9 2 2 2h8a2 2 0 002-2V6a2 2 0 00-2-2h-1m-6 0v0c0-1.1.9-2 2-2h2a2 2 0 012 2v0m-6 0v0c0 1.1.9 2 2 2h2a2 2 0 002-2v0" stroke="currentColor" stroke-width="2" stroke-linecap="round" stroke-linejoin="round"/><path d="M9 7H8a2 2 0 00-2 2v8c0 1.1.9 2 2 2h8a2 2 0 002-2v-1" stroke="currentColor" stroke-width="2" stroke-linecap="round" stroke-linejoin="round"/><path d="M6 10H5a2 2 0 00-2 2v8c0 1.1.9 2 2 2h8a2 2 0 002-2v-1" stroke="currentColor" stroke-width="2" stroke-linecap="round" stroke-linejoin="round"/></svg>