<svg fill="none" xmlns="http://www.w3.org/2000/svg" viewBox="0 0 24 24"><path d="M3 11a9 9 0 1110 10M12 7v3.8a2 2 0 001.1 1.8L16 14" stroke="currentColor" stroke-width="2" stroke-linecap="round" stroke-linejoin="round"/><path d="M6 15v-1m0 1a3 3 0 00-2.1.9M6 15a3 3 0 012.1.9M6 21v1m0-1a3 3 0 002.1-.9M6 21a3 3 0 01-2.1-.9M9 18h1m-1 0a3 3 0 01-.9 2.1M9 18a3 3 0 00-.9-2.1M3 18H2m1 0c0-.8.3-1.6.9-2.1M3 18c0 .8.3 1.6.9 2.1m0-4.2L3 15m5.1 5.1l.9.9m-5.1-.9L3 21m5.1-5.1L9 15m-3 3h0" stroke="currentColor" stroke-width="2" stroke-linecap="round" stroke-linejoin="round"/></svg>