<svg fill="none" xmlns="http://www.w3.org/2000/svg" viewBox="0 0 24 24"><path fill="#fff" d="M0 0h24v24H0z"/><path d="M5 11.3C5 15 8.3 16 10 16h9c1.3 0 4-.8 4-3.9 0-3-2.7-3.8-4-3.8C19 7 17.6 4 14.3 4c-2.5 0-4 1.7-4.5 2.6-1.6 0-4.9 1-4.9 4.7z" stroke="currentColor" stroke-width="2" stroke-linecap="round" stroke-linejoin="round"/><path d="M19 16.1c0 3.1-2.7 3.9-4 3.9H6c-1.7 0-5-1-5-4.7C1 12 3.3 11 5 10.7" stroke="currentColor" stroke-width="2" stroke-linecap="round" stroke-linejoin="round"/></svg>