<svg fill="none" xmlns="http://www.w3.org/2000/svg" viewBox="0 0 24 24"><path fill="#fff" d="M0 0h24v24H0z"/><path d="M7.5 19C5.7 19 2 17.9 2 13.5S5.7 8 7.5 8c.5-1 2.2-3 5-3 3.5 0 5 3.5 5 5 1.5 0 4.5.9 4.5 4.5S19 19 17.5 19" stroke="currentColor" stroke-width="2" stroke-linecap="round" stroke-linejoin="round"/><path d="M17 17v-2a2 2 0 00-2-2h-5a2 2 0 00-2 2v5c0 1.1.9 2 2 2h2m5-5v3a2 2 0 01-2 2h-3m5-5c-2 0-5 1-5 5m-1-6h0" stroke="currentColor" stroke-width="2" stroke-linecap="round" stroke-linejoin="round"/></svg>