<svg fill="none" xmlns="http://www.w3.org/2000/svg" viewBox="0 0 24 24"><path d="M5 18.4c-1.5-.7-3-2.1-3-4.9C2 9.1 5.7 8 7.5 8c.5-1 2.2-3 5-3 3.5 0 5 3.5 5 5 1.5 0 4.5.9 4.5 4.5 0 2.6-1.6 3.8-3 4.3" stroke="currentColor" stroke-width="2" stroke-linecap="round" stroke-linejoin="round"/><path d="M12 15v-1m0 1a3 3 0 00-2.1.9M12 15a3 3 0 012.1.9M12 21v1m0-1a3 3 0 002.1-.9M12 21a3 3 0 01-2.1-.9M15 18h1m-1 0a3 3 0 01-.9 2.1M15 18a3 3 0 00-.9-2.1M9 18H8m1 0c0-.8.3-1.6.9-2.1M9 18c0 .8.3 1.6.9 2.1m0-4.2L9 15m5.1 5.1l.9.9m-5.1-.9L9 21m5.1-5.1l.9-.9m-3 3h0" stroke="currentColor" stroke-width="2" stroke-linecap="round" stroke-linejoin="round"/></svg>