<svg fill="none" xmlns="http://www.w3.org/2000/svg" viewBox="0 0 24 24"><path d="M17.5 19c1.5 0 4.5-.9 4.5-4.5S19 10 17.5 10c0-1.5-1.5-5-5-5-2.8 0-4.5 2-5 3C5.7 8 2 9.1 2 13.5c0 2.2.9 3.5 2 4.4" stroke="currentColor" stroke-width="2" stroke-linecap="round" stroke-linejoin="round"/><path d="M15 17l1.3-1.3c.4-.4.4-1 0-1.4l-1.6-1.6a1 1 0 00-1.4 0L12 14m3 3l-4.7 4.7a1 1 0 01-.7.3H8a1 1 0 01-1-1v-1.6c0-.3.1-.5.3-.7L12 14m3 3l-3-3" stroke="currentColor" stroke-width="2" stroke-linecap="round" stroke-linejoin="round"/></svg>