<svg fill="none" xmlns="http://www.w3.org/2000/svg" viewBox="0 0 24 24"><path d="M22 14.5c0-3.6-3-4.5-4.5-4.5 0-1.5-1.5-5-5-5-2.8 0-4.5 2-5 3C5.7 8 2 9.1 2 13.5S5.7 19 7.5 19H8" stroke="currentColor" stroke-width="2" stroke-linecap="round" stroke-linejoin="round"/><path d="M11 18.3c0 2.1 1.8 2.7 2.8 2.7h5c.7 0 2.2-.4 2.2-2.3 0-1.8-1.5-2.2-2.3-2.2 0-.8-.7-2.5-2.4-2.5-1.5 0-2.3 1-2.6 1.5-.9 0-2.7.6-2.7 2.8z" stroke="currentColor" stroke-width="2" stroke-linecap="round" stroke-linejoin="round"/></svg>