<svg fill="none" xmlns="http://www.w3.org/2000/svg" viewBox="0 0 24 24"><path fill="#fff" d="M0 0h24v24H0z"/><path d="M4 17.9c-1.1-.9-2-2.2-2-4.4C2 9.1 5.7 8 7.5 8c.5-1 2.2-3 5-3 3.5 0 5 3.5 5 5 1.5 0 4.5.9 4.5 4.5 0 2-1 3.2-2 3.8" stroke="currentColor" stroke-width="2" stroke-linecap="round" stroke-linejoin="round"/><path d="M10 17H9a1 1 0 00-1 1v3c0 .6.4 1 1 1h6c.6 0 1-.4 1-1v-3c0-.6-.4-1-1-1h-1m-4 0v-2c0-1.1.9-2 2-2v0a2 2 0 012 2v2m-4 0h4" stroke="currentColor" stroke-width="2" stroke-linecap="round" stroke-linejoin="round"/></svg>