<svg fill="none" xmlns="http://www.w3.org/2000/svg" viewBox="0 0 24 24"><path d="M12 7.3c0 2.1 1.8 2.7 2.8 2.7h5c.7 0 2.2-.4 2.2-2.3 0-1.8-1.5-2.2-2.3-2.2 0-.8-.7-2.5-2.4-2.5-1.5 0-2.3 1-2.6 1.5-.9 0-2.7.5-2.7 2.8zM2 18.3C2 20.4 3.8 21 4.8 21h5c.7 0 2.2-.4 2.2-2.3 0-1.8-1.5-2.2-2.3-2.2 0-.8-.7-2.5-2.4-2.5-1.5 0-2.3 1-2.5 1.5-1 0-2.8.6-2.8 2.8zM9 6H5a2 2 0 00-2 2v3m6-5L7 4m2 2L7 8M15 18h4a2 2 0 002-2v-3m-6 5l2 2m-2-2l2-2" stroke="currentColor" stroke-width="2" stroke-linecap="round" stroke-linejoin="round"/></svg>