<svg fill="none" xmlns="http://www.w3.org/2000/svg" viewBox="0 0 24 24"><path fill="#fff" d="M0 0h24v24H0z"/><path d="M17.5 17c1.5 0 4.5-.9 4.5-4.5S19 8 17.5 8c0-1.5-1.5-5-5-5-2.8 0-4.5 2-5 3C5.7 6 2 7.1 2 11.5c0 3.7 2.6 5 4.5 5.4" stroke="currentColor" stroke-width="2" stroke-linecap="round" stroke-linejoin="round"/><path d="M10 15h4m-4 3h2m5-3v4a2 2 0 01-2 2H9a2 2 0 01-2-2v-5c0-1.1.9-2 2-2h6a2 2 0 012 2v1z" stroke="currentColor" stroke-width="2" stroke-linecap="round" stroke-linejoin="round"/></svg>