<svg fill="none" xmlns="http://www.w3.org/2000/svg" viewBox="0 0 24 24"><path d="M3 9v8c0 1.1.9 2 2 2h6M3 9V7c0-1.1.9-2 2-2h14a2 2 0 012 2v2M3 9h18m0 0v3M7 13h5m6 2v-1m0 1a3 3 0 00-2.1.9M18 15a3 3 0 012.1.9M18 21v1m0-1a3 3 0 002.1-.9M18 21a3 3 0 01-2.1-.9M21 18h1m-1 0a3 3 0 01-.9 2.1M21 18a3 3 0 00-.9-2.1M15 18h-1m1 0c0-.8.3-1.6.9-2.1M15 18c0 .8.3 1.6.9 2.1m0-4.2L15 15m5.1 5.1l.9.9m-5.1-.9l-.9.9m5.1-5.1l.9-.9m-3 3h0" stroke="currentColor" stroke-width="2" stroke-linecap="round" stroke-linejoin="round"/></svg>