<svg fill="none" xmlns="http://www.w3.org/2000/svg" viewBox="0 0 24 24"><path d="M8 8v4c0 1.1.9 2 2 2h10a2 2 0 002-2V8M8 8V6c0-1.1.9-2 2-2h10a2 2 0 012 2v2M8 8h14m-11 3h2" stroke="currentColor" stroke-width="2" stroke-linecap="round" stroke-linejoin="round"/><path d="M5 11v4c0 1.1.9 2 2 2h10a2 2 0 002-2v-1M5 11V9c0-1.1.9-2 2-2h1m-3 4h3" stroke="currentColor" stroke-width="2" stroke-linecap="round" stroke-linejoin="round"/><path d="M2 14v4c0 1.1.9 2 2 2h10a2 2 0 002-2v-1M2 14v-2c0-1.1.9-2 2-2h1m-3 4h3" stroke="currentColor" stroke-width="2" stroke-linecap="round" stroke-linejoin="round"/></svg>