<svg fill="none" xmlns="http://www.w3.org/2000/svg" viewBox="0 0 24 24"><path fill="#fff" d="M0 0h24v24H0z"/><path d="M18 6c0 2.2-3 4-8 4S2 8.2 2 6m16 0c0-2.2-3-4-8-4S2 3.8 2 6m16 0v4M2 6v4m16 0c0 2.2-3 4-8 4s-8-1.8-8-4m16 0v4c0 2.2-3 4-8 4s-8-1.8-8-4v-4" stroke="currentColor" stroke-width="2" stroke-linecap="round" stroke-linejoin="round"/><path d="M22 10v4m0-4c0-1.5-1.5-2.9-4-3.5m4 3.5c0 1.5-1.5 2.9-4 3.5m4 .5c0 2.2-3 4-8 4l-2-.1M22 14v4c0 2.2-3 4-8 4s-8-1.8-8-4" stroke="currentColor" stroke-width="2" stroke-linecap="round" stroke-linejoin="round"/></svg>