<svg fill="none" xmlns="http://www.w3.org/2000/svg" viewBox="0 0 24 24"><path d="M21 8v6a2 2 0 01-2 2h-8a2 2 0 01-2-2V4c0-1.1.9-2 2-2h4m6 6v-.2c0-.5-.2-1-.6-1.4l-3.8-3.8a2 2 0 00-1.4-.6H15m6 6h-4a2 2 0 01-2-2V2" stroke="currentColor" stroke-width="2" stroke-linecap="round" stroke-linejoin="round"/><path d="M18 17v0a2 2 0 01-2 2H8a2 2 0 01-2-2V7c0-1.1.9-2 2-2v0" stroke="currentColor" stroke-width="2" stroke-linecap="round" stroke-linejoin="round"/><path d="M15 20v0a2 2 0 01-2 2H5a2 2 0 01-2-2V10c0-1.1.9-2 2-2v0" stroke="currentColor" stroke-width="2" stroke-linecap="round" stroke-linejoin="round"/></svg>