<svg fill="none" xmlns="http://www.w3.org/2000/svg" viewBox="0 0 24 24"><path fill="#fff" d="M0 0h24v24H0z"/><path d="M8 5c0-1.1.9-2 2-2h3a2 2 0 011.6.9l.8 1.2c.4.6 1 .9 1.7.9H20a2 2 0 012 2v5a2 2 0 01-2 2H10a2 2 0 01-2-2V5z" stroke="currentColor" stroke-width="2" stroke-linecap="round" stroke-linejoin="round"/><path d="M19 15v1a2 2 0 01-2 2H7a2 2 0 01-2-2V7.5c0-1.1.9-2 2-2h1" stroke="currentColor" stroke-width="2" stroke-linecap="round" stroke-linejoin="round"/><path d="M16 18v1a2 2 0 01-2 2H4a2 2 0 01-2-2v-8.5c0-1.1.9-2 2-2h1" stroke="currentColor" stroke-width="2" stroke-linecap="round" stroke-linejoin="round"/></svg>