<svg fill="none" xmlns="http://www.w3.org/2000/svg" viewBox="0 0 24 24"><path d="M21 10.5V9a2 2 0 00-2-2h-6a2 2 0 01-1.6-.9L10.6 5A2 2 0 008.9 4H5a2 2 0 00-2 2v12c0 1.1.9 2 2 2h2" stroke="currentColor" stroke-width="2" stroke-linecap="round" stroke-linejoin="round"/><path d="M19 21h2c.6 0 1-.4 1-1v-3c0-.6-.4-1-1-1h-2m0 5v-2h-5v2m5 0v1c0 .6-.4 1-1 1h-3a1 1 0 01-1-1v-1m0 0h-2a1 1 0 01-1-1v-3c0-.6.4-1 1-1h2m0 0v-2c0-.6.4-1 1-1h3c.6 0 1 .4 1 1v2m-5 0h5" stroke="currentColor" stroke-width="2" stroke-linecap="round" stroke-linejoin="round"/></svg>