<svg fill="none" xmlns="http://www.w3.org/2000/svg" viewBox="0 0 24 24"><path d="M21 11.5V9a2 2 0 00-2-2h-6a2 2 0 01-1.6-.9L10.6 5A2 2 0 008.9 4H5a2 2 0 00-2 2v12c0 1.1.9 2 2 2h2" stroke="currentColor" stroke-width="2" stroke-linecap="round" stroke-linejoin="round"/><path d="M11 18.3c0 2.1 1.8 2.7 2.8 2.7h5c.7 0 2.2-.4 2.2-2.3 0-1.8-1.5-2.2-2.3-2.2 0-.8-.7-2.5-2.4-2.5-1.5 0-2.3 1-2.6 1.5-.9 0-2.7.6-2.7 2.8z" stroke="currentColor" stroke-width="2" stroke-linecap="round" stroke-linejoin="round"/></svg>