<svg xmlns="http://www.w3.org/2000/svg" width="24" height="24" fill="none" viewBox="0 0 24 24">
  <path fill="currentColor" fill-rule="evenodd" d="M6 4.5a2.5 2.5 0 015 0v1.55a2.498 2.498 0 012.612 1.112 2.5 2.5 0 013.349 1.896A2.5 2.5 0 0120 11.5V15a7 7 0 01-7 7h-3a7 7 0 01-7-7v-3a3 3 0 013-3V4.5zm9.019 6.693A1.008 1.008 0 0115 11V9.5a.5.5 0 00-1 0V12a1 1 0 11-2 0V8.5a.5.5 0 00-1 0V12a1 1 0 11-2 0V4.5a.5.5 0 00-1 0V14a1 1 0 11-2 0v-3a1 1 0 00-1 1v3a5 5 0 005 5h3a5 5 0 005-5v-3.5a.5.5 0 00-1 0v.5a1 1 0 11-2 0v-.5c0-.104.006-.206.019-.307z" clip-rule="evenodd"/>
</svg>
