<svg fill="none" xmlns="http://www.w3.org/2000/svg" viewBox="0 0 24 24"><path fill="#fff" d="M0 0h24v24H0z"/><path fill-rule="evenodd" clip-rule="evenodd" d="M3 6a3 3 0 013-3h12a3 3 0 013 3v7a1 1 0 11-2 0V6c0-.6-.4-1-1-1H6a1 1 0 00-1 1v11.7l7-6.2c1.1-1 3-1 4 .1l1.7 1.7a1 1 0 01-1.4 1.4L14.6 13a1 1 0 00-1.3 0l-6.8 6h7a1 1 0 110 2H6a3 3 0 01-3-3V6zm6 1a2 2 0 100 4 2 2 0 000-4z" fill="currentColor"/><path d="M20 17v3m0 3v-3m0 0h3m-3 0h-3" stroke="currentColor" stroke-width="2" stroke-linecap="round" stroke-linejoin="round"/></svg>