<svg fill="none" xmlns="http://www.w3.org/2000/svg" viewBox="0 0 24 24"><path fill="#fff" d="M0 0h24v24H0z"/><path d="M20 17l-4.7-4.7a2 2 0 00-2.7 0l-2 1.6M4 11V6c0-1.1.9-2 2-2h12a2 2 0 012 2v12a2 2 0 01-2 2h-3" stroke="currentColor" stroke-width="2" stroke-linecap="round" stroke-linejoin="round"/><circle cx="9" cy="9" r="1" stroke="currentColor" stroke-width="2" stroke-linecap="round" stroke-linejoin="round"/><path d="M2 18l4-4v2c2 0 6 1.2 6 6 0-.7-1.2-2-6-2v2l-4-4z" stroke="currentColor" stroke-width="2" stroke-linecap="round" stroke-linejoin="round"/></svg>