<svg fill="none" xmlns="http://www.w3.org/2000/svg" viewBox="0 0 24 24"><path fill="#fff" d="M0 0h24v24H0z"/><path d="M21 12l-3.5-2.6-.3-.2a2 2 0 00-2.6 0L11 13m0 1h8a2 2 0 002-2V6a2 2 0 00-2-2h-8a2 2 0 00-2 2v6c0 1.1.9 2 2 2z" stroke="currentColor" stroke-width="2" stroke-linecap="round" stroke-linejoin="round"/><path d="M9 7H8a2 2 0 00-2 2v6c0 1.1.9 2 2 2h8a2 2 0 002-2v-1" stroke="currentColor" stroke-width="2" stroke-linecap="round" stroke-linejoin="round"/><path d="M6 10H5a2 2 0 00-2 2v6c0 1.1.9 2 2 2h8a2 2 0 002-2v-1M12 7h0" stroke="currentColor" stroke-width="2" stroke-linecap="round" stroke-linejoin="round"/></svg>