<svg fill="none" xmlns="http://www.w3.org/2000/svg" viewBox="0 0 24 24"><path fill="#fff" d="M0 0h24v24H0z"/><path d="M15.3 12.3a2 2 0 00-2.7 0L5 19m15-7V6a2 2 0 00-2-2H6a2 2 0 00-2 2v12c0 1.1.9 2 2 2h3" stroke="currentColor" stroke-width="2" stroke-linecap="round" stroke-linejoin="round"/><path d="M17 18h0m-5-.2c.5-.7 2-2.8 5-2.8s4.5 2.1 5 2.8v.4c-.5.7-2 2.8-5 2.8s-4.5-2.1-5-2.8v-.4z" stroke="currentColor" stroke-width="2" stroke-linecap="round" stroke-linejoin="round"/><circle cx="9" cy="9" r="1" stroke="currentColor" stroke-width="2" stroke-linecap="round" stroke-linejoin="round"/></svg>