<svg fill="none" xmlns="http://www.w3.org/2000/svg" viewBox="0 0 24 24"><path fill="#fff" d="M0 0h24v24H0z"/><path d="M5 19l7.6-6.7a2 2 0 011.4-.6m6-.7V6a2 2 0 00-2-2H6a2 2 0 00-2 2v12c0 1.1.9 2 2 2h5" stroke="currentColor" stroke-width="2" stroke-linecap="round" stroke-linejoin="round"/><circle cx="9" cy="9" r="1" stroke="currentColor" stroke-width="2" stroke-linecap="round" stroke-linejoin="round"/><path d="M20 14h-4a2 2 0 00-2 2v6l3-2h3a2 2 0 002-2v-2a2 2 0 00-2-2z" stroke="currentColor" stroke-width="2" stroke-linecap="round" stroke-linejoin="round"/></svg>