<svg fill="none" xmlns="http://www.w3.org/2000/svg" viewBox="0 0 24 24"><path fill="#fff" d="M0 0h24v24H0z"/><path d="M5 19l3.8-3.4M9 20H6a2 2 0 01-2-2V6c0-1.1.9-2 2-2h12a2 2 0 012 2v2" stroke="currentColor" stroke-width="2" stroke-linecap="round" stroke-linejoin="round"/><circle cx="9" cy="9" r="1" stroke="currentColor" stroke-width="2" stroke-linecap="round" stroke-linejoin="round"/><path d="M19 20h2c.6 0 1-.4 1-1v-3c0-.6-.4-1-1-1h-2m0 5v-2h-4v2m4 0v1c0 .6-.4 1-1 1h-2a1 1 0 01-1-1v-1m0 0h-2a1 1 0 01-1-1v-3c0-.6.4-1 1-1h2m0 0v-2c0-.6.4-1 1-1h2c.6 0 1 .4 1 1v2m-4 0h4" stroke="currentColor" stroke-width="2" stroke-linecap="round" stroke-linejoin="round"/></svg>