<svg fill="none" xmlns="http://www.w3.org/2000/svg" viewBox="0 0 24 24"><path fill="#fff" d="M0 0h24v24H0z"/><path d="M13 2h-1a2 2 0 00-2 2v10c0 1.1.9 2 2 2h6a2 2 0 002-2V4a2 2 0 00-2-2h-1m-4 0h4m-4 0v1m4-1v1m0 0v0c0 .6-.4 1-1 1h-2a1 1 0 01-1-1v0m4 0h-4" stroke="currentColor" stroke-width="2" stroke-linecap="round" stroke-linejoin="round"/><path d="M10 5H9a2 2 0 00-2 2v10c0 1.1.9 2 2 2h6a2 2 0 002-2v-1" stroke="currentColor" stroke-width="2" stroke-linecap="round" stroke-linejoin="round"/><path d="M7 8H6a2 2 0 00-2 2v10c0 1.1.9 2 2 2h6a2 2 0 002-2v-1" stroke="currentColor" stroke-width="2" stroke-linecap="round" stroke-linejoin="round"/></svg>