<svg fill="none" xmlns="http://www.w3.org/2000/svg" viewBox="0 0 24 24"><path d="M10 3H8a2 2 0 00-2 2v14c0 1.1.9 2 2 2h2m0-18h4m-4 0v1m4-1h2a2 2 0 012 2v4m-4-6v1m0 0v0c0 .6-.4 1-1 1h-2a1 1 0 01-1-1v0m4 0h-4m7 10v-1m0 1a3 3 0 00-2.1.9M17 14a3 3 0 012.1.9M17 20v1m0-1a3 3 0 002.1-.9M17 20a3 3 0 01-2.1-.9M20 17h1m-1 0a3 3 0 01-.9 2.1M20 17a3 3 0 00-.9-2.1M14 17h-1m1 0c0-.8.3-1.6.9-2.1M14 17c0 .8.3 1.6.9 2.1m0-4.2L14 14m5.1 5.1l.9.9m-5.1-.9l-.9.9m5.1-5.1l.9-.9m-3 3h0" stroke="currentColor" stroke-width="2" stroke-linecap="round" stroke-linejoin="round"/></svg>