<svg fill="none" xmlns="http://www.w3.org/2000/svg" viewBox="0 0 24 24"><path fill="#fff" d="M0 0h24v24H0z"/><path d="M10 3H8a2 2 0 00-2 2v14c0 1.1.9 2 2 2h1m1-18h4m-4 0v1m4-1h2a2 2 0 012 2v1m-4-3v1m0 0v0c0 .6-.4 1-1 1h-2a1 1 0 01-1-1v0m4 0h-4M19 18h2c.6 0 1-.4 1-1v-3c0-.6-.4-1-1-1h-2m0 5v-2h-5v2m5 0v1c0 .6-.4 1-1 1h-3a1 1 0 01-1-1v-1m0 0h-2a1 1 0 01-1-1v-3c0-.6.4-1 1-1h2m0 0v-2c0-.6.4-1 1-1h3c.6 0 1 .4 1 1v2m-5 0h5" stroke="currentColor" stroke-width="2" stroke-linecap="round" stroke-linejoin="round"/></svg>