<svg xmlns="http://www.w3.org/2000/svg" width="24" height="24" fill="none" viewBox="0 0 24 24">
  <g clip-path="url(#clip0)">
    <path stroke="currentColor" stroke-linecap="round" stroke-linejoin="round" stroke-width="2" d="M7.05 16.95c2.344 2.343 6.213 2.273 8.643-.157 3.1-3.1 3.49-7.869 3.463-10.309a1.64 1.64 0 00-1.64-1.64c-2.44-.026-7.208.363-10.308 3.463-2.43 2.43-2.5 6.3-.158 8.643zm0 0L4.93 19.07m2.12-2.121l5.657-5.657m2.122-2.121l-2.122 2.12m0 0L14.83 12m-2.122-.707L12 9.172m0 5.656l-1.172-.39a2 2 0 01-1.265-1.265L9.172 12"/>
  </g>
  <defs>
    <clipPath id="clip0">
      <path fill="#fff" d="M0 0h24v24H0z"/>
    </clipPath>
  </defs>
</svg>
