<svg fill="none" xmlns="http://www.w3.org/2000/svg" viewBox="0 0 24 24"><path d="M11 7l2.6 2.6c.8.8 2 .8 2.8 0L19 7M9 15v0a2 2 0 01-2-2V5c0-1.1.9-2 2-2h12a2 2 0 012 2v8a2 2 0 01-2 2v0H9z" stroke="currentColor" stroke-width="2" stroke-linecap="round" stroke-linejoin="round"/><path d="M6 6a2 2 0 00-2 2v8c0 1.1.9 2 2 2h12a2 2 0 002-2" stroke="currentColor" stroke-width="2" stroke-linecap="round" stroke-linejoin="round"/><path d="M3 9a2 2 0 00-2 2v8c0 1.1.9 2 2 2h12a2 2 0 002-2" stroke="currentColor" stroke-width="2" stroke-linecap="round" stroke-linejoin="round"/></svg>