<svg fill="none" xmlns="http://www.w3.org/2000/svg" viewBox="0 0 24 24"><path fill="#fff" d="M0 0h24v24H0z"/><path d="M21 15v-4a2 2 0 00-2-2h-8a2 2 0 00-2 2v8c0 1.1.9 2 2 2h4m6-6v.2c0 .5-.2 1-.6 1.4l-3.8 3.8a2 2 0 01-1.4.6H15m6-6h-4a2 2 0 00-2 2v4" stroke="currentColor" stroke-width="2" stroke-linecap="round" stroke-linejoin="round"/><path d="M18 8v0a2 2 0 00-2-2H8a2 2 0 00-2 2v8c0 1.1.9 2 2 2v0" stroke="currentColor" stroke-width="2" stroke-linecap="round" stroke-linejoin="round"/><path d="M15 5v0a2 2 0 00-2-2H5a2 2 0 00-2 2v8c0 1.1.9 2 2 2v0" stroke="currentColor" stroke-width="2" stroke-linecap="round" stroke-linejoin="round"/></svg>