<svg fill="none" xmlns="http://www.w3.org/2000/svg" viewBox="0 0 24 24"><path d="M21 16v-5a2 2 0 00-2-2h-8a2 2 0 00-2 2v8c0 1.1.9 2 2 2h4m6-5v0a2 2 0 01-.8 1.6l-3.7 3a2 2 0 01-1.2.4H15m6-5h-4a2 2 0 00-2 2v3m-3-9h6m-6 3h1" stroke="currentColor" stroke-width="2" stroke-linecap="round" stroke-linejoin="round"/><path d="M18 9V8a2 2 0 00-2-2H8a2 2 0 00-2 2v8c0 1.1.9 2 2 2h1" stroke="currentColor" stroke-width="2" stroke-linecap="round" stroke-linejoin="round"/><path d="M15 6V5a2 2 0 00-2-2H5a2 2 0 00-2 2v8c0 1.1.9 2 2 2h1" stroke="currentColor" stroke-width="2" stroke-linecap="round" stroke-linejoin="round"/></svg>