<svg fill="none" xmlns="http://www.w3.org/2000/svg" viewBox="0 0 24 24"><path fill="#fff" d="M0 0h24v24H0z"/><path d="M11 17v-2a2 2 0 00-2-2H4a2 2 0 00-2 2v5c0 1.1.9 2 2 2h2m5-5v.2c0 .5-.2 1-.6 1.4l-2.8 2.8a2 2 0 01-1.4.6H6m5-5H8a2 2 0 00-2 2v3M22 6V4a2 2 0 00-2-2h-5a2 2 0 00-2 2v5c0 1.1.9 2 2 2h2m5-5v.2c0 .5-.2 1-.6 1.4l-2.8 2.8a2 2 0 01-1.4.6H17m5-5h-3a2 2 0 00-2 2v3M8 5H6a2 2 0 00-2 2v2m16 6v2a2 2 0 01-2 2h-2" stroke="currentColor" stroke-width="2" stroke-linecap="round" stroke-linejoin="round"/></svg>