<svg fill="none" xmlns="http://www.w3.org/2000/svg" viewBox="0 0 24 24"><path d="M21 15V5a2 2 0 00-2-2h-5m7 12v.2c0 .5-.2 1-.6 1.4l-3.8 3.8a2 2 0 01-1.4.6H15m6-6h-4a2 2 0 00-2 2v4m0 0H5a2 2 0 01-2-2v-5M7 4V3m0 1a3 3 0 00-2.1.9M7 4a3 3 0 012.1.9M7 10v1m0-1a3 3 0 002.1-.9M7 10a3 3 0 01-2.1-.9M10 7h1m-1 0a3 3 0 01-.9 2.1M10 7a3 3 0 00-.9-2.1M4 7H3m1 0c0-.8.3-1.6.9-2.1M4 7c0 .8.3 1.6.9 2.1m0-4.2L4 4m5.1 5.1l.9.9m-5.1-.9L4 10m5.1-5.1L10 4M7 7h0" stroke="currentColor" stroke-width="2" stroke-linecap="round" stroke-linejoin="round"/></svg>