<svg xmlns="http://www.w3.org/2000/svg" width="25" height="24" fill="none" viewBox="0 0 25 24">
  <path stroke="currentColor" stroke-linecap="round" stroke-linejoin="round" stroke-width="2" d="M17 7a5.001 5.001 0 00-4.607 3.053C11.963 11.07 12.896 12 14 12h6c1.105 0 2.037-.93 1.607-1.947A5.001 5.001 0 0017 7zM17 17a5.001 5.001 0 00-3.053-4.607C12.93 11.963 12 12.896 12 14v6c0 1.105.93 2.037 1.947 1.607A5.001 5.001 0 0017 17zM7 17a5.001 5.001 0 004.607-3.053C12.037 12.93 11.104 12 10 12H4c-1.105 0-2.037.93-1.607 1.947A5.001 5.001 0 007 17zM7 7a5.001 5.001 0 003.053 4.607C11.07 12.037 12 11.104 12 10V4c0-1.105-.93-2.037-1.947-1.607A5.001 5.001 0 007 7z"/>
</svg>
