<svg xmlns="http://www.w3.org/2000/svg" width="24" height="24" fill="none" viewBox="0 0 24 24">
  <g clip-path="url(#clip0)">
    <path stroke="currentColor" stroke-linecap="round" stroke-linejoin="round" stroke-width="2" d="M14.671 19.157l-2.828-2.829m2.829 2.829l1.399 2.814c.712-.693 3.123-3.919 1.414-5.628m-2.813 2.814l2.813-2.814m-5.642-.015l2.829-2.828.014-.015m-2.843 2.843L9 14.9c.722-.703 4-3.1 5.686-1.415m2.814 2.843l-.015.015m0 0l2.502-2.501a8 8 0 002.145-3.89l.318-1.402-1.402.318a8 8 0 00-3.89 2.145l-2.472 2.472M3.414 13.313c-1.339 2.117-1.851 3.806-1.192 4.465.585.586 1.986.246 3.778-.778m7.313-13.586c2.117-1.339 3.806-1.85 4.465-1.192.886.885-.345 3.634-2.854 6.778m-10.67 5A7.002 7.002 0 0114 4.254"/>
  </g>
  <defs>
    <clipPath id="clip0">
      <path fill="#fff" d="M0 0h24v24H0z"/>
    </clipPath>
  </defs>
</svg>
