<svg fill="none" xmlns="http://www.w3.org/2000/svg" viewBox="0 0 24 24"><path d="M15 20c-3.2 0-4-2.7-4-4H3v2c0 1.1.9 2 2 2h10zm0 0a3 3 0 003-3v-7m0-6h1a2 2 0 012 2v2a2 2 0 01-2 2h-1m0-6v6m0-6h-5.5M5 16v-3M6 3V2m0 1a3 3 0 00-2.1.9M6 3a3 3 0 012.1.9M6 9v1m0-1a3 3 0 002.1-.9M6 9a3 3 0 01-2.1-.9M9 6h1M9 6a3 3 0 01-.9 2.1M9 6a3 3 0 00-.9-2.1M3 6H2m1 0c0-.8.3-1.6.9-2.1M3 6c0 .8.3 1.6.9 2.1m0-4.2L3 3m5.1 5.1L9 9m-5.1-.9L3 9m5.1-5.1L9 3M6 6h0" stroke="currentColor" stroke-width="2" stroke-linecap="round" stroke-linejoin="round"/></svg>