<svg fill="none" xmlns="http://www.w3.org/2000/svg" viewBox="0 0 24 24"><path fill="#fff" d="M0 0h24v24H0z"/><path d="M8 8h8m-3 4H8m0 4h2m10-6V6a2 2 0 00-2-2H6a2 2 0 00-2 2v12c0 1.1.9 2 2 2h4" stroke="currentColor" stroke-width="2" stroke-linecap="round" stroke-linejoin="round"/><path d="M16 17h-1a1 1 0 00-1 1v3c0 .6.4 1 1 1h6c.6 0 1-.4 1-1v-3c0-.6-.4-1-1-1h-1m-4 0v-2c0-1.1.9-2 2-2v0a2 2 0 012 2v2m-4 0h4" stroke="currentColor" stroke-width="2" stroke-linecap="round" stroke-linejoin="round"/></svg>