<svg fill="none" xmlns="http://www.w3.org/2000/svg" viewBox="0 0 24 24"><path fill="#fff" d="M0 0h24v24H0z"/><path d="M12 7h6m-3 4h-3m-2 4h10a2 2 0 002-2V5a2 2 0 00-2-2H10a2 2 0 00-2 2v8c0 1.1.9 2 2 2z" stroke="currentColor" stroke-width="2" stroke-linecap="round" stroke-linejoin="round"/><path d="M8 6H7a2 2 0 00-2 2v8c0 1.1.9 2 2 2h10a2 2 0 002-2v-1" stroke="currentColor" stroke-width="2" stroke-linecap="round" stroke-linejoin="round"/><path d="M5 9H4a2 2 0 00-2 2v8c0 1.1.9 2 2 2h10a2 2 0 002-2v-1" stroke="currentColor" stroke-width="2" stroke-linecap="round" stroke-linejoin="round"/></svg>