<svg fill="none" xmlns="http://www.w3.org/2000/svg" viewBox="0 0 24 24"><path fill="#fff" d="M0 0h24v24H0z"/><path d="M8 8h8m-6 4H8m0 4h2m10-6V6a2 2 0 00-2-2H6a2 2 0 00-2 2v12c0 1.1.9 2 2 2h4" stroke="currentColor" stroke-width="2" stroke-linecap="round" stroke-linejoin="round"/><path d="M16 22h-2a1 1 0 01-1-1v-7c0-.6.4-1 1-1h4.2c.5 0 1 .2 1.4.6l1.8 1.8c.4.4.6.9.6 1.4V21c0 .6-.4 1-1 1h-2m-3 0v-3h3v3m-3 0h3m-3-6h0" stroke="currentColor" stroke-width="2" stroke-linecap="round" stroke-linejoin="round"/></svg>