<svg fill="none" xmlns="http://www.w3.org/2000/svg" viewBox="0 0 24 24"><path d="M8 8h8m-5 4H8m0 4h2m10-6V6a2 2 0 00-2-2H6a2 2 0 00-2 2v12c0 1.1.9 2 2 2h4" stroke="currentColor" stroke-width="2" stroke-linecap="round" stroke-linejoin="round"/><path d="M17 14v-1m0 1a3 3 0 00-2.1.9M17 14a3 3 0 012.1.9M17 20v1m0-1a3 3 0 002.1-.9M17 20a3 3 0 01-2.1-.9M20 17h1m-1 0a3 3 0 01-.9 2.1M20 17a3 3 0 00-.9-2.1M14 17h-1m1 0c0-.8.3-1.6.9-2.1M14 17c0 .8.3 1.6.9 2.1m0-4.2L14 14m5.1 5.1l.9.9m-5.1-.9l-.9.9m5.1-5.1l.9-.9m-3 3h0" stroke="currentColor" stroke-width="2" stroke-linecap="round" stroke-linejoin="round"/></svg>