<svg fill="none" xmlns="http://www.w3.org/2000/svg" viewBox="0 0 24 24"><path fill="#fff" d="M0 0h24v24H0z"/><circle cx="12" cy="8" r="5" stroke="currentColor" stroke-width="2" stroke-linecap="round" stroke-linejoin="round"/><path d="M14 13.3A8 8 0 004 21h5" stroke="currentColor" stroke-width="2" stroke-linecap="round" stroke-linejoin="round"/><path d="M22 17v-2a2 2 0 00-2-2h-5a2 2 0 00-2 2v5c0 1.1.9 2 2 2h2m5-5v3a2 2 0 01-2 2h-3m5-5c-2 0-5 1-5 5m-1-6h0" stroke="currentColor" stroke-width="2" stroke-linecap="round" stroke-linejoin="round"/></svg>