<svg fill="none" xmlns="http://www.w3.org/2000/svg" viewBox="0 0 24 24"><path fill="#fff" d="M0 0h24v24H0z"/><circle cx="10" cy="7" r="5" stroke="currentColor" stroke-width="2" stroke-linecap="round" stroke-linejoin="round"/><path d="M10 12a8 8 0 00-8 8h7M19 21h2c.6 0 1-.4 1-1v-3c0-.6-.4-1-1-1h-2m0 5v-2h-4v2m4 0v1c0 .6-.4 1-1 1h-2a1 1 0 01-1-1v-1m0 0h-2a1 1 0 01-1-1v-3c0-.6.4-1 1-1h2m0 0v-2c0-.6.4-1 1-1h2c.6 0 1 .4 1 1v2m-4 0h4" stroke="currentColor" stroke-width="2" stroke-linecap="round" stroke-linejoin="round"/></svg>