<svg fill="none" xmlns="http://www.w3.org/2000/svg" viewBox="0 0 24 24"><path fill="#fff" d="M0 0h24v24H0z"/><circle cx="12" cy="8" r="5" stroke="currentColor" stroke-width="2" stroke-linecap="round" stroke-linejoin="round"/><path d="M14 13.3A8 8 0 004 21h8M19 16v-1m0 1a3 3 0 00-2.1.9M19 16a3 3 0 012.1.9M19 22v1m0-1a3 3 0 002.1-.9M19 22a3 3 0 01-2.1-.9M22 19h1m-1 0a3 3 0 01-.9 2.1M22 19a3 3 0 00-.9-2.1M16 19h-1m1 0c0-.8.3-1.6.9-2.1M16 19c0 .8.3 1.6.9 2.1m0-4.2L16 16m5.1 5.1l.9.9m-5.1-.9l-.9.9m5.1-5.1l.9-.9m-3 3h0" stroke="currentColor" stroke-width="2" stroke-linecap="round" stroke-linejoin="round"/></svg>