<svg fill="none" xmlns="http://www.w3.org/2000/svg" viewBox="0 0 24 24"><path fill="#fff" d="M0 0h24v24H0z"/><path d="M17 12V8a2 2 0 00-2-2H5a2 2 0 00-2 2v4m14 0v4a2 2 0 01-2 2h-2m4-6l4-4v8l-4-4z" stroke="currentColor" stroke-width="2" stroke-linecap="round" stroke-linejoin="round"/><path d="M11 15l1.3-1.3c.4-.4.4-1 0-1.4l-1.6-1.6a1 1 0 00-1.4 0L8 12m3 3l-4.7 4.7a1 1 0 01-.7.3H4a1 1 0 01-1-1v-1.6c0-.3.1-.5.3-.7L8 12m3 3l-3-3" stroke="currentColor" stroke-width="2" stroke-linecap="round" stroke-linejoin="round"/></svg>