<svg fill="none" xmlns="http://www.w3.org/2000/svg" viewBox="0 0 24 24"><path fill="#fff" d="M0 0h24v24H0z"/><path d="M17 12V8a2 2 0 00-2-2H5a2 2 0 00-2 2v3m14 1v4a2 2 0 01-2 2h-.5m2.5-6l4-4v8l-4-4zM7 15v-1m0 1a3 3 0 00-2.1.9M7 15a3 3 0 012.1.9M7 21v1m0-1a3 3 0 002.1-.9M7 21a3 3 0 01-2.1-.9M10 18h1m-1 0a3 3 0 01-.9 2.1M10 18a3 3 0 00-.9-2.1M4 18H3m1 0c0-.8.3-1.6.9-2.1M4 18c0 .8.3 1.6.9 2.1m0-4.2L4 15m5.1 5.1l.9.9m-5.1-.9L4 21m5.1-5.1l.9-.9m-3 3h0" stroke="currentColor" stroke-width="2" stroke-linecap="round" stroke-linejoin="round"/></svg>