<svg width="24" height="24" fill="none" xmlns="http://www.w3.org/2000/svg"><path fill-rule="evenodd" clip-rule="evenodd" d="M20 7a1 1 0 100-2h-9.17a3.001 3.001 0 00-5.66 0H4a1 1 0 100 2h1.17a3.001 3.001 0 005.66 0H20zM7 6a1 1 0 102 0 1 1 0 00-2 0zm13 7a1 1 0 100-2h-1.17a3.001 3.001 0 00-5.66 0H4a1 1 0 100 2h9.17a3.001 3.001 0 005.66 0H20zm-5-1a1 1 0 102 0 1 1 0 00-2 0zm5 7a1 1 0 100-2h-9.17a3.001 3.001 0 00-5.66 0H4a1 1 0 100 2h1.17a3.001 3.001 0 005.66 0H20zM7 18a1 1 0 102 0 1 1 0 00-2 0z" fill="currentColor"/></svg>