<svg fill="currentColor" viewBox="0 0 24 24"><path d="M6 3a3 3 0 00-3 3v2a3 3 0 003 3h2a3 3 0 003-3V6a3 3 0 00-3-3H6zM5 6a1 1 0 011-1h2a1 1 0 011 1v2a1 1 0 01-1 1H6a1 1 0 01-1-1V6zm1 7a3 3 0 00-3 3v2a3 3 0 003 3h2a3 3 0 003-3v-2a3 3 0 00-3-3H6zm-1 3a1 1 0 011-1h2a1 1 0 011 1v2a1 1 0 01-1 1H6a1 1 0 01-1-1v-2zm8-10a3 3 0 013-3h2a3 3 0 013 3v2a3 3 0 01-3 3h-2a3 3 0 01-3-3V6zm3-1a1 1 0 00-1 1v2a1 1 0 001 1h2a1 1 0 001-1V6a1 1 0 00-1-1h-2zm2 9a1 1 0 10-2 0v2h-2a1 1 0 100 2h2v2a1 1 0 102 0v-2h2a1 1 0 100-2h-2v-2z"/></svg>