<svg fill="none" xmlns="http://www.w3.org/2000/svg" viewBox="0 0 24 24"><path fill-rule="evenodd" clip-rule="evenodd" d="M9 4a1 1 0 01-1 1H6.414l3.293 3.293a1 1 0 01-1.414 1.414L5 6.414V8a1 1 0 11-2 0V4a1 1 0 011-1h4a1 1 0 011 1zm8.586 15l-3.293-3.293a1 1 0 011.414-1.414L19 17.586V16a1 1 0 112 0v4a1 1 0 01-1 1h-4a1 1 0 110-2h1.586zM9 20a1 1 0 00-1-1H6.414l3.293-3.293a1 1 0 00-1.414-1.414L5 17.586V16a1 1 0 10-2 0v4a1 1 0 001 1h4a1 1 0 001-1zm8.586-15l-3.293 3.293a1 1 0 001.414 1.414L19 6.414V8a1 1 0 102 0V4a1 1 0 00-1-1h-4a1 1 0 100 2h1.586z" fill="currentColor"/></svg>