<svg width="24" height="24" fill="none" xmlns="http://www.w3.org/2000/svg"><path fill-rule="evenodd" clip-rule="evenodd" d="M12 3C8.474 3 6.174 4.492 4.788 6.416 3.44 8.289 3 10.506 3 12c0 1.493.44 3.711 1.788 5.584C6.174 19.51 8.474 21 12 21c2.385 0 4.229-.682 5.612-1.753a1 1 0 10-1.224-1.581C15.385 18.442 13.981 19 12 19c-2.874 0-4.574-1.175-5.588-2.584C5.36 14.956 5 13.173 5 12c0-1.173.36-2.956 1.412-4.416C7.426 6.175 9.126 5 12 5s4.574 1.175 5.588 2.584C18.64 9.044 19 10.827 19 12c0 .369-.098.897-.382 1.302-.243.347-.681.698-1.618.698-.275 0-.494-.131-.698-.558-.216-.45-.302-1.04-.302-1.442a4 4 0 10-1.186 2.843C15.26 15.47 15.964 16 17 16c1.563 0 2.625-.649 3.257-1.552.591-.845.743-1.817.743-2.448 0-1.493-.44-3.711-1.788-5.584C17.826 4.492 15.526 3 12 3zm2 9a2 2 0 10-4 0 2 2 0 004 0z" fill="currentColor"/></svg>