<svg fill="currentColor" viewBox="0 0 24 24"><path d="M19.328 7.172a4 4 0 00-5.656 0l-.965.964a1 1 0 11-1.414-1.414l.964-.965a6 6 0 018.486 0l.964.965a1 1 0 01.293.707v11.574a1 1 0 01-1.707.707l-.965-.964a4 4 0 00-5.656 0l-.965.964a1 1 0 01-1.414-1.414l.964-.965A6.002 6.002 0 0120 16.7V7.843l-.672-.671z"/><path d="M4.672 7.172a4 4 0 015.656 0l.965.964a1 1 0 101.414-1.414l-.964-.965a6 6 0 00-8.486 0l-.964.965A1 1 0 002 7.429v11.574a1 1 0 001.707.707l.965-.964a4 4 0 015.656 0l.965.964a1 1 0 001.414-1.414l-.964-.965A6.002 6.002 0 004 16.7V7.843l.672-.671z"/><path d="M12 6.429a1 1 0 011 1v10.5a1 1 0 01-2 0v-10.5a1 1 0 011-1z"/></svg>