<svg fill="none" xmlns="http://www.w3.org/2000/svg" viewBox="0 0 24 24"><path fill-rule="evenodd" clip-rule="evenodd" d="M11 3a1 1 0 011-1h.01a1 1 0 110 2H12a1 1 0 01-1-1zM7 5a1 1 0 011 1v2h3V6a1 1 0 112 0v2h3V6a1 1 0 112 0v2.1c2.282.463 4 2.481 4 4.9v6a3 3 0 01-3 3H5a3 3 0 01-3-3v-6a5.002 5.002 0 014-4.9V6a1 1 0 011-1zM4 16.529V19a1 1 0 001 1h14a1 1 0 001-1v-2.471c-.544.294-1.208.471-2 .471-1.367 0-2.353-.529-3-1.273-.647.744-1.633 1.273-3 1.273s-2.353-.529-3-1.273C8.353 16.47 7.367 17 6 17c-.792 0-1.456-.177-2-.471zM20 13c0 .34-.11.872-.412 1.29-.264.368-.714.71-1.588.71-.874 0-1.324-.342-1.588-.71A2.355 2.355 0 0116 13a1 1 0 10-2 0c0 .34-.11.872-.412 1.29-.264.368-.714.71-1.588.71-.874 0-1.324-.342-1.588-.71A2.355 2.355 0 0110 13a1 1 0 10-2 0c0 .34-.11.872-.412 1.29-.264.368-.714.71-1.588.71-.874 0-1.324-.342-1.588-.71A2.355 2.355 0 014 13a3 3 0 013-3h10a3 3 0 013 3zM7 2a1 1 0 000 2h.01a1 1 0 000-2H7zm9 1a1 1 0 011-1h.01a1 1 0 110 2H17a1 1 0 01-1-1z" fill="currentColor"/></svg>