<svg fill="currentColor" viewBox="0 0 24 24"><path d="M2 11a3 3 0 013-3h14a3 3 0 013 3v2c0 .66-.19 1.628-.788 2.46C20.576 16.341 19.526 17 18 17c-1.367 0-2.353-.529-3-1.273-.647.744-1.633 1.273-3 1.273s-2.353-.529-3-1.273C8.353 16.47 7.367 17 6 17c-1.526 0-2.576-.658-3.212-1.54A4.35 4.35 0 012 13v-2zm8 2c0 .34.11.872.412 1.29.264.368.714.71 1.588.71.874 0 1.324-.342 1.588-.71.302-.418.412-.95.412-1.29a1 1 0 112 0c0 .34.11.872.412 1.29.264.368.714.71 1.588.71.874 0 1.324-.342 1.588-.71.302-.418.412-.95.412-1.29v-2a1 1 0 00-1-1H5a1 1 0 00-1 1v2c0 .34.11.872.412 1.29.264.368.714.71 1.588.71.874 0 1.324-.342 1.588-.71C7.89 13.873 8 13.34 8 13a1 1 0 112 0z"/><path d="M3 11a1 1 0 011 1v7a1 1 0 001 1h14a1 1 0 001-1v-7a1 1 0 112 0v7a3 3 0 01-3 3H5a3 3 0 01-3-3v-7a1 1 0 011-1zM7 5a1 1 0 011 1v3a1 1 0 01-2 0V6a1 1 0 011-1zm5 0a1 1 0 011 1v3a1 1 0 11-2 0V6a1 1 0 011-1zm5 0a1 1 0 011 1v3a1 1 0 11-2 0V6a1 1 0 011-1zM7 2a1 1 0 011 1v.001a1 1 0 01-2 0V3a1 1 0 011-1zM12 2a1 1 0 011 1v.001a1 1 0 11-2 0V3a1 1 0 011-1zM17 2a1 1 0 011 1v.001a1 1 0 11-2 0V3a1 1 0 011-1z"/></svg>