<svg width="24" height="24" fill="none" xmlns="http://www.w3.org/2000/svg"><path fill-rule="evenodd" clip-rule="evenodd" d="M16 3a1 1 0 11-2 0 1 1 0 012 0zM9 5a1 1 0 011 1v1h1V6a1 1 0 112 0v1h1V6a1 1 0 112 0v1a3 3 0 013 3v1a3 3 0 013 3v5a3 3 0 01-3 3H5a3 3 0 01-3-3v-5a3 3 0 013-3v-1a3 3 0 013-3V6a1 1 0 011-1zm8 6v-1a1 1 0 00-1-1H8a1 1 0 00-1 1v1h10zM4.082 13.602c.013.03.024.06.034.092.112.347.3.668.574.898.26.218.66.408 1.31.408.874 0 1.324-.342 1.588-.71C7.89 13.873 8 13.34 8 13H5a1 1 0 00-.918.602zM10 13c0 .34.11.872.412 1.29.264.368.714.71 1.588.71.874 0 1.324-.342 1.588-.71.302-.418.412-.95.412-1.29h-4zm6 0c0 .34.11.872.412 1.29.264.368.714.71 1.588.71.65 0 1.05-.19 1.31-.408.275-.23.462-.55.574-.898.01-.031.021-.062.034-.092A1 1 0 0019 13h-3zm4 3.529c-.554.299-1.22.471-2 .471-1.367 0-2.353-.529-3-1.273-.647.744-1.633 1.273-3 1.273s-2.353-.529-3-1.273C8.353 16.47 7.367 17 6 17c-.78 0-1.446-.172-2-.471V19a1 1 0 001 1h14a1 1 0 001-1v-2.471zM12 4a1 1 0 100-2 1 1 0 000 2zm-2-1a1 1 0 11-2 0 1 1 0 012 0z" fill="currentColor"/></svg>