<svg width="24" height="24" viewBox="0 0 24 24" fill="none" xmlns="http://www.w3.org/2000/svg">
<path fill-rule="evenodd" clip-rule="evenodd" d="M9.23832 5.4453C9.42378 5.1671 9.73601 5 10.0704 5H13.9296C14.264 5 14.5762 5.1671 14.7617 5.4453L15.5742 6.6641C16.1306 7.4987 17.0673 8 18.0704 8H19C19.5523 8 20 8.44772 20 9V18C20 18.5523 19.5523 19 19 19H5C4.44772 19 4 18.5523 4 18V9C4 8.44772 4.44772 8 5 8H5.92963C6.93269 8 7.86939 7.4987 8.42578 6.6641L9.23832 5.4453ZM10.0704 3C9.06731 3 8.13061 3.5013 7.57422 4.3359L6.76168 5.5547C6.57622 5.8329 6.26399 6 5.92963 6H5C3.34315 6 2 7.34315 2 9V18C2 19.6569 3.34315 21 5 21H19C20.6569 21 22 19.6569 22 18V9C22 7.34315 20.6569 6 19 6H18.0704C17.736 6 17.4238 5.8329 17.2383 5.5547L16.4258 4.3359C15.8694 3.5013 14.9327 3 13.9296 3H10.0704ZM10 13C10 11.8954 10.8954 11 12 11C13.1046 11 14 11.8954 14 13C14 14.1046 13.1046 15 12 15C10.8954 15 10 14.1046 10 13ZM12 9C9.79086 9 8 10.7909 8 13C8 15.2091 9.79086 17 12 17C14.2091 17 16 15.2091 16 13C16 10.7909 14.2091 9 12 9Z" fill="currentColor"/>
</svg>
