<svg width="24" height="24" viewBox="0 0 24 24" fill="none" xmlns="http://www.w3.org/2000/svg">
<path fill-rule="evenodd" clip-rule="evenodd" d="M4 12C4 8.26828 6.55399 5.0934 10 4.19824V11C10 12.6569 11.3431 14 13 14H19.8018C18.9066 17.446 15.7317 20 12 20C7.58172 20 4 16.4183 4 12ZM12 4.11663C12 2.96749 10.9625 1.90788 9.6662 2.22017C5.26441 3.28061 2 7.28491 2 12C2 17.5228 6.47715 22 12 22C16.7151 22 20.7194 18.7356 21.7798 14.3338C22.0921 13.0375 21.0325 12 19.8834 12H13C12.4477 12 12 11.5523 12 11V4.11663ZM15 3C14.4477 3 14 3.44771 14 4V9C14 9.55228 14.4477 10 15 10H20C20.2996 10 20.5834 9.86567 20.7733 9.63399C20.9633 9.4023 21.0393 9.09766 20.9806 8.80388C20.7902 7.85223 20.2873 6.45038 19.365 5.26193C18.4288 4.05545 16.9971 3 15 3ZM16 8V5.15458C16.7221 5.3891 17.3079 5.87329 17.785 6.48806C18.1543 6.96395 18.4394 7.49733 18.647 8H16Z" fill="currentColor"/>
</svg>
