<svg width="24" height="24" viewBox="0 0 24 24" fill="none" xmlns="http://www.w3.org/2000/svg">
<path d="M10 16C13.866 16 17 13.3137 17 10C17 6.68629 13.866 4 10 4C6.13401 4 3 6.68629 3 10C3 11.0929 3.34088 12.1175 3.93648 13L3 16L6.88889 15.3763C7.82608 15.7755 8.88246 16 10 16Z" stroke="currentColor" stroke-width="2" stroke-linecap="round" stroke-linejoin="round"/>
<path d="M17 8.57739C19.3649 9.54036 21 11.6065 21 14C21 15.0929 20.6591 16.1175 20.0635 17L21 20L17.1111 19.3763C16.1739 19.7755 15.1175 20 14 20C10.9522 20 8.35927 18.3304 7.39832 16" stroke="currentColor" stroke-width="2" stroke-linecap="round" stroke-linejoin="round"/>
</svg>
