<svg fill="currentColor" viewBox="0 0 24 24"><path d="M10 5c-3.464 0-6 2.378-6 5 0 .88.273 1.711.765 2.44a1 1 0 01.126.858l-.455 1.459 2.295-.368a1 1 0 01.55.067A6.938 6.938 0 0010 15c3.464 0 6-2.378 6-5s-2.536-5-6-5zm-8 5c0-4.005 3.732-7 8-7s8 2.995 8 7-3.732 7-8 7a8.973 8.973 0 01-3.228-.592l-3.614.58a1 1 0 01-1.113-1.286l.8-2.563A6.285 6.285 0 012 10z"/><path d="M16.074 8.2a1 1 0 00.549 1.304C18.693 10.347 20 12.095 20 14c0 .88-.273 1.711-.765 2.44a1 1 0 00-.126.858l.455 1.459-2.295-.368a1 1 0 00-.55.067A6.939 6.939 0 0114 19c-2.704 0-4.893-1.479-5.677-3.381a1 1 0 00-1.85.762C7.612 19.14 10.61 21 14 21c1.145 0 2.237-.21 3.228-.592l3.614.58a1 1 0 001.113-1.286l-.8-2.563A6.285 6.285 0 0022 14c0-2.882-1.963-5.266-4.623-6.349a1 1 0 00-1.303.55z"/></svg>