<svg fill="none" xmlns="http://www.w3.org/2000/svg" viewBox="0 0 24 24"><path d="M10 16c3.866 0 7-2.686 7-6s-3.134-6-7-6-7 2.686-7 6c0 1.093.34 2.117.936 3L3 16l3.889-.624A7.92 7.92 0 0010 16z" stroke="currentColor" stroke-width="2" stroke-linecap="round" stroke-linejoin="round"/><path d="M17 8.577c2.365.963 4 3.03 4 5.423 0 1.093-.34 2.117-.936 3L21 20l-3.889-.624c-.937.4-1.994.624-3.111.624-3.048 0-5.64-1.67-6.602-4" stroke="currentColor" stroke-width="2" stroke-linecap="round" stroke-linejoin="round"/></svg>