<svg fill="currentColor" viewBox="0 0 24 24"><path d="M12.5 6c-2.294 0-3.71 1.655-4.106 2.447A1 1 0 017.5 9c-.757 0-1.914.235-2.853.912C3.758 10.552 3 11.626 3 13.5c0 1.458.459 2.415 1.05 3.06.607.663 1.418 1.062 2.204 1.269a1 1 0 01-.508 1.934c-1.049-.276-2.238-.833-3.171-1.852C1.624 16.873 1 15.423 1 13.5c0-2.526 1.075-4.201 2.478-5.212 1.124-.809 2.413-1.163 3.435-1.26C7.751 5.773 9.626 4 12.5 4c2.13 0 3.65 1.08 4.607 2.33a7.133 7.133 0 011.285 2.745c.785.127 1.695.43 2.505 1.014C22.092 10.948 23 12.373 23 14.5c0 1.516-.462 2.697-1.196 3.571-.72.86-1.65 1.362-2.498 1.634a1 1 0 11-.612-1.904c.586-.188 1.157-.513 1.578-1.015.408-.486.728-1.202.728-2.286 0-1.474-.592-2.299-1.272-2.789-.73-.526-1.638-.711-2.228-.711a1 1 0 01-1-1c0-.502-.284-1.543-.982-2.455C14.85 6.67 13.87 6 12.5 6zm-.5 4a1 1 0 011 1v5.586l1.293-1.293a1 1 0 011.414 1.414l-3 3a1 1 0 01-1.414 0l-3-3a1 1 0 111.414-1.414L11 16.586V11a1 1 0 011-1z"/></svg>