<svg fill="currentColor" viewBox="0 0 24 24"><path d="M11 2a2 2 0 00-2 2v.757l-.707.707L9 4.757l-.536-.535a2 2 0 00-2.828 0L4.222 5.636a2 2 0 000 2.828L4.757 9H4a2 2 0 00-2 2v2a2 2 0 002 2h.757l-.535.536a2 2 0 000 2.828l1.414 1.414a2 2 0 002.828 0L9 19.243V20a2 2 0 002 2h2a2 2 0 002-2v-.757l.536.535a2 2 0 002.828 0l1.414-1.414a2 2 0 000-2.829L19.243 15H20a2 2 0 002-2v-2a2 2 0 00-2-2h-.757l.535-.536a2 2 0 000-2.828l-1.414-1.414a2 2 0 00-2.828 0L15 4.757V4a2 2 0 00-2-2h-2zm0 2h2v.757c0 1.782 2.154 2.675 3.414 1.415l.536-.536 1.414 1.414-.536.536C16.568 8.846 17.461 11 19.243 11H20v2h-.757c-1.782 0-2.674 2.154-1.415 3.414l.536.536-1.414 1.414-.536-.536c-1.26-1.26-3.414-.367-3.414 1.415V20h-2v-.757c0-1.782-2.154-2.674-3.414-1.415l-.536.536-1.414-1.414.536-.536C7.432 15.154 6.539 13 4.757 13H4v-2h.757c1.782 0 2.675-2.154 1.415-3.414l-.536-.536L7.05 5.636l.536.536C8.846 7.432 11 6.539 11 4.757V4zm-1 8a2 2 0 114 0 2 2 0 01-4 0zm2-4a4 4 0 100 8 4 4 0 000-8z"/></svg>