<svg fill="none" xmlns="http://www.w3.org/2000/svg" viewBox="0 0 24 24"><path fill-rule="evenodd" clip-rule="evenodd" d="M4 5a1 1 0 011-1h4a1 1 0 011 1v14c0 .173-.06.456-.212.666-.114.159-.314.334-.788.334H5a1 1 0 01-1-1V5zm15 17H5a3 3 0 01-3-3V5a3 3 0 013-3h4a3 3 0 013 3v.592a3 3 0 014.121.115l2.172 2.172A3 3 0 0118.408 12H19a3 3 0 013 3v4a3 3 0 01-3 3zm-7-6.414V8.414l1.293-1.293a1 1 0 011.414 0l2.172 2.172a1 1 0 010 1.414l-1.586 1.586L12 15.586zM12 19v-.586L16.414 14H19a1 1 0 011 1v4a1 1 0 01-1 1h-7.166c.12-.367.166-.72.166-1zm-5-3a1 1 0 100 2h.01a1 1 0 100-2H7z" fill="currentColor"/></svg>