<svg fill="currentColor" viewBox="0 0 24 24"><path d="M2 5a3 3 0 013-3h4a3 3 0 013 3v16a1 1 0 01-1 1H5a3 3 0 01-3-3V5zm3-1a1 1 0 00-1 1v14a1 1 0 001 1h5V5a1 1 0 00-1-1H5z"/><path d="M14.707 7.121a1 1 0 00-1.414 0l-1.586 1.586a1 1 0 11-1.414-1.414l1.586-1.586a3 3 0 014.242 0l2.172 2.172a3 3 0 01.115 4.12H19a3 3 0 013 3v4a3 3 0 01-3 3h-8a1 1 0 110-2h8a1 1 0 001-1v-4a1 1 0 00-1-1h-2.586l-4.707 4.708a1 1 0 11-1.414-1.414l6.586-6.586a1 1 0 000-1.414L14.707 7.12zM7 15a1 1 0 011 1v.001a1 1 0 11-2 0V16a1 1 0 011-1z"/></svg>