<svg width="24" height="24" fill="none" xmlns="http://www.w3.org/2000/svg"><path fill-rule="evenodd" clip-rule="evenodd" d="M5 4a3 3 0 00-3 3v10a3 3 0 003 3h14a3 3 0 003-3V7a3 3 0 00-3-3H5zM4 7a1 1 0 011-1h14a1 1 0 011 1v10a1 1 0 01-1 1H5a1 1 0 01-1-1V7zm4 4a1 1 0 112 0 1 1 0 01-2 0zm4 0c0 .662-.215 1.275-.578 1.77.62.465 1.073 1.088 1.444 1.73a1 1 0 11-1.732 1c-.313-.541-.61-.908-.93-1.142C9.909 14.141 9.54 14 9 14c-.54 0-.908.14-1.205.358-.32.234-.616.6-.93 1.143a1 1 0 01-1.73-1.002c.37-.641.824-1.264 1.443-1.728A3 3 0 1112 11zm3-3a1 1 0 100 2h3a1 1 0 100-2h-3zm0 3a1 1 0 100 2h3a1 1 0 100-2h-3zm0 3a1 1 0 100 2h1a1 1 0 100-2h-1z" fill="currentColor"/></svg>