<svg fill="currentColor" viewBox="0 0 24 24"><path d="M4.432 6.132C4.099 6.482 4 6.773 4 7c0 .227.1.518.432.868.337.354.872.719 1.61 1.047C7.516 9.569 9.622 10 12 10c2.379 0 4.484-.43 5.958-1.085.738-.328 1.273-.693 1.61-1.047.333-.35.432-.641.432-.868 0-.227-.1-.518-.432-.868-.337-.354-.872-.719-1.61-1.047C16.484 4.431 14.378 4 12 4c-2.379 0-4.484.43-5.958 1.085-.738.328-1.273.693-1.61 1.047zM20 10.08c-.375.246-.79.466-1.23.662C16.986 11.535 14.592 12 12 12c-2.592 0-4.986-.465-6.77-1.258A8.689 8.689 0 014 10.08V12c0 .227.1.518.432.868.337.354.872.719 1.61 1.047C7.516 14.57 9.622 15 12 15c2.379 0 4.484-.43 5.958-1.085.738-.328 1.273-.693 1.61-1.047.333-.35.432-.641.432-.868v-1.92zm0 5c-.375.246-.79.466-1.23.662C16.986 16.535 14.592 17 12 17c-2.592 0-4.986-.465-6.77-1.258A8.689 8.689 0 014 15.08V17c0 .227.1.518.432.868.337.354.872.719 1.61 1.047C7.516 19.57 9.622 20 12 20c2.379 0 4.484-.43 5.958-1.085.738-.328 1.273-.693 1.61-1.047.333-.35.432-.641.432-.868v-1.92zM22 17c0 .878-.404 1.639-.983 2.246-.573.603-1.356 1.1-2.247 1.496C16.986 21.535 14.592 22 12 22c-2.592 0-4.986-.465-6.77-1.258-.89-.396-1.674-.893-2.247-1.496C2.404 18.64 2 17.878 2 17V7c0-.878.404-1.638.983-2.246.573-.603 1.356-1.1 2.247-1.496C7.014 2.465 9.408 2 12 2c2.592 0 4.986.465 6.77 1.258.89.396 1.674.893 2.247 1.496C21.596 5.362 22 6.122 22 7v10z"/></svg>