<svg fill="currentColor" viewBox="0 0 24 24"><path d="M12 6c-2.063 0-3.705.525-4.995 1.28a1 1 0 11-1.01-1.727C7.59 4.62 9.58 4 12 4c6.984 0 10.215 5.111 10.962 7.725a1 1 0 01-.043.669c-.674 1.574-2.303 4.05-4.867 5.75a1 1 0 01-1.104-1.668c2.002-1.326 3.348-3.24 3.982-4.54C20.168 9.792 17.512 6 12 6zM4.66 7.736a1 1 0 01.092 1.41c-.862.984-1.403 2.012-1.681 2.79.503 1.034 1.465 2.47 2.86 3.685C7.472 16.96 9.498 18 12 18c.631 0 1.23-.066 1.795-.184a1 1 0 01.41 1.957A10.72 10.72 0 0112 20c-3.097 0-5.572-1.295-7.382-2.87-1.798-1.566-2.983-3.443-3.537-4.736a1 1 0 01-.043-.669c.31-1.086 1.023-2.542 2.21-3.897a1 1 0 011.411-.092z"/><path d="M12 10a1.99 1.99 0 00-1.405.576 1 1 0 01-1.404-1.424 4 4 0 015.644 5.67 1 1 0 11-1.418-1.411A2 2 0 0012 10z"/><path d="M2.293 2.293a1 1 0 011.414 0l18 18a1 1 0 01-1.414 1.414l-18-18a1 1 0 010-1.414z"/></svg>