<svg fill="none" xmlns="http://www.w3.org/2000/svg" viewBox="0 0 24 24"><path fill-rule="evenodd" clip-rule="evenodd" d="M3.707 2.293a1 1 0 00-1.414 1.414l18 18a1 1 0 001.414-1.414l-2.778-2.778c2.31-1.856 3.543-4.186 3.882-4.887a1.436 1.436 0 000-1.255 15.086 15.086 0 00-3-4.111C18.06 5.577 15.483 4 12 4c-2.049 0-3.792.547-5.239 1.347L3.707 2.293zm4.54 4.54l1.721 1.721a4 4 0 015.478 5.478l2.059 2.059c1.856-1.43 2.958-3.276 3.383-4.091a13.205 13.205 0 00-2.465-3.297C16.93 7.265 14.825 6 12 6a8.689 8.689 0 00-3.754.832zm5.685 5.685a2 2 0 00-2.45-2.45l2.45 2.45zM4.65 8.161a1 1 0 01.11 1.41A13.315 13.315 0 003.112 12a13.203 13.203 0 002.465 3.297C7.07 16.735 9.175 18 12 18c.64 0 1.238-.064 1.8-.18a1 1 0 01.4 1.96A10.91 10.91 0 0112 20c-3.483 0-6.06-1.577-7.81-3.262a15.089 15.089 0 01-3.001-4.11 1.44 1.44 0 010-1.258c.243-.5.907-1.76 2.05-3.098a1 1 0 011.41-.111z" fill="currentColor"/></svg>