<svg fill="none" xmlns="http://www.w3.org/2000/svg" viewBox="0 0 24 24"><path fill-rule="evenodd" clip-rule="evenodd" d="M5.577 15.297A13.204 13.204 0 013.112 12a13.204 13.204 0 012.465-3.297C7.07 7.265 9.175 6 12 6s4.93 1.265 6.423 2.703A13.204 13.204 0 0120.888 12a13.203 13.203 0 01-2.465 3.297C16.93 16.735 14.825 18 12 18s-4.93-1.265-6.423-2.703zM12 4C8.517 4 5.94 5.577 4.19 7.262a15.088 15.088 0 00-3.001 4.11 1.435 1.435 0 000 1.255 15.088 15.088 0 003 4.111C5.94 18.423 8.518 20 12 20c3.483 0 6.06-1.577 7.81-3.262a15.086 15.086 0 003.001-4.11 1.435 1.435 0 000-1.255 15.086 15.086 0 00-3-4.111C18.06 5.577 15.483 4 12 4zm-2 8a2 2 0 114 0 2 2 0 01-4 0zm2-4a4 4 0 100 8 4 4 0 000-8z" fill="currentColor"/></svg>