<svg fill="currentColor" viewBox="0 0 24 24"><path d="M3.07 11.936c.504 1.033 1.465 2.47 2.862 3.685C7.472 16.96 9.497 18 12 18c2.503 0 4.528-1.038 6.068-2.38 1.397-1.215 2.358-2.65 2.861-3.684C20.169 9.792 17.513 6 12 6c-5.512 0-8.168 3.792-8.93 5.936zm-2.032-.21C1.785 9.11 5.016 4 12 4s10.215 5.111 10.962 7.725a1 1 0 01-.043.669c-.554 1.293-1.74 3.17-3.537 4.735C17.572 18.705 15.097 20 12 20c-3.097 0-5.572-1.295-7.382-2.87-1.798-1.566-2.983-3.443-3.537-4.736a1 1 0 01-.043-.669z"/><path d="M12 10a2 2 0 100 4 2 2 0 000-4zm-4 2a4 4 0 118 0 4 4 0 01-8 0z"/></svg>