<svg width="24" height="24" viewBox="0 0 24 24" fill="none" xmlns="http://www.w3.org/2000/svg">
<path fill-rule="evenodd" clip-rule="evenodd" d="M6 22C4.34315 22 3 20.6569 3 19V5C3 3.34315 4.34315 2 6 2H14H14.1716C14.9672 2 15.7303 2.31607 16.2929 2.87868L20.1213 6.70711C20.6839 7.26972 21 8.03278 21 8.82843V9V19C21 20.6569 19.6569 22 18 22H6ZM5 19C5 19.5523 5.44772 20 6 20H18C18.5523 20 19 19.5523 19 19V10H16C14.3431 10 13 8.65685 13 7V4H6C5.44772 4 5 4.44772 5 5V19ZM16 8H18.5858L15 4.41421V7C15 7.55229 15.4477 8 16 8ZM9 14C8.44772 14 8 14.4477 8 15C8 15.5523 8.44772 16 9 16H12H15C15.5523 16 16 15.5523 16 15C16 14.4477 15.5523 14 15 14H12H9Z" fill="currentColor"/>
</svg>
