<svg width="24" height="24" viewBox="0 0 24 24" fill="none" xmlns="http://www.w3.org/2000/svg">
<path d="M8 4H6C4.89543 4 4 4.89543 4 6V8M8 4H16M8 4V8M8 20H6C4.89543 20 4 19.1046 4 18V16M8 20H16M8 20V16M16 20H18C19.1046 20 20 19.1046 20 18V16M16 20V16M16 4H18C19.1046 4 20 4.89543 20 6V8M16 4V8M20 12H16M20 12V16M20 12V8M16 12H8M16 12V16M16 12V8M8 12H4M8 12V8M8 12V16M4 12V8M4 12V16M8 8H4M4 16H8M16 16H20M20 8H16" stroke="currentColor" stroke-width="2" stroke-linecap="round" stroke-linejoin="round"/>
</svg>
