<svg fill="currentColor" viewBox="0 0 24 24"><path d="M12.77 2.362a1 1 0 00-1.325-.194c-.65.434-1.495 1.305-2.181 2.573a10.504 10.504 0 00-1.145 3.538 7.593 7.593 0 01-.083-.064c-.52-.403-.865-.784-.992-1.066A1 1 0 005.4 6.882a9 9 0 1010.817-1.833c-1.595-.756-2.98-2.122-3.447-2.687zm-1.748 3.33c.3-.553.623-.984.91-1.3.789.774 2.008 1.786 3.404 2.452a7 7 0 11-9.214 2.354c.225.223.463.423.688.598.613.475 1.27.863 1.743 1.099A1 1 0 0010 10c0-1.845.465-3.277 1.022-4.307zm2.268 4.695a1 1 0 00-1.37-.202c-.31.22-.639.603-.892 1.101a4.017 4.017 0 00-.122.264 1 1 0 00-.994.315A3.756 3.756 0 009 14.332C9 16.297 10.507 18 12.5 18s3.5-1.703 3.5-3.667c0-1.366-.717-2.583-1.818-3.216a2.54 2.54 0 01-.57-.396 2.895 2.895 0 01-.322-.334zM11 14.333c0-.055.002-.11.007-.164l.085.047a1 1 0 001.47-.883c0-.318.047-.584.113-.8.163.119.34.232.529.329.457.271.796.814.796 1.471 0 .983-.731 1.667-1.5 1.667s-1.5-.684-1.5-1.667z"/></svg>