<svg width="24" height="24" fill="none" xmlns="http://www.w3.org/2000/svg"><path fill-rule="evenodd" clip-rule="evenodd" d="M7.854 8.035H5.05A8.022 8.022 0 019.584 4.37a13.633 13.633 0 00-1.73 3.664zm-.441 2h-3.17A8.018 8.018 0 004 12c0 .68.084 1.338.243 1.966h3.17a13.808 13.808 0 010-3.931zm2.024 3.93c-.22-1.3-.22-2.63 0-3.93h5.126c.22 1.3.22 2.63 0 3.93H9.437zm-1.582 2H5.05a8.023 8.023 0 004.534 3.664 13.633 13.633 0 01-1.73-3.664zm6.561 3.664a8.023 8.023 0 004.534-3.664h-2.805a13.634 13.634 0 01-1.729 3.664zm-.376-3.664A11.654 11.654 0 0112 19.521a11.654 11.654 0 01-2.04-3.556h4.08zm2.547-2h3.17A8.017 8.017 0 0020 12c0-.68-.084-1.338-.243-1.966h-3.17a13.806 13.806 0 010 3.931zm-.442-5.93h2.805a8.023 8.023 0 00-4.534-3.664 13.635 13.635 0 011.73 3.664zm-2.105 0H9.96A11.654 11.654 0 0112 4.479a11.654 11.654 0 012.04 3.556zM12 2a10 10 0 100 20c4.37 0 8.083-2.802 9.444-6.705A9.986 9.986 0 0022 12a9.986 9.986 0 00-.556-3.295C20.083 4.802 16.37 2 12 2z" fill="currentColor"/></svg>