<svg fill="currentColor" viewBox="0 0 24 24"><path d="M9.388 3.162a2.498 2.498 0 014.224 0A2.5 2.5 0 0117 5.5v1.55a2.5 2.5 0 013 2.45v4c0 3.326-1.408 5.501-3.228 6.811C15.002 21.585 12.91 22 11.5 22c-3.326 0-5.501-1.408-6.812-3.228C3.415 17.002 3 14.91 3 13.5v-2a2.5 2.5 0 013-2.45V5.5a2.5 2.5 0 013.388-2.338zM11 12a1 1 0 11-2 0V5.5a.5.5 0 00-1 0V14a1 1 0 11-2 0v-2.5a.5.5 0 00-1 0v2c0 1.09.335 2.747 1.312 4.103C7.252 18.908 8.826 20 11.5 20c1.09 0 2.747-.335 4.103-1.311C16.908 17.748 18 16.174 18 13.5v-4a.5.5 0 00-1 0V12a1 1 0 11-2 0V5.5a.5.5 0 00-1 0V11a1 1 0 11-2 0V4.5a.5.5 0 00-1 0V12z"/></svg>