<svg fill="currentColor" viewBox="0 0 24 24"><path d="M3 5.39C3.776 3.994 5.085 3 7 3c2.326 0 3.876.992 4.812 2.29.066.092.128.185.188.28.06-.095.122-.188.188-.28C13.124 3.993 14.675 3 17 3c1.916 0 3.225.995 4 2.39.74 1.333 1 3.026 1 4.61 0 1.687-.67 3.219-1.587 4.527-.918 1.31-2.122 2.45-3.29 3.38a27.828 27.828 0 01-4.656 2.978l-.023.011-.007.003-.002.001s-.001.001-.435-.9l-.434.9h-.003l-.007-.004-.023-.011a10.51 10.51 0 01-.386-.197 27.839 27.839 0 01-4.27-2.78c-1.168-.931-2.372-2.072-3.29-3.38C2.67 13.217 2 11.687 2 10c0-1.584.26-3.277 1-4.61zM12 20l-.434.901a1 1 0 00.868 0L12 20zm0-1.124a25.851 25.851 0 003.877-2.533c1.082-.862 2.128-1.867 2.898-2.964C19.545 12.28 20 11.146 20 10c0-1.416-.24-2.723-.75-3.64C18.776 5.506 18.085 5 17 5c-1.674 0-2.624.675-3.188 1.46C13.21 7.293 13 8.326 13 9a1 1 0 11-2 0c0-.673-.21-1.706-.812-2.54C9.624 5.674 8.675 5 7 5c-1.084 0-1.775.505-2.25 1.36C4.24 7.278 4 8.585 4 10c0 1.146.455 2.281 1.225 3.379.77 1.097 1.816 2.102 2.898 2.964A25.845 25.845 0 0012 18.876z"/></svg>