<svg width="24" height="24" viewBox="0 0 24 24" fill="none" xmlns="http://www.w3.org/2000/svg">
<path fill-rule="evenodd" clip-rule="evenodd" d="M3 6C3 4.34315 4.34315 3 6 3H18C19.6569 3 21 4.34315 21 6V16.999V17.001V18C21 19.6569 19.6569 21 18 21H6C4.34315 21 3 19.6569 3 18V6ZM19 6V14.5858L16.0406 11.6264C14.9174 10.5032 13.1134 10.4502 11.9262 11.5055L5 17.662V6C5 5.44772 5.44772 5 6 5H18C18.5523 5 19 5.44772 19 6ZM18 19H6.5052L13.2549 13.0003C13.6506 12.6485 14.252 12.6662 14.6264 13.0406L19 17.4142V18C19 18.5523 18.5523 19 18 19ZM8 6C6.89543 6 6 6.89543 6 8C6 9.10457 6.89543 10 8 10C9.10457 10 10 9.10457 10 8C10 6.89543 9.10457 6 8 6Z" fill="currentColor"/>
</svg>
