<svg width="24" height="24" viewBox="0 0 24 24" fill="none" xmlns="http://www.w3.org/2000/svg">
<path d="M4 14L4 18C4 19.1046 4.89543 20 6 20L18 20C19.1046 20 20 19.1046 20 18L20 14M4 14L4 6C4 4.89543 4.89543 4 6 4L7 4M4 14L8 14C8.55228 14 9 14.4477 9 15V15C9 15.5523 9.44772 16 10 16L14 16C14.5523 16 15 15.5523 15 15V15C15 14.4477 15.4477 14 16 14L20 14M20 14L20 6C20 4.89543 19.1046 4 18 4L17 4M12 11L9 8M12 11L15 8M12 11L12 3" stroke="currentColor" stroke-width="2" stroke-linecap="round" stroke-linejoin="round"/>
</svg>
