<svg fill="currentColor" viewBox="0 0 24 24"><path d="M12 2a1 1 0 011 1v1a1 1 0 11-2 0V3a1 1 0 011-1zM4.793 4.793a1 1 0 011.414 0l1 1a1 1 0 01-1.414 1.414l-1-1a1 1 0 010-1.414zm14.414 0a1 1 0 010 1.414l-1 1a1 1 0 11-1.414-1.414l1-1a1 1 0 011.414 0zM12 8a4 4 0 100 8 4 4 0 000-8zm-6 4a6 6 0 119 5.197V19a3 3 0 11-6 0v-1.803A5.998 5.998 0 016 12zm5 5.917V19a1 1 0 102 0v-1.083a6.032 6.032 0 01-2 0zM2 12a1 1 0 011-1h1a1 1 0 110 2H3a1 1 0 01-1-1zm17 0a1 1 0 011-1h1a1 1 0 110 2h-1a1 1 0 01-1-1z"/></svg>