<svg fill="currentColor" viewBox="0 0 24 24"><path d="M3.916 7.988C4.956 7.24 6.173 7 7 7h2a1 1 0 010 2H7c-.507 0-1.289.16-1.916.612C4.508 10.026 4 10.726 4 12c0 1.274.508 1.974 1.084 2.389.627.45 1.41.611 1.916.611h2a1 1 0 110 2H7c-.827 0-2.044-.24-3.084-.988C2.825 15.226 2 13.926 2 12c0-1.926.825-3.226 1.916-4.012zM14 8a1 1 0 011-1h2c.827 0 2.044.24 3.084.988C21.175 8.774 22 10.074 22 12c0 1.926-.825 3.226-1.916 4.012-1.04.748-2.257.988-3.084.988h-2a1 1 0 110-2h2c.507 0 1.289-.16 1.916-.611C19.49 13.974 20 13.274 20 12c0-1.274-.509-1.974-1.084-2.388C18.289 9.16 17.506 9 17 9h-2a1 1 0 01-1-1zm-7 4a1 1 0 011-1h8a1 1 0 110 2H8a1 1 0 01-1-1z"/></svg>