<svg width="24" height="24" viewBox="0 0 24 24" fill="none" xmlns="http://www.w3.org/2000/svg">
<path d="M3 10L3 19C3 20.1046 3.89543 21 5 21L19 21C20.1046 21 21 20.1046 21 19L21 10M3 10L3 9C3 7.89543 3.89543 7 5 7L6 7M3 10L6 12.5M21 10L21 9C21 7.89543 20.1046 7 19 7L18 7M21 10L18 12.5M6 7L6 12.5M6 7L6 5C6 3.89543 6.89543 3 8 3L16 3C17.1046 3 18 3.89543 18 5L18 7M18 7L18 12.5M18 12.5L13.2 16.1C12.4889 16.6333 11.5111 16.6333 10.8 16.1L6 12.5M10 7L14 7M10 10L14 10" stroke="currentColor" stroke-width="2" stroke-linecap="round" stroke-linejoin="round"/>
</svg>
