<svg fill="currentColor" viewBox="0 0 24 24"><path d="M2 9a3 3 0 013-3h1a1 1 0 010 2H5a1 1 0 00-1 1v.51l7.386 5.746a1 1 0 001.228 0L20 9.51V9a1 1 0 00-1-1h-1a1 1 0 110-2h1a3 3 0 013 3v10a3 3 0 01-3 3H5a3 3 0 01-3-3V9zm18 3.045l-6.158 4.79a3 3 0 01-3.684 0L4 12.044V19a1 1 0 001 1h14a1 1 0 001-1v-6.955z"/><path d="M8 4a1 1 0 00-1 1v7a1 1 0 11-2 0V5a3 3 0 013-3h8a3 3 0 013 3v7a1 1 0 11-2 0V5a1 1 0 00-1-1H8z"/><path d="M9 7a1 1 0 011-1h4a1 1 0 110 2h-4a1 1 0 01-1-1zm0 3a1 1 0 011-1h4a1 1 0 110 2h-4a1 1 0 01-1-1z"/></svg>