<svg width="24" height="24" fill="none" xmlns="http://www.w3.org/2000/svg"><path fill-rule="evenodd" clip-rule="evenodd" d="M22 3a1 1 0 00-1.242-.97l-12 3A1 1 0 008 6v10.391A5.145 5.145 0 006 16c-.998 0-1.947.268-2.676.754C2.602 17.234 2 18.009 2 19c0 .99.602 1.765 1.324 2.246C4.053 21.732 5.002 22 6 22c.998 0 1.947-.268 2.676-.754C9.398 20.766 10 19.991 10 19v-8.22l10-2.5v5.111A5.145 5.145 0 0018 13c-.998 0-1.947.268-2.676.754C14.602 14.234 14 15.009 14 16c0 .99.602 1.765 1.324 2.246.729.486 1.678.754 2.676.754.998 0 1.947-.268 2.676-.754C21.398 17.766 22 16.991 22 16V3zm-2 13c0-.114-.07-.34-.433-.582C19.209 15.18 18.658 15 18 15c-.659 0-1.21.18-1.567.418-.364.243-.433.468-.433.582 0 .114.07.34.433.582.358.238.909.418 1.567.418.659 0 1.21-.18 1.567-.418.364-.243.433-.468.433-.582zM8 19c0-.114-.07-.34-.433-.582C7.21 18.18 6.659 18 6 18c-.659 0-1.21.18-1.567.418C4.07 18.66 4 18.886 4 19c0 .114.07.34.433.582C4.79 19.82 5.341 20 6 20c.659 0 1.21-.18 1.567-.418C7.93 19.34 8 19.114 8 19zM20 6.22l-10 2.5V6.78l10-2.5v1.94z" fill="currentColor"/></svg>