<svg fill="currentColor" viewBox="0 0 24 24"><path d="M16.414 9l4.293-4.293a1 1 0 00-1.414-1.414L15 7.586V6a1 1 0 10-2 0v4a1 1 0 001 1h4a1 1 0 100-2h-1.586zM3 4a1 1 0 00-1 1c0 2.023.424 4.734 1.583 7.399 1.4 3.22 3.895 6.42 8.022 8.194C13.672 21.483 16.121 22 19 22a1 1 0 001-1v-4a1 1 0 00-.758-.97l-4-1a1 1 0 00-1.017.338l-2.509 3.073c-2.894-1.443-4.796-3.735-5.991-6.174L8.65 9.76a1 1 0 00.32-1.002l-1-4A1 1 0 007 4H3zm15 15.977c-1.63-.078-3.07-.343-4.343-.75l1.716-2.103 2.627.657v2.196zM6.88 8.643L4.922 10.32A17.47 17.47 0 014.037 6h2.182l.661 2.643z"/></svg>