<svg width="24" height="24" viewBox="0 0 24 24" fill="none" xmlns="http://www.w3.org/2000/svg">
<path fill-rule="evenodd" clip-rule="evenodd" d="M4 12C4 7.58172 7.58172 4 12 4C16.4183 4 20 7.58172 20 12C20 16.4183 16.4183 20 12 20C7.58172 20 4 16.4183 4 12ZM12 2C6.47715 2 2 6.47715 2 12C2 17.5228 6.47715 22 12 22C17.5228 22 22 17.5228 22 12C22 6.47715 17.5228 2 12 2ZM12.2804 7.5986C10.9777 6.51305 9 7.43937 9 9.13504V14.865C9 16.5606 10.9777 17.4869 12.2804 16.4014L15.7183 13.5364C16.6778 12.7369 16.6778 11.2631 15.7183 10.4636L12.2804 7.5986ZM11 9.13504L14.438 12L11 14.865V9.13504Z" fill="currentColor"/>
</svg>
