<svg fill="currentColor" viewBox="0 0 24 24"><path d="M8 4a1 1 0 00-1 1v2a1 1 0 01-2 0V5a3 3 0 013-3h8a3 3 0 013 3v2a1 1 0 11-2 0V5a1 1 0 00-1-1H8z"/><path d="M2 9a3 3 0 013-3h14a3 3 0 013 3v6a3 3 0 01-3 3h-2a1 1 0 110-2h2a1 1 0 001-1V9a1 1 0 00-1-1H5a1 1 0 00-1 1v6a1 1 0 001 1h2a1 1 0 110 2H5a3 3 0 01-3-3V9z"/><path d="M6 15a3 3 0 013-3h6a3 3 0 013 3v4a3 3 0 01-3 3H9a3 3 0 01-3-3v-4zm3-1a1 1 0 00-1 1v4a1 1 0 001 1h6a1 1 0 001-1v-4a1 1 0 00-1-1H9zM6 10a1 1 0 011-1h2a1 1 0 010 2H7a1 1 0 01-1-1z"/></svg>