<svg width="24" height="24" viewBox="0 0 24 24" fill="none" xmlns="http://www.w3.org/2000/svg">
<path fill-rule="evenodd" clip-rule="evenodd" d="M7 5C7 4.44772 7.44772 4 8 4H16C16.5523 4 17 4.44772 17 5V6H7V5ZM19 5V6C20.6569 6 22 7.34315 22 9V10V15C22 16.6569 20.6569 18 19 18H18V19C18 20.6569 16.6569 22 15 22H9C7.34315 22 6 20.6569 6 19V18H5C3.34315 18 2 16.6569 2 15V9C2 7.34315 3.34315 6 5 6V5C5 3.34315 6.34315 2 8 2H16C17.6569 2 19 3.34315 19 5ZM19 16H18V15C18 13.3431 16.6569 12 15 12H9C7.34315 12 6 13.3431 6 15V16H5C4.44772 16 4 15.5523 4 15V9C4 8.44772 4.44772 8 5 8H6H18H19C19.5523 8 20 8.44772 20 9V10V15C20 15.5523 19.5523 16 19 16ZM8 15C8 14.4477 8.44772 14 9 14H15C15.5523 14 16 14.4477 16 15V17V19C16 19.5523 15.5523 20 15 20H9C8.44772 20 8 19.5523 8 19V17V15ZM7 9C6.44772 9 6 9.44772 6 10C6 10.5523 6.44772 11 7 11H9C9.55228 11 10 10.5523 10 10C10 9.44772 9.55228 9 9 9H7Z" fill="currentColor"/>
</svg>
