<svg width="24" height="24" fill="none" xmlns="http://www.w3.org/2000/svg"><path fill-rule="evenodd" clip-rule="evenodd" d="M7 5a1 1 0 011-1h8a1 1 0 011 1v1H7V5zm12 0v1a3 3 0 013 3v6a3 3 0 01-3 3h-1v1a3 3 0 01-3 3H9a3 3 0 01-3-3v-1H5a3 3 0 01-3-3V9a3 3 0 013-3V5a3 3 0 013-3h8a3 3 0 013 3zm0 11h-1v-1a3 3 0 00-3-3H9a3 3 0 00-3 3v1H5a1 1 0 01-1-1V9a1 1 0 011-1h14a1 1 0 011 1v6a1 1 0 01-1 1zM8 15a1 1 0 011-1h6a1 1 0 011 1v4a1 1 0 01-1 1H9a1 1 0 01-1-1v-4zM7 9a1 1 0 000 2h2a1 1 0 100-2H7z" fill="currentColor"/></svg>