<svg fill="currentColor" viewBox="0 0 24 24"><path d="M3 5a2 2 0 012-2h2a2 2 0 012 2v2a2 2 0 01-2 2H5a2 2 0 01-2-2V5zm4 0H5v2h2V5zm5-2a1 1 0 011 1v1a1 1 0 11-2 0V4a1 1 0 011-1zm3 2a2 2 0 012-2h2a2 2 0 012 2v2a2 2 0 01-2 2h-2a2 2 0 01-2-2V5zm4 0h-2v2h2V5zm-7 3a1 1 0 011 1v2h1a1 1 0 110 2h-1a2 2 0 01-2-2V9a1 1 0 011-1zm-9 4a1 1 0 011-1h4a1 1 0 110 2H4a1 1 0 01-1-1zm14 0a1 1 0 011-1h2a1 1 0 110 2h-2a1 1 0 01-1-1zM3 17a2 2 0 012-2h2a2 2 0 012 2v2a2 2 0 01-2 2H5a2 2 0 01-2-2v-2zm4 0H5v2h2v-2zm4 0a2 2 0 012-2h1a1 1 0 110 2h-1v3a1 1 0 11-2 0v-3zm6-1a1 1 0 011-1h2a1 1 0 110 2h-2a1 1 0 01-1-1zm-2 4a1 1 0 011-1h4a1 1 0 110 2h-4a1 1 0 01-1-1z"/></svg>