<svg fill="currentColor" viewBox="0 0 24 24"><path d="M10.383 4.076A1 1 0 0111 5v3.028c4.117.23 6.861 1.885 8.58 4.035C21.403 14.339 22 17.075 22 19a1 1 0 11-2 0c0-.502-.235-.942-.802-1.366-.592-.443-1.477-.805-2.565-1.076-1.804-.45-3.941-.594-5.633-.583V19a1 1 0 01-1.707.707l-7-7a1 1 0 010-1.414l7-7a1 1 0 011.09-.217zm8.843 11.267a8.762 8.762 0 00-1.207-2.03C16.574 11.505 14.122 10 10 10a1 1 0 01-1-1V7.414L4.414 12 9 16.586V15a1 1 0 01.955-.999c1.888-.086 4.743.014 7.162.616a11.6 11.6 0 012.11.726z"/></svg>