<svg fill="currentColor" viewBox="0 0 24 24"><path d="M9.383 4.076A1 1 0 0110 5v1.586l2.293-2.293A1 1 0 0114 5v3.029c1.859.109 3.371.526 4.593 1.184a7.556 7.556 0 013.082 3.054C22.965 14.602 23 17.348 23 19a1 1 0 11-2 0c0-.621-.218-1.081-.597-1.46-.404-.403-1.021-.741-1.832-1-1.344-.428-3.02-.574-4.571-.565V19a1 1 0 01-1.707.707L10 17.414V19a1 1 0 01-1.707.707l-7-7a1 1 0 010-1.414l7-7a1 1 0 011.09-.217zM8 15.414l-2.707-2.707a1 1 0 010-1.414L8 8.586V7.414L3.414 12 8 16.586v-1.172zm12.677-.14a7.768 7.768 0 00-.753-2.04 5.556 5.556 0 00-2.28-2.26C16.566 10.393 15.075 10 13 10a1 1 0 01-1-1V7.414L7.414 12 12 16.586V15a1 1 0 01.955-.999c1.879-.085 4.266.01 6.224.634a7.97 7.97 0 011.498.64z"/></svg>