<svg fill="currentColor" viewBox="0 0 24 24"><path d="M2 16a1 1 0 011-1h8a1 1 0 011 1c0 .507.16 1.289.611 1.916C13.026 18.49 13.726 19 15 19a1 1 0 110 2H6c-1.526 0-2.576-.658-3.212-1.54A4.35 4.35 0 012 17v-1zm8.93 3a5.385 5.385 0 01-.828-2H4c0 .34.11.872.412 1.29.264.368.714.71 1.588.71h4.93z"/><path d="M7 5a1 1 0 00-1 1v10a1 1 0 11-2 0V6a3 3 0 013-3h11a1 1 0 011 1v13c0 .66-.19 1.628-.788 2.46C17.576 20.341 16.526 21 15 21a1 1 0 110-2c.874 0 1.324-.342 1.588-.71.302-.418.412-.95.412-1.29V5H7z"/><path d="M17 4a1 1 0 011-1c.66 0 1.628.19 2.46.788C21.341 4.424 22 5.474 22 7c0 1.526-.658 2.576-1.54 3.211A4.35 4.35 0 0118 11a1 1 0 110-2c.34 0 .872-.11 1.29-.412.368-.264.71-.714.71-1.588 0-.874-.342-1.324-.71-1.588A2.355 2.355 0 0018 5a1 1 0 01-1-1z"/></svg>