<svg fill="currentColor" viewBox="0 0 24 24"><path d="M12 1.932l9 3.375V10c0 4.118-1.62 7.113-3.535 9.074a11.407 11.407 0 01-2.915 2.175c-.913.468-1.826.751-2.55.751-.724 0-1.637-.283-2.55-.75-.938-.481-1.963-1.201-2.915-2.176C4.619 17.113 3 14.118 3 10V5.307l9-3.375zM5 6.693V10c0 3.549 1.38 6.054 2.965 7.676a9.411 9.411 0 002.397 1.793c.775.397 1.362.531 1.638.531.276 0 .863-.134 1.638-.53a9.412 9.412 0 002.397-1.794C17.619 16.054 19 13.55 19 10V6.693l-7-2.625-7 2.625z"/><path d="M12 7a1 1 0 011 1v4a1 1 0 11-2 0V8a1 1 0 011-1zM11 15a1 1 0 011-1h.01a1 1 0 110 2H12a1 1 0 01-1-1z"/></svg>