<svg fill="currentColor" viewBox="0 0 24 24"><path d="M10.655 3.466c.55-1.115 2.14-1.115 2.69 0l1.964 3.98 4.392.638c1.23.178 1.721 1.69.831 2.558l-3.178 3.098.75 4.374c.21 1.225-1.076 2.16-2.176 1.58L12 17.63l-3.928 2.065c-1.1.578-2.387-.356-2.176-1.581l.75-4.374-3.178-3.098c-.89-.868-.399-2.38.831-2.558l4.392-.639 1.964-3.98zM12 5.26l-1.632 3.306a1.5 1.5 0 01-1.13.82l-3.649.531 2.641 2.574a1.5 1.5 0 01.431 1.328l-.623 3.634 3.264-1.716a1.5 1.5 0 011.396 0l3.264 1.716-.623-3.634a1.5 1.5 0 01.431-1.328l2.64-2.574-3.649-.53a1.5 1.5 0 01-1.129-.82L12 5.26z"/></svg>