<svg fill="currentColor" viewBox="0 0 24 24"><path d="M12 2a1 1 0 011 1v1a1 1 0 11-2 0V3a1 1 0 011-1zM4.293 4.293a1 1 0 011.414 0l1 1a1 1 0 01-1.414 1.414l-1-1a1 1 0 010-1.414zm14 0a1 1 0 111.414 1.414l-1 1a1 1 0 11-1.414-1.414l1-1zM12 9a3 3 0 100 6 3 3 0 000-6zm-5 3a5 5 0 1110 0 5 5 0 01-10 0zm-5 0a1 1 0 011-1h1a1 1 0 110 2H3a1 1 0 01-1-1zm17 0a1 1 0 011-1h1a1 1 0 110 2h-1a1 1 0 01-1-1zM6.707 17.293a1 1 0 010 1.414l-1 1a1 1 0 01-1.414-1.414l1-1a1 1 0 011.414 0zm10.586 0a1 1 0 011.414 0l1 1a1 1 0 01-1.414 1.414l-1-1a1 1 0 010-1.414zM12 19a1 1 0 011 1v1a1 1 0 11-2 0v-1a1 1 0 011-1z"/></svg>