<svg fill="currentColor" viewBox="0 0 24 24"><path d="M9 2a1 1 0 011 1v1h5a1 1 0 110 2h-1.546c-.222 2.38-1.212 4.52-2.5 6.341l.827 1.034a1 1 0 11-1.562 1.25l-.541-.677c-2.068 2.338-4.539 4.056-6.212 4.937a1 1 0 11-.932-1.77c1.49-.784 3.765-2.363 5.654-4.502.074-.083.147-.168.22-.253L6.218 9.625a1 1 0 011.562-1.25l1.865 2.332C10.581 9.27 11.25 7.686 11.442 6H3a1 1 0 010-2h5V3a1 1 0 011-1zm7 8a1 1 0 01.894.553l5 10a1 1 0 11-1.788.894L18.882 19h-5.764l-1.224 2.447a1 1 0 11-1.788-.894l5-10A1 1 0 0116 10zm-1.882 7h3.764L16 13.236 14.118 17z"/></svg>