<svg fill="currentColor" viewBox="0 0 24 24"><path d="M2 8a3 3 0 013-3h6a3 3 0 013 3v8a1 1 0 01-1 1H9a1 1 0 110-2h3V8a1 1 0 00-1-1H5a1 1 0 00-1 1v6a1 1 0 001 1v2a3 3 0 01-3-3V8z"/><path d="M12 9a1 1 0 011-1h4a1 1 0 01.707.293l3.414 3.414A3 3 0 0122 13.828V14a3 3 0 01-3 3v-2a1 1 0 001-1v-.172a1 1 0 00-.293-.707L16.586 10H14v5h1a1 1 0 110 2h-2a1 1 0 01-1-1V9zM7 15a1 1 0 100 2 1 1 0 000-2zm-3 1a3 3 0 116 0 3 3 0 01-6 0z"/><path d="M17 15a1 1 0 100 2 1 1 0 000-2zm-3 1a3 3 0 116 0 3 3 0 01-6 0z"/></svg>