<svg width="24" height="24" fill="none" xmlns="http://www.w3.org/2000/svg"><path fill-rule="evenodd" clip-rule="evenodd" d="M5 9a4 4 0 118 0 4 4 0 01-8 0zm4-6c1.093 0 2.118.292 3 .803a6 6 0 016.641 9.966C21.187 14.907 23 17.208 23 20a1 1 0 01-1 1H2a1 1 0 01-1-1c0-2.792 1.814-5.093 4.358-6.231A6 6 0 019 3zM8 19h6.876c-.547-2.197-2.86-4-5.876-4-3.016 0-5.329 1.803-5.876 4H8zm8.92 0h3.956c-.547-2.197-2.86-4-5.876-4-.14 0-.277-.005-.414-.014 1.225 1.038 2.08 2.424 2.335 4.014zM15 13a4 4 0 10-1.334-7.772A5.975 5.975 0 0115 9c0 1.43-.5 2.742-1.334 3.772.417.148.866.228 1.334.228z" fill="currentColor"/></svg>