<svg fill="none" xmlns="http://www.w3.org/2000/svg" viewBox="0 0 24 24"><path fill-rule="evenodd" clip-rule="evenodd" d="M10 9a2 2 0 114 0 2 2 0 01-4 0zm-.906 2.75a4 4 0 115.811 0c.197.108.387.228.57.358A4.02 4.02 0 0116.6 10.8a3 3 0 114.8 0 3.994 3.994 0 011.372 4.533 1 1 0 01-.943.667h-3.912a6.036 6.036 0 01-.037 2.199 1 1 0 01-.98.801H7.1a1 1 0 01-.98-.801A6.022 6.022 0 016.083 16H2.171a1 1 0 01-.943-.667A3.994 3.994 0 012.6 10.8a3 3 0 114.8 0 4.02 4.02 0 011.125 1.308 6 6 0 01.57-.359zm-.281 2.833A3.994 3.994 0 0112 13a3.993 3.993 0 013.213 1.617A3.98 3.98 0 0116 17H8a3.982 3.982 0 01.813-2.417zm-1.833-.87A2 2 0 003 14h3.803c.056-.097.115-.193.177-.287zM17.197 14H21a2 2 0 00-3.98-.287c.062.094.121.19.177.287zM6 9a1 1 0 11-2 0 1 1 0 012 0zm14 0a1 1 0 11-2 0 1 1 0 012 0z" fill="currentColor"/></svg>