<svg fill="currentColor" viewBox="0 0 24 24"><path d="M9 5a4 4 0 100 8 4 4 0 000-8zM3 9a6 6 0 1112 0A6 6 0 013 9z"/><path d="M3.124 19h11.752c-.547-2.197-2.86-4-5.876-4-3.016 0-5.329 1.803-5.876 4zM1 20c0-4.005 3.732-7 8-7s8 2.995 8 7a1 1 0 01-1 1H2a1 1 0 01-1-1zM16.001 12.874c-.119.215-.248.424-.386.626.623.55 1.177 1.176 1.647 1.864 1.871.635 3.214 2.03 3.614 3.636H18.8c.131.646.2 1.315.2 2h3a1 1 0 001-1c0-2.792-1.814-5.093-4.358-6.231a6 6 0 00-4.309-10.732A8.034 8.034 0 0116 5.127a4.002 4.002 0 010 7.747z"/></svg>