<svg fill="currentColor" viewBox="0 0 24 24"><path d="M12 7a2 2 0 100 4 2 2 0 000-4zM8 9a4 4 0 118 0 4 4 0 01-8 0zM19 8a1 1 0 100 2 1 1 0 000-2zm-3 1a3 3 0 116 0 3 3 0 01-6 0zM5 8a1 1 0 100 2 1 1 0 000-2zM2 9a3 3 0 116 0 3 3 0 01-6 0z"/><path d="M17.268 13h3.464a2 2 0 00-3.464 0zM15 14a4 4 0 018 0v1h-7l-1-1zM3.268 13h3.464a2 2 0 00-3.464 0zM1 14a4 4 0 018 0l-1 1H1v-1z"/><path d="M12 13a4 4 0 00-4 4h8a4 4 0 00-4-4zm-6 4a6 6 0 1111.88 1.199l-.163.801H6.283l-.163-.801A6.022 6.022 0 016 17z"/></svg>