<svg fill="currentColor" viewBox="0 0 24 24"><path d="M2.041 10.643A12.97 12.97 0 0112 6a12.97 12.97 0 019.959 4.643 1 1 0 101.53-1.286A14.97 14.97 0 0012 4 14.97 14.97 0 00.51 9.357a1 1 0 001.531 1.286zM5.573 13.7A8.97 8.97 0 0112 11a8.97 8.97 0 016.427 2.7 1 1 0 001.428-1.4A10.97 10.97 0 0012 9a10.97 10.97 0 00-7.856 3.3 1 1 0 101.429 1.4zm3.663 3.133A4.972 4.972 0 0112 16c1.024 0 1.973.307 2.764.833a1 1 0 101.107-1.666A6.972 6.972 0 0012 14c-1.43 0-2.762.43-3.871 1.167a1 1 0 101.107 1.666zM12 18a1 1 0 100 2h.01a1 1 0 100-2H12z"/></svg>