<svg width="24" height="24" viewBox="0 0 24 24" fill="none" xmlns="http://www.w3.org/2000/svg">
<path fill-rule="evenodd" clip-rule="evenodd" d="M2.04145 10.6432C4.42772 7.80278 8.00285 6 12 6C15.9972 6 19.5723 7.80278 21.9586 10.6432C22.3138 11.0661 22.9446 11.1209 23.3675 10.7657C23.7903 10.4104 23.8452 9.77963 23.4899 9.35676C20.7399 6.08333 16.6128 4 12 4C7.38726 4 3.26013 6.08333 0.510113 9.35676C0.154863 9.77963 0.209676 10.4104 0.632542 10.7657C1.05541 11.1209 1.6862 11.0661 2.04145 10.6432ZM5.57267 13.7C7.20727 12.0326 9.48214 11 12 11C14.5179 11 16.7927 12.0326 18.4273 13.7C18.814 14.0944 19.4471 14.1007 19.8415 13.7141C20.2359 13.3275 20.2422 12.6943 19.8555 12.3C17.8603 10.2646 15.0769 9 12 9C8.92308 9 6.13973 10.2646 4.14447 12.3C3.75785 12.6943 3.76414 13.3275 4.15853 13.7141C4.55292 14.1007 5.18605 14.0944 5.57267 13.7ZM9.23589 16.8327C10.0272 16.3066 10.9763 16 12 16C13.0237 16 13.9728 16.3066 14.7641 16.8327C15.224 17.1385 15.8448 17.0136 16.1505 16.5537C16.4563 16.0938 16.3314 15.4731 15.8715 15.1673C14.7622 14.4297 13.4298 14 12 14C10.5702 14 9.23781 14.4297 8.12854 15.1673C7.66863 15.4731 7.54369 16.0938 7.84948 16.5537C8.15527 17.0136 8.77598 17.1385 9.23589 16.8327ZM12 18C11.4477 18 11 18.4477 11 19C11 19.5523 11.4477 20 12 20H12.01C12.5623 20 13.01 19.5523 13.01 19C13.01 18.4477 12.5623 18 12.01 18H12Z" fill="currentColor"/>
</svg>
