<svg xmlns="http://www.w3.org/2000/svg" viewBox="0 0 24 24" fill="none"><g clip-path="url(#a)"><path stroke="currentColor" stroke-linecap="round" stroke-linejoin="round" stroke-width="2" d="m14.071 7.586-.828.828A2 2 0 0 1 11.828 9h-1.414c-.375 0-.735.149-1 .414v0a1.414 1.414 0 0 0 0 2l1.829 1.829a2 2 0 0 0 2.828 0l1.414-1.415.964 2.121a1.346 1.346 0 0 0 2.178.395v0c.252-.252.394-.595.394-.952v-4.27a2 2 0 0 1 .586-1.415l2.242-2.243c.472-.47 1.132-1.697 0-2.828-1.131-1.131-2.357-.471-2.828 0l-1.768 1.768m-3.182 3.182-2.02-.674a1.448 1.448 0 0 1-.566-2.397v0a1.448 1.448 0 0 1 1.12-.421l4.648.31m-3.182 3.182 3.182-3.182M2 14.905c.705-1.234 1.825-2.32 3-3.204M2 22.404c1.072-3.002 3.055-5.564 5.023-7.5m.477 6.5c.721-1.442 1.96-3.077 3.087-4.405"/></g><defs><clipPath id="a"><path fill="#fff" d="M0 0h24v24H0z"/></clipPath></defs></svg>