<svg xmlns="http://www.w3.org/2000/svg" viewBox="0 0 24 24" fill="none"><path stroke="currentColor" stroke-linecap="round" stroke-linejoin="round" stroke-width="2" d="m16 4-2.251 2.251m0 0A5.782 5.782 0 0 0 12 6a5.56 5.56 0 0 0-1.711.289m3.46-.038c1.551.49 2.417 1.623 2.858 2.749M8 4l2.289 2.289m0 0C9.135 6.67 7.914 7.479 7.339 9m9.268 0A5.66 5.66 0 0 1 17 11v2m-.393-4H18c.667 0 2-.4 2-2m-3 6v2a5.66 5.66 0 0 1-.393 2M17 13h3m-3.393 4c-.585 1.494-1.918 3-4.607 3s-4.022-1.506-4.607-3m9.214 0H18c.667 0 2 .4 2 2M7.338 9C7.125 9.564 7 10.226 7 11v2m.338-4H6c-.667 0-2-.4-2-2m3 6v2c0 .546.107 1.272.393 2M7 13H4m3.393 4H6c-.667 0-2 .4-2 2m8-9h.001M10 13h.001M14 13h.001"/></svg>