<svg xmlns="http://www.w3.org/2000/svg" viewBox="0 0 24 24" fill="none"><path stroke="currentColor" stroke-linecap="round" stroke-linejoin="round" stroke-width="2" d="M19 12h3m-3 0a6.978 6.978 0 0 0-2.05-4.95M19 12v1m-7 6v3m0-3a6.978 6.978 0 0 0 4.95-2.05l2.55 2.55L18 21m-6-2a6.978 6.978 0 0 1-4.95-2.05M5 12H2m3 0c0 1.933.784 3.683 2.05 4.95M5 12c0-1.352.47-3.488 1.955-5.045M12 5V2m0 3c1.933 0 3.683.784 4.95 2.05M12 5h-1m1-3h2m-2 0h-2m2 20h2m-2 0h-2m12-10v-2m0 2v2M2 12v-2m0 2v2m17.5-9.5L18 3m1.5 1.5L21 6m-1.5-1.5-2.55 2.55M3 6l1.5-1.5 2.455 2.455M4.5 19.5 6 21m-1.5-1.5L3 18m1.5 1.5 2.55-2.55M7 7l-.045-.045M14 14h.001M9.382 9.5a1.5 1.5 0 0 0 2.01 2.206M3 3l18 18"/></svg>