<svg xmlns="http://www.w3.org/2000/svg" viewBox="0 0 24 24" fill="none"><path stroke="currentColor" stroke-linecap="round" stroke-linejoin="round" stroke-width="2" d="M19 12h3m-3 0a6.978 6.978 0 0 1-2.05 4.95M19 12a6.978 6.978 0 0 0-2.05-4.95M12 19v3m0-3a6.978 6.978 0 0 0 4.95-2.05M12 19a6.978 6.978 0 0 1-4.95-2.05M5 12a7 7 0 0 1 7-7m-7 7H2m3 0c0 1.933.784 3.683 2.05 4.95M12 5V2m0 3c1.933 0 3.683.784 4.95 2.05M12 2h2m-2 0h-2m2 20h2m-2 0h-2m12-10v-2m0 2v2M2 12v-2m0 2v2m17.5-9.5L18 3m1.5 1.5L21 6m-1.5-1.5-2.55 2.55M4.5 4.5 6 3M4.5 4.5 3 6m1.5-1.5L7 7M4.5 19.5 6 21m-1.5-1.5L3 18m1.5 1.5 2.55-2.55M19.5 19.5 18 21m1.5-1.5L21 18m-1.5 1.5-2.55-2.55M14 14h.001"/><circle cx="10.5" cy="10.5" r="1.5" stroke="currentColor" stroke-linecap="round" stroke-linejoin="round" stroke-width="2"/></svg>