<svg xmlns="http://www.w3.org/2000/svg" viewBox="0 0 24 24" fill="none"><path stroke="currentColor" stroke-linecap="round" stroke-linejoin="round" stroke-width="2" d="M3 16c1.403-.234 3.637-.293 5.945.243M16 21c-1.704-2.768-4.427-4.148-7.055-4.757m0 0C10.895 13.985 14.558 12 21 12h1M8.5 7C8 7 7 7.3 7 8.5S8 10 8.5 10 10 9.7 10 8.5 9 7 8.5 7z"/><path stroke="currentColor" stroke-linecap="round" stroke-linejoin="round" stroke-width="2" d="M22 12c0 5.523-4.477 10-10 10S2 17.523 2 12 6.477 2 12 2m7 0v3m0 3V5m0 0h3m-3 0h-3"/></svg>