<svg xmlns="http://www.w3.org/2000/svg" viewBox="0 0 24 24" fill="none"><path stroke="currentColor" stroke-linecap="round" stroke-linejoin="round" stroke-width="2" d="M3 16c1.403-.234 3.637-.293 5.945.243M16 21c-1.704-2.768-4.427-4.148-7.055-4.757m0 0c.927-1.073 2.24-2.084 4.055-2.85M22 12h-1c-1.475 0-2.804.104-4 .291M7.341 7.5C7.14 7.728 7 8.051 7 8.5 7 9.7 8 10 8.5 10a1.66 1.66 0 0 0 1-.348"/><path stroke="currentColor" stroke-linecap="round" stroke-linejoin="round" stroke-width="2" d="M4.859 5A9.968 9.968 0 0 0 2 12c0 5.523 4.477 10 10 10a9.967 9.967 0 0 0 7-2.859M8 2.832A9.966 9.966 0 0 1 12 2c5.523 0 10 4.477 10 10a9.997 9.997 0 0 1-.832 4M2 2l20 20"/></svg>