<svg xmlns="http://www.w3.org/2000/svg" viewBox="0 0 24 24" fill="none"><path stroke="currentColor" stroke-linecap="round" stroke-linejoin="round" stroke-width="2" d="M18 9V4a2 2 0 0 0-2-2H4a2 2 0 0 0-2 2v9m16-4v7a2 2 0 0 1-2 2h-2m4-9c-6.442 0-9.105 1.985-11.055 4.243M2 13v4a1 1 0 0 0 1 1v0h11M2 13c1.403-.234 2.637-.293 4.945.243M14 18c-1.704-2.768-4.427-4.148-7.055-4.757M6.5 5C6 5 5 5.3 5 6.5S6 8 6.5 8 8 7.7 8 6.5 7 5 6.5 5z"/><path stroke="currentColor" stroke-linecap="round" stroke-linejoin="round" stroke-width="2" d="M22 6v12a4 4 0 0 1-4 4H6"/></svg>