<svg xmlns="http://www.w3.org/2000/svg" viewBox="0 0 24 24" fill="none"><circle cx="12" cy="12" r="9" stroke="currentColor" stroke-linecap="round" stroke-linejoin="round" stroke-width="2"/><path stroke="currentColor" stroke-linecap="round" stroke-linejoin="round" stroke-width="2" d="m18 6-3.172 3.172M6 18l3.172-3.172M6 6l3.172 3.172M18 18l-3.172-3.172m0-5.656A3.987 3.987 0 0 0 12 8a3.987 3.987 0 0 0-2.828 1.172m5.656 0A3.984 3.984 0 0 1 16 12a3.987 3.987 0 0 1-1.172 2.828M9.172 9.172A3.987 3.987 0 0 0 8 12c0 1.105.448 2.105 1.172 2.828m0 0A3.987 3.987 0 0 0 12 16a3.987 3.987 0 0 0 2.828-1.172"/></svg>