<svg xmlns="http://www.w3.org/2000/svg" width="24" height="24" fill="none" viewBox="0 0 24 24">
  <path stroke="#000" stroke-linecap="round" stroke-linejoin="round" stroke-width="2" d="M3 10V8a2 2 0 012-2h2m-4 4c1.333 0 4-.8 4-4m-4 4v4m18-4V8a2 2 0 00-2-2h-2m4 4c-1.333 0-4-.8-4-4m4 4v4M7 6h10M3 14v2a2 2 0 002 2h2m-4-4c1.333 0 4 .8 4 4m0 0h4"/>
  <circle cx="12" cy="12" r="2" stroke="#000" stroke-linecap="round" stroke-linejoin="round" stroke-width="2"/>
  <path stroke="#000" stroke-linecap="round" stroke-linejoin="round" stroke-width="2" d="M15 18h6"/>
</svg>
