<svg xmlns="http://www.w3.org/2000/svg" viewBox="0 0 24 24" fill="none"><g clip-path="url(#a)"><path stroke="currentColor" stroke-linecap="round" stroke-linejoin="round" stroke-width="2" d="m9.9 16.97 7.436-7.436a8 8 0 0 0 2.145-3.89l.318-1.401-1.402.317a8 8 0 0 0-3.89 2.146L9.192 12.02m.707 4.95 2.122 3.535c1.178-1.178 2.828-2.828 0-5.657L9.899 16.97zm0 0-2.828-2.829m0 0L3.536 12.02c1.178-1.179 2.828-2.829 5.656 0m-2.12 2.121 2.12-2.121M4.95 16.263s-1.703 2.54-.707 3.536c.995.996 3.535-.707 3.535-.707"/></g><defs><clipPath id="a"><path fill="#fff" d="M0 0h24v24H0z"/></clipPath></defs></svg>