<svg xmlns="http://www.w3.org/2000/svg" viewBox="0 0 24 24" fill="none"><path stroke="currentColor" stroke-linecap="round" stroke-linejoin="round" stroke-width="2" d="M15 5a3 3 0 1 0-6 0m6 0h3m-3 0c0 .903-.399 1.713-1.03 2.263M9 5H6m3 0c0 .903.399 1.713 1.03 2.263M14 20h2a2 2 0 0 0 2-2v-5c0-1.692-.859-4.816-4.03-5.737M14 20v0a2 2 0 0 1-2 2v0a2 2 0 0 1-2-2v0m4 0v-5a2 2 0 0 0-2-2v0a2 2 0 0 0-2 2v5m0 0H8a2 2 0 0 1-2-2v-5c0-1.692.859-4.816 4.03-5.737m3.94 0A2.988 2.988 0 0 1 12 8a2.988 2.988 0 0 1-1.97-.737"/></svg>