<svg xmlns="http://www.w3.org/2000/svg" width="24" height="24" fill="none" viewBox="0 0 24 24">
  <path stroke="#000" stroke-linecap="round" stroke-linejoin="round" stroke-width="2" d="M14 21h-4l-.551-2.48A6.991 6.991 0 017.63 17.47l-2.424.763-2-3.464 1.872-1.718a7.055 7.055 0 010-2.1L3.206 9.232l2-3.464 2.424.763A6.992 6.992 0 019.45 5.48L10 3h4l.551 2.48A6.992 6.992 0 0116.37 6.53l2.424-.763 2 3.464-1.872 1.718a7.05 7.05 0 010 2.1l1.872 1.718-2 3.464-2.424-.763a6.99 6.99 0 01-1.819 1.052L14 21z"/>
  <circle cx="12" cy="12" r="3" stroke="#000" stroke-width="2"/>
</svg>
