<svg xmlns="http://www.w3.org/2000/svg" viewBox="0 0 24 24" fill="none"><path stroke="currentColor" stroke-linecap="round" stroke-linejoin="round" stroke-width="2" d="M5 16.657A8.962 8.962 0 0 1 3 11c0-4.97 4.03-8 9-8s9 3.03 9 8c0 2.143-.75 4.112-2 5.657m-14 0V19a2 2 0 0 0 2 2h10a2 2 0 0 0 2-2v-2.343m-14 0h1.5m12.5 0h-1.5"/><circle cx="8" cy="12" r="1" stroke="currentColor" stroke-linecap="round" stroke-linejoin="round" stroke-width="2"/><path stroke="currentColor" stroke-linecap="round" stroke-linejoin="round" stroke-width="2" d="m11 16 1-2 1 2h-2zm-2 3v2m3-2v2m3-2v2"/><circle cx="16" cy="12" r="1" stroke="currentColor" stroke-linecap="round" stroke-linejoin="round" stroke-width="2"/></svg>