<svg width="24" height="24" viewBox="0 0 24 24" fill="none" xmlns="http://www.w3.org/2000/svg">
<path fill-rule="evenodd" clip-rule="evenodd" d="M15 4C16.3062 4 17.4175 4.83481 17.8293 6H9C6.23858 6 4 8.23858 4 11V15.8293C2.83481 15.4175 2 14.3062 2 13V7C2 5.34315 3.34315 4 5 4H15ZM19 8H18H9C7.34315 8 6 9.34315 6 11V16V17C6 18.6569 7.34315 20 9 20H19C20.6569 20 22 18.6569 22 17V11C22 9.34315 20.6569 8 19 8ZM16 14C16 15.1046 15.1046 16 14 16C12.8954 16 12 15.1046 12 14C12 12.8954 12.8954 12 14 12C15.1046 12 16 12.8954 16 14Z" fill="currentColor"/>
</svg>
