<svg width="24" height="24" viewBox="0 0 24 24" fill="none" xmlns="http://www.w3.org/2000/svg">
<path fill-rule="evenodd" clip-rule="evenodd" d="M10 4C9.44772 4 9 4.44772 9 5C9 5.47053 9.32497 5.86516 9.76272 5.97168C9.85103 5.99114 9.93353 6 10 6H14C14.0665 6 14.149 5.99114 14.2373 5.97168C14.675 5.86516 15 5.47053 15 5C15 4.44772 14.5523 4 14 4H10ZM10 2C8.69378 2 7.58254 2.83481 7.17071 4H6C4.34315 4 3 5.34315 3 7V19C3 20.6569 4.34315 22 6 22H18C19.6569 22 21 20.6569 21 19V7C21 5.34315 19.6569 4 18 4H16.8293C16.4175 2.83481 15.3062 2 14 2H10ZM8 10C7.44772 10 7 10.4477 7 11C7 11.5523 7.44772 12 8 12H16C16.5523 12 17 11.5523 17 11C17 10.4477 16.5523 10 16 10H8ZM8 14C7.44772 14 7 14.4477 7 15C7 15.5523 7.44772 16 8 16H12C12.5523 16 13 15.5523 13 15C13 14.4477 12.5523 14 12 14H8Z" fill="currentColor"/>
</svg>
