<svg width="24" height="24" viewBox="0 0 24 24" fill="none" xmlns="http://www.w3.org/2000/svg">
<path fill-rule="evenodd" clip-rule="evenodd" d="M12.5 4C9.62609 4 7.75078 5.77217 6.91301 7.02868C5.89136 7.12534 4.60179 7.47948 3.4782 8.28847C2.07487 9.29886 1 10.9741 1 13.5C1 16.0259 2.07487 17.7011 3.4782 18.7115C4.83054 19.6852 6.42331 20 7.5 20H17.5C18.41 20 19.7528 19.7352 20.8968 18.9115C22.0918 18.0511 23 16.6259 23 14.5C23 12.3741 22.0918 10.9489 20.8968 10.0885C20.0868 9.50524 19.1771 9.20223 18.3919 9.07502C18.2051 8.20886 17.7761 7.20524 17.1069 6.33005C16.1507 5.07973 14.6295 4 12.5 4Z" fill="currentColor"/>
</svg>
