<svg width="24" height="24" viewBox="0 0 24 24" fill="none" xmlns="http://www.w3.org/2000/svg">
<path fill-rule="evenodd" clip-rule="evenodd" d="M5.2299 3.25776C7.01386 2.46489 9.40829 2 12 2C14.5917 2 16.9861 2.46489 18.7701 3.25776C19.6608 3.65364 20.4435 4.15092 21.0171 4.75363C21.5956 5.3615 22 6.12233 22 7V8C22 8.15118 21.9189 8.42452 21.4836 8.7987C21.0517 9.17008 20.3681 9.54985 19.4364 9.88863C17.5814 10.5632 14.9523 11 12 11C9.04768 11 6.41865 10.5632 4.56357 9.88863C3.63192 9.54985 2.94833 9.17008 2.51636 8.7987C2.08114 8.42452 2 8.15118 2 8V7C2 6.12233 2.40438 5.3615 2.98287 4.75363C3.55645 4.15092 4.33918 3.65364 5.2299 3.25776ZM2 10.8843V13C2 13.1512 2.08114 13.4245 2.51636 13.7987C2.94833 14.1701 3.63192 14.5499 4.56357 14.8886C6.41865 15.5632 9.04768 16 12 16C14.9523 16 17.5814 15.5632 19.4364 14.8886C20.3681 14.5499 21.0517 14.1701 21.4836 13.7987C21.9189 13.4245 22 13.1512 22 13V10.8843C21.4513 11.2218 20.8139 11.5159 20.1199 11.7682C17.9938 12.5414 15.1228 13 12 13C8.87718 13 6.00622 12.5414 3.88008 11.7682C3.18613 11.5159 2.5487 11.2218 2 10.8843ZM22 15.8843C21.4513 16.2218 20.8139 16.5159 20.1199 16.7682C17.9938 17.5414 15.1228 18 12 18C8.87718 18 6.00622 17.5414 3.88008 16.7682C3.18613 16.5159 2.5487 16.2218 2 15.8843V17C2 17.8777 2.40438 18.6385 2.98287 19.2464C3.55645 19.8491 4.33918 20.3464 5.2299 20.7422C7.01386 21.5351 9.40829 22 12 22C14.5917 22 16.9861 21.5351 18.7701 20.7422C19.6608 20.3464 20.4435 19.8491 21.0171 19.2464C21.5956 18.6385 22 17.8777 22 17V15.8843Z" fill="currentColor"/>
</svg>
