<svg width="24" height="24" viewBox="0 0 24 24" fill="none" xmlns="http://www.w3.org/2000/svg">
<path fill-rule="evenodd" clip-rule="evenodd" d="M2 12C2 6.47715 6.47715 2 12 2C17.5228 2 22 6.47715 22 12C22 17.5228 17.5228 22 12 22C6.47715 22 2 17.5228 2 12ZM9 11C9.55228 11 10 10.5523 10 10C10 9.44772 9.55228 9 9 9C8.44772 9 8 9.44772 8 10C8 10.5523 8.44772 11 9 11ZM9.7568 13.0999C9.3958 12.6819 8.76433 12.6358 8.34636 12.9968C7.92839 13.3578 7.8822 13.9892 8.2432 14.4072C9.05258 15.3443 10.2838 16 12 16C13.7162 16 14.9474 15.3443 15.7568 14.4072C16.1178 13.9892 16.0716 13.3578 15.6536 12.9968C15.2356 12.6358 14.6042 12.6819 14.2432 13.0999C13.8244 13.5848 13.1516 14 12 14C10.8484 14 10.1756 13.5848 9.7568 13.0999ZM16 10C16 10.5523 15.5523 11 15 11C14.4477 11 14 10.5523 14 10C14 9.44772 14.4477 9 15 9C15.5523 9 16 9.44772 16 10Z" fill="currentColor"/>
</svg>
