<svg width="24" height="24" viewBox="0 0 24 24" fill="none" xmlns="http://www.w3.org/2000/svg">
<path fill-rule="evenodd" clip-rule="evenodd" d="M6 3C4.34315 3 3 4.34315 3 6V18C3 19.6569 4.34315 21 6 21H18C19.6569 21 21 19.6569 21 18V6C21 4.34315 19.6569 3 18 3H6ZM5 6C5 5.44772 5.44772 5 6 5H7V7H5V6ZM19 6V7H17V5H18C18.5523 5 19 5.44772 19 6ZM17 11V9H19V11H17ZM17 15V13H19V15H17ZM18 19H17V17H19V18C19 18.5523 18.5523 19 18 19ZM5 18V17H7V19H6C5.44772 19 5 18.5523 5 18ZM7 15H5V13H7V15ZM7 11H5V9H7V11Z" fill="currentColor"/>
</svg>
