<svg width="24" height="24" viewBox="0 0 24 24" fill="none" xmlns="http://www.w3.org/2000/svg">
<path fill-rule="evenodd" clip-rule="evenodd" d="M14 2.99999C14 2.57732 13.7343 2.20029 13.3362 2.0582C12.9381 1.9161 12.4937 2.03962 12.226 2.36675L3.22604 13.3668C2.98137 13.6658 2.93087 14.0791 3.09633 14.4282C3.26179 14.7774 3.61361 15 4 15H10V21C10 21.4227 10.2657 21.7997 10.6638 21.9418C11.0619 22.0839 11.5063 21.9604 11.774 21.6332L20.774 10.6332C21.0186 10.3342 21.0691 9.92093 20.9037 9.57176C20.7382 9.22259 20.3864 8.99999 20 8.99999H14V2.99999Z" fill="currentColor"/>
</svg>
