<svg width="24" height="24" viewBox="0 0 24 24" fill="none" xmlns="http://www.w3.org/2000/svg">
<path fill-rule="evenodd" clip-rule="evenodd" d="M2 5C2 3.34315 3.34315 2 5 2H15C16.6569 2 18 3.34315 18 5V11C18 12.6569 16.6569 14 15 14H11.4142L7.70711 17.7071C7.42111 17.9931 6.99099 18.0787 6.61732 17.9239C6.24364 17.7691 6 17.4045 6 17V14H5C3.34315 14 2 12.6569 2 11V5ZM22 9.00002V15C22 16 21.4 18 19 18H18V21C18 21.3334 17.8 22 17 22C16.7968 22 16.6323 21.957 16.5 21.8874L12.6126 18H9L12 15H15C16.3333 15 19 14.2 19 11V6C20 6 22 6.60003 22 9.00002Z" fill="currentColor"/>
</svg>
