<svg width="24" height="24" viewBox="0 0 24 24" fill="none" xmlns="http://www.w3.org/2000/svg">
<path fill-rule="evenodd" clip-rule="evenodd" d="M8 5C8 2.79086 9.79086 1 12 1C14.2091 1 16 2.79086 16 5V11C16 13.2091 14.2091 15 12 15C9.79086 15 8 13.2091 8 11V5ZM6 10C6 9.44771 5.55228 9 5 9C4.44772 9 4 9.44771 4 10V11C4 15.0796 7.05369 18.446 11 18.9381V22C11 22.5523 11.4477 23 12 23C12.5523 23 13 22.5523 13 22V18.9381C16.9463 18.446 20 15.0796 20 11V10C20 9.44771 19.5523 9 19 9C18.4477 9 18 9.44771 18 10V11C18 14.3137 15.3137 17 12 17C8.68629 17 6 14.3137 6 11V10Z" fill="currentColor"/>
</svg>
