<svg width="24" height="24" viewBox="0 0 24 24" fill="none" xmlns="http://www.w3.org/2000/svg">
<path fill-rule="evenodd" clip-rule="evenodd" d="M10.3262 3.22972C10.412 2.86626 10.2881 2.48528 10.005 2.24178C9.72181 1.99828 9.32657 1.93285 8.98005 2.07211C5.22263 3.58211 2 6.93444 2 11.4706C2 17.2858 6.71418 22 12.5294 22C17.0655 22 20.4179 18.7774 21.9279 15.0199C22.0641 14.681 22.0047 14.2948 21.7729 14.0125C21.5411 13.7302 21.1738 13.5967 20.8148 13.6643C17.7063 14.2501 15.4803 14.1269 13.9043 13.6182C12.3559 13.1186 11.3872 12.2333 10.7801 11.1639C9.51701 8.93872 9.73182 5.74777 10.3262 3.22972Z" fill="currentColor"/>
</svg>
