<svg width="24" height="24" viewBox="0 0 24 24" fill="none" xmlns="http://www.w3.org/2000/svg">
<path fill-rule="evenodd" clip-rule="evenodd" d="M2.24454 21.6552C1.97954 21.3496 1.92469 20.9145 2.10557 20.5528L11.1056 2.55279C11.275 2.214 11.6212 2 12 2C12.3788 2 12.725 2.214 12.8944 2.55279L21.8944 20.5528C22.0753 20.9145 22.0205 21.3496 21.7555 21.6552C21.4904 21.9608 21.0675 22.0766 20.6838 21.9487L13 19.3874V12C13 11.4477 12.5523 11 12 11C11.4477 11 11 11.4477 11 12V19.3874L3.31623 21.9487C2.93252 22.0766 2.50955 21.9608 2.24454 21.6552Z" fill="currentColor"/>
</svg>
