<svg width="24" height="24" viewBox="0 0 24 24" fill="none" xmlns="http://www.w3.org/2000/svg">
<path fill-rule="evenodd" clip-rule="evenodd" d="M7 5C7 4.44772 7.44772 4 8 4H16C16.5523 4 17 4.44772 17 5V6H7V5ZM5 6V5C5 3.34315 6.34315 2 8 2H16C17.6569 2 19 3.34315 19 5V6C20.6569 6 22 7.34315 22 9V10V15C22 16.6569 20.6569 18 19 18H18V19C18 20.6569 16.6569 22 15 22H9C7.34315 22 6 20.6569 6 19V18H5C3.34315 18 2 16.6569 2 15V9C2 7.34315 3.34315 6 5 6ZM8 15V17V19C8 19.5523 8.44772 20 9 20H15C15.5523 20 16 19.5523 16 19V17V15C16 14.4477 15.5523 14 15 14H9C8.44772 14 8 14.4477 8 15ZM6 10C6 9.44772 6.44772 9 7 9H9C9.55228 9 10 9.44772 10 10C10 10.5523 9.55228 11 9 11H7C6.44772 11 6 10.5523 6 10Z" fill="currentColor"/>
</svg>
