<svg width="24" height="24" viewBox="0 0 24 24" fill="none" xmlns="http://www.w3.org/2000/svg">
<path fill-rule="evenodd" clip-rule="evenodd" d="M6 3C4.34315 3 3 4.34315 3 6V18C3 19.6569 4.34315 21 6 21H18C19.6569 21 21 19.6569 21 18V8.82843C21 8.03278 20.6839 7.26972 20.1213 6.70711L17.2929 3.87868C16.7303 3.31607 15.9672 3 15.1716 3H6ZM8 9C8 8.44772 8.44772 8 9 8H12C12.5523 8 13 8.44772 13 9C13 9.55228 12.5523 10 12 10H9C8.44772 10 8 9.55228 8 9ZM10 14C8.89543 14 8 14.8954 8 16C8 17.1046 8.89543 18 10 18H14C15.1046 18 16 17.1046 16 16C16 14.8954 15.1046 14 14 14H10Z" fill="currentColor"/>
</svg>
