<svg width="24" height="24" viewBox="0 0 24 24" fill="none" xmlns="http://www.w3.org/2000/svg">
<path fill-rule="evenodd" clip-rule="evenodd" d="M2 4.5C2 3.67157 2.67157 3 3.5 3H20.5C21.3284 3 22 3.67157 22 4.5V11H2V4.5ZM2 13V19.5C2 20.3284 2.67157 21 3.5 21H20.5C21.3284 21 22 20.3284 22 19.5V13H2ZM17 8C17.5523 8 18 7.55228 18 7C18 6.44772 17.5523 6 17 6C16.4477 6 16 6.44772 16 7C16 7.55228 16.4477 8 17 8ZM17 18C17.5523 18 18 17.5523 18 17C18 16.4477 17.5523 16 17 16C16.4477 16 16 16.4477 16 17C16 17.5523 16.4477 18 17 18Z" fill="currentColor"/>
</svg>
