<svg width="24" height="24" viewBox="0 0 24 24" fill="none" xmlns="http://www.w3.org/2000/svg">
<path fill-rule="evenodd" clip-rule="evenodd" d="M4.29289 6.29289C4.00689 6.57889 3.92134 7.00901 4.07612 7.38268C4.2309 7.75636 4.59554 8 5 8H7L7 14C7 14.5523 7.44771 15 8 15C8.55228 15 9 14.5523 9 14L9 8L11 8C11.4045 8 11.7691 7.75636 11.9239 7.38268C12.0787 7.00901 11.9931 6.57889 11.7071 6.29289L8.70711 3.29289C8.31658 2.90237 7.68342 2.90237 7.29289 3.29289L4.29289 6.29289ZM12.2929 17.7071C12.0069 17.4211 11.9213 16.991 12.0761 16.6173C12.2309 16.2436 12.5955 16 13 16H15V10C15 9.44772 15.4477 9 16 9C16.5523 9 17 9.44772 17 10V16H19C19.4045 16 19.7691 16.2436 19.9239 16.6173C20.0787 16.991 19.9931 17.4211 19.7071 17.7071L16.7071 20.7071C16.3166 21.0976 15.6834 21.0976 15.2929 20.7071L12.2929 17.7071Z" fill="currentColor"/>
</svg>
