<svg width="24" height="24" viewBox="0 0 24 24" fill="none" xmlns="http://www.w3.org/2000/svg">
<path fill-rule="evenodd" clip-rule="evenodd" d="M17.7071 4.29289C17.4211 4.00689 16.991 3.92134 16.6173 4.07612C16.2436 4.2309 16 4.59554 16 5V7H10C9.44772 7 9 7.44771 9 8C9 8.55228 9.44772 9 10 9H16V11C16 11.4045 16.2436 11.7691 16.6173 11.9239C16.991 12.0787 17.4211 11.9931 17.7071 11.7071L20.7071 8.70711C21.0976 8.31658 21.0976 7.68342 20.7071 7.29289L17.7071 4.29289ZM6.29289 12.2929C6.57889 12.0069 7.00901 11.9213 7.38268 12.0761C7.75636 12.2309 8 12.5955 8 13V15H14C14.5523 15 15 15.4477 15 16C15 16.5523 14.5523 17 14 17H8V19C8 19.4045 7.75636 19.7691 7.38268 19.9239C7.00901 20.0787 6.57889 19.9931 6.29289 19.7071L3.29289 16.7071C2.90237 16.3166 2.90237 15.6834 3.29289 15.2929L6.29289 12.2929Z" fill="currentColor"/>
</svg>
