<svg width="24" height="24" viewBox="0 0 24 24" fill="none" xmlns="http://www.w3.org/2000/svg">
<path fill-rule="evenodd" clip-rule="evenodd" d="M3.70711 17.7071C3.31658 18.0976 2.68342 18.0976 2.29289 17.7071C1.90237 17.3166 1.90237 16.6834 2.29289 16.2929L8.29289 10.2929C8.68342 9.90237 9.31658 9.90237 9.70711 10.2929L13 13.5858L16.0858 10.5L13.2929 7.70711C13.0069 7.42111 12.9213 6.99099 13.0761 6.61732C13.2309 6.24364 13.5955 6 14 6H21C21.5523 6 22 6.44771 22 7V14C22 14.4045 21.7564 14.7691 21.3827 14.9239C21.009 15.0787 20.5789 14.9931 20.2929 14.7071L17.5 11.9142L13.7071 15.7071C13.3166 16.0976 12.6834 16.0976 12.2929 15.7071L9 12.4142L3.70711 17.7071Z" fill="currentColor"/>
</svg>
