<svg width="24" height="24" viewBox="0 0 24 24" fill="none" xmlns="http://www.w3.org/2000/svg">
<path fill-rule="evenodd" clip-rule="evenodd" d="M3 9C3 5.68629 5.68629 3 9 3C12.3137 3 15 5.68629 15 9C15 10.9443 14.0752 12.6725 12.6415 13.769C15.1863 14.9067 17 17.2079 17 20C17 20.5523 16.5523 21 16 21H2C1.44772 21 1 20.5523 1 20C1 17.2079 2.81374 14.9067 5.35847 13.769C3.92478 12.6725 3 10.9443 3 9ZM22 21H18C18.5523 21 19 20.5523 19 20C19 17.2079 17.1863 14.9067 14.6415 13.769C16.0752 12.6725 17 10.9443 17 9C17 6.38756 15.3304 4.16508 13 3.34141C13.6256 3.12031 14.2987 3 15 3C18.3137 3 21 5.68629 21 9C21 10.9443 20.0752 12.6725 18.6415 13.769C21.1863 14.9067 23 17.2079 23 20C23 20.5523 22.5523 21 22 21Z" fill="currentColor"/>
</svg>
